<svg id="open-hand-monument-132178" xmlns="http://www.w3.org/2000/svg" width="38.361" height="60" viewBox="0 0 38.361 60">
  <g id="g11" transform="translate(19.181 0.492)">
    <path id="polygon13" d="M33.5,2Z" transform="translate(-33.501 -2)" fill="#8d7e8a"/>
  </g>
  <g id="g17" transform="translate(16.822 0.492)">
    <path id="polygon19" d="M31.1,2h0Z" transform="translate(-31.102 -2)" fill="#8d7e8a"/>
  </g>
  <g id="g23" transform="translate(21.542 0.492)">
    <path id="polygon25" d="M35.9,2Z" transform="translate(-35.901 -2)" fill="#8d7e8a"/>
  </g>
  <g id="g29" transform="translate(4.736 0.492)">
    <path id="path31" d="M46.362,13.945l-3.669-1.21a1.424,1.424,0,0,0-1.1.008s-4.827,3.658-4.827-.086V11.511l.03-5.1V3.18a1.18,1.18,0,1,0-2.361,0,1.18,1.18,0,1,0-2.361,0,1.178,1.178,0,1,0-2.357,0L28.589,8.443l-.061.207a1.842,1.842,0,0,1-.332.717,2.593,2.593,0,0,1-3.339.652l-4.609-2.9c-.661-.485-1.653-.177-1.389,1.1l1.5,7.6c1.044,5.283,2.19,7.427,7.428,7.427h.787c.138,0,.275,0,.413-.013l1.355-.085a11.58,11.58,0,0,0,4.552-1.412,19.913,19.913,0,0,0,4.351-3.186l.777-.735a3.96,3.96,0,0,1,2.9-1.081l2.455.223a1.689,1.689,0,0,0,1.96-1.086,1.527,1.527,0,0,0-.972-1.928Z" transform="translate(-18.814 -2)" fill="#8d7e8a"/>
  </g>
  <path id="path37" d="M36.5,14.262a.983.983,0,0,1-1.9-.039l-.21-1.084-.2-.03.4,2.1a.983.983,0,0,0,1.9.039l.378-1.718-.209-.033Z" transform="translate(-14.331 -1.69)" fill="#9e919c"/>
  <path id="path43" d="M32.941,14.354a1.029,1.029,0,0,1-1.9-.034l-.256-1.152-.008-.033-.217,0,.225,1.014.256,1.152a1.029,1.029,0,0,0,1.9.034l.568-2.244-.25,0-.318,1.256Z" transform="translate(-14.272 -1.69)" fill="#9e919c"/>
  <g id="g49" transform="translate(27.976 11.128)">
    <path id="path51" d="M46.749,14.122l-3.669-1.21a1.781,1.781,0,0,0-.638-.1l3.024,1a1.526,1.526,0,0,1,.972,1.927,1.691,1.691,0,0,1-1.96,1.086s-2.244.04-1.17.087l2.455.223a1.689,1.689,0,0,0,1.96-1.086,1.527,1.527,0,0,0-.973-1.926Z" transform="translate(-42.442 -12.813)" fill="#9e919c"/>
  </g>
  <g id="g57" transform="translate(19.181 0.492)">
    <path id="polygon59" d="M33.5,2Z" transform="translate(-33.501 -2)" fill="#8d7e8a"/>
  </g>
  <g id="g63" transform="translate(16.822 0.492)">
    <path id="polygon65" d="M31.1,2h0Z" transform="translate(-31.102 -2)" fill="#8d7e8a"/>
  </g>
  <g id="g69" transform="translate(21.542 0.492)">
    <path id="polygon71" d="M35.9,2Z" transform="translate(-35.901 -2)" fill="#8d7e8a"/>
  </g>
  <g id="g77" transform="translate(19.181 0.492)">
    <path id="polygon79" d="M33.5,2Z" transform="translate(-33.501 -2)" fill="#8d7e8a"/>
  </g>
  <g id="g83" transform="translate(16.822 0.492)">
    <path id="polygon85" d="M31.1,2h0Z" transform="translate(-31.102 -2)" fill="#8d7e8a"/>
  </g>
  <g id="g89" transform="translate(21.542 0.492)">
    <path id="polygon91" d="M35.9,2Z" transform="translate(-35.901 -2)" fill="#8d7e8a"/>
  </g>
  <g id="g97" transform="translate(20.311 0.492)">
    <path id="polygon99" d="M34.65,2h0Z" transform="translate(-34.65 -2)" fill="#8d7e8a"/>
  </g>
  <g id="g103" transform="translate(17.952 0.492)">
    <path id="polygon105" d="M32.251,2h0Z" transform="translate(-32.251 -2)" fill="#8d7e8a"/>
  </g>
  <g id="g109" transform="translate(22.672 0.492)">
    <path id="polygon111" d="M37.05,2h0Z" transform="translate(-37.05 -2)" fill="#8d7e8a"/>
  </g>
  <g id="g115" transform="translate(12.646 0.492)">
    <g id="g117">
      <path id="path119" d="M29.458,9.366a1.842,1.842,0,0,0,.332-.717l.061-.207L30.984,3.18A1.181,1.181,0,0,1,32.163,2H31.033a1.18,1.18,0,0,0-1.179,1.18L28.721,8.443l-.061.207a1.842,1.842,0,0,1-.332.717,2.585,2.585,0,0,1-1.47.929A2.59,2.59,0,0,0,29.458,9.366Z" transform="translate(-26.857 -2)" fill="#9e919c"/>
    </g>
  </g>
  <g id="g121" transform="translate(4.735 5.389)">
    <g id="g123" transform="translate(0)">
      <path id="path125" d="M21.487,15.9l-1.5-7.6a1.123,1.123,0,0,1,.235-1.114c-.661-.462-1.628-.15-1.366,1.114l1.5,7.6c1.044,5.283,2.19,7.427,7.428,7.427h.787c.053,0,.106,0,.16,0C23.656,23.27,22.518,21.118,21.487,15.9Z" transform="translate(-18.813 -6.979)" fill="#9e919c"/>
    </g>
  </g>
  <g id="g131" transform="translate(19.181 0.492)">
    <path id="polygon133" d="M33.5,2Z" transform="translate(-33.501 -2)" fill="#7b6876"/>
  </g>
  <g id="g137" transform="translate(16.822 0.492)">
    <path id="polygon139" d="M31.1,2h0Z" transform="translate(-31.102 -2)" fill="#7b6876"/>
  </g>
  <g id="g143" transform="translate(21.542 0.492)">
    <path id="polygon145" d="M35.9,2Z" transform="translate(-35.901 -2)" fill="#7b6876"/>
  </g>
  <g id="g151" transform="translate(20.559 0.492)">
    <path id="path153" d="M36.08,3.18V6.414l-.03,5.1v1.147c0,1.567.848,1.83,1.83,1.614-.5-.156-.847-.619-.847-1.614V11.511l.03-5.1V3.18A1.179,1.179,0,0,0,35.885,2H34.9A1.18,1.18,0,0,1,36.08,3.18Z" transform="translate(-34.902 -2)" fill="#9e919c"/>
  </g>
  <g id="g157" transform="translate(15.724 0.492)">
    <path id="path159" d="M31.164,3.18v1.9h.984V3.18A1.179,1.179,0,0,0,30.969,2h-.983a1.18,1.18,0,0,1,1.178,1.18Z" transform="translate(-29.986 -2)" fill="#9e919c"/>
  </g>
  <g id="g163" transform="translate(18.099 0.492)">
    <path id="path165" d="M33.579,3.18v1.9h.984V3.18A1.179,1.179,0,0,0,33.384,2H32.4A1.18,1.18,0,0,1,33.579,3.18Z" transform="translate(-32.401 -2)" fill="#9e919c"/>
  </g>
  <g id="g169" transform="translate(5.072 5.393)">
    <path id="path171" d="M19.269,7.2l4.609,2.9a2.576,2.576,0,0,0,1.8.3,2.551,2.551,0,0,1-.814-.3L20.253,7.2a.929.929,0,0,0-1.1-.062A1.06,1.06,0,0,1,19.269,7.2Z" transform="translate(-19.157 -6.983)" fill="#9e919c"/>
  </g>
  <g id="g175" transform="translate(13.18 14.952)">
    <path id="path177" d="M41.654,16.7a3.96,3.96,0,0,0-2.9,1.081l-.777.735a19.913,19.913,0,0,1-4.351,3.186,11.58,11.58,0,0,1-4.552,1.412l-1.355.085c-.107.007-.214.009-.322.01.036,0,.068,0,.105,0h.787c.138,0,.275,0,.413-.013l1.355-.085a11.58,11.58,0,0,0,4.552-1.412,19.913,19.913,0,0,0,4.351-3.186l.777-.735a3.941,3.941,0,0,1,2.292-1.047l-.379-.034Z" transform="translate(-27.4 -16.701)" fill="#9e919c"/>
  </g>
  <path id="polygon183" d="M32.5,2Z" transform="translate(-14.303 -1.508)" fill="#2e3192"/>
  <path id="polygon189" d="M30.1,2h0Z" transform="translate(-14.264 -1.508)" fill="#2e3192"/>
  <path id="polygon195" d="M34.9,2Z" transform="translate(-14.343 -1.508)" fill="#2e3192"/>
  <path id="path201" d="M20.652,15.955h7.719V13.277A22.631,22.631,0,0,0,20.652,15.955Z" transform="translate(-14.109 -1.693)" fill="#8d7e8a"/>
  <path id="path207" d="M20.652,15.978h7.719V14.639S23.049,14.618,20.652,15.978Z" transform="translate(-14.109 -1.715)" fill="#9e919c"/>
  <g id="g219" transform="translate(5.41 31.967)">
    <path id="path221" d="M19.5,34V61.541H35.238a1.967,1.967,0,0,1-1.967-1.967V49.738a1.967,1.967,0,0,1,1.967-1.967h9.836a1.967,1.967,0,0,1,1.967,1.967V34Z" transform="translate(-19.5 -34)" fill="#f0eeef"/>
  </g>
  <g id="g213" transform="translate(30.984 57.541)">
    <path id="path215" d="M45.5,61.967h1.967V60A1.967,1.967,0,0,1,45.5,61.967Z" transform="translate(-45.5 -60)" fill="#f0eeef"/>
  </g>
  <path id="path227" d="M19.5,34V61.541h1.475V34Z" transform="translate(-14.09 -2.033)" fill="#fff"/>
  <path id="path233" d="M26,34V54.656h1.475V34Z" transform="translate(-14.197 -2.033)" fill="#e0dbde"/>
  <g id="g239" transform="translate(5.41 31.967)">
    <rect id="rect241" width="27.541" height="2.459" fill="#e0dbde"/>
  </g>
  <path id="path247" d="M35.443,48H33.967A1.967,1.967,0,0,0,32,49.967V59.8a1.967,1.967,0,0,0,1.967,1.967h1.475A1.967,1.967,0,0,1,33.475,59.8V49.967A1.967,1.967,0,0,1,35.443,48Z" transform="translate(-14.295 -2.262)" fill="#e0dbde"/>
  <path id="path253" d="M46,34V47.84a1.962,1.962,0,0,1,1.475,1.9V34Z" transform="translate(-14.525 -2.033)" fill="#e0dbde"/>
  <rect id="rect258" width="1.967" height="30.885" transform="translate(13.279 21.738)" fill="#afa5ad"/>
  <path id="path4164" d="M30.5,54.949v6.919h2.909V54.949Z" transform="translate(-14.27 -2.376)" fill="#e0dbde"/>
  <rect id="rect263" width="3.934" height="6.885" transform="translate(12.295 52.623)" fill="#f0eeef"/>
  <path id="path4162" d="M25,54.949v6.919h1.475V54.949Z" transform="translate(-14.18 -2.376)" fill="#e0dbde"/>
  <rect id="rect269" width="1.475" height="6.885" transform="translate(12.295 52.623)" fill="#fff"/>
  <path id="path274" d="M45.3,62.254H35.459A2.461,2.461,0,0,1,33,59.8V49.959A2.461,2.461,0,0,1,35.459,47.5H45.3a2.461,2.461,0,0,1,2.459,2.459V59.8A2.461,2.461,0,0,1,45.3,62.254Zm-9.836-13.77a1.477,1.477,0,0,0-1.475,1.475V59.8a1.477,1.477,0,0,0,1.475,1.475H45.3A1.477,1.477,0,0,0,46.77,59.8V49.959A1.477,1.477,0,0,0,45.3,48.484Z" transform="translate(-14.311 -2.254)" fill="#594454"/>
  <path id="path4160" d="M29.5,34V54.656h1.475V34Z" transform="translate(-14.254 -2.033)" fill="#e0dbde"/>
  <path id="path279" d="M30.426,62.369H26.492A.492.492,0,0,1,26,61.877V54.992a.492.492,0,0,1,.492-.492h3.934a.492.492,0,0,1,.492.492v6.885A.492.492,0,0,1,30.426,62.369Zm-3.443-.984h2.951v-5.9H26.984Z" transform="translate(-14.197 -2.369)" fill="#594454"/>
  <path id="path284" d="M29.459,54.969H27.492A.492.492,0,0,1,27,54.477V23.592a.492.492,0,0,1,.492-.492h1.967a.492.492,0,0,1,.492.492V54.477A.492.492,0,0,1,29.459,54.969Zm-1.475-.984h.984v-29.9h-.984Z" transform="translate(-14.213 -1.854)" fill="#594454"/>
  <path id="path289" d="M34.652,5.434a.492.492,0,0,1-.492-.492V3.172a.689.689,0,1,0-1.377,0v1.77a.492.492,0,0,1-.984,0V3.172a1.672,1.672,0,1,1,3.344,0v1.77a.491.491,0,0,1-.492.492Z" transform="translate(-14.292 -1.5)" fill="#594454"/>
  <path id="path294" d="M28.564,23.73h-.788c-5.481,0-6.821-2.307-7.91-7.823l-1.5-7.6A1.5,1.5,0,0,1,18.909,6.6a1.444,1.444,0,0,1,1.62.113L25.109,9.6A2.107,2.107,0,0,0,27.8,9.058a1.369,1.369,0,0,0,.242-.527l.068-.233,1.113-5.181a1.67,1.67,0,0,1,3.339.056v1.77a.491.491,0,1,1-.982,0V3.172a.687.687,0,1,0-1.373,0,.526.526,0,0,1-.011.1l-1.2,5.5a2.282,2.282,0,0,1-.417.881,3.1,3.1,0,0,1-3.973.777L19.976,7.521a.506.506,0,0,0-.536-.1c-.139.089-.18.345-.109.684l1.5,7.609c1.058,5.36,2.154,7.029,6.946,7.029h.788c.127,0,.255,0,.382-.012l1.355-.085a11.061,11.061,0,0,0,4.354-1.357A19.439,19.439,0,0,0,38.9,18.182l.777-.735a4.551,4.551,0,0,1,3.257-1.215l2.479.225c.993.083,1.3-.344,1.456-.768A1.033,1.033,0,0,0,46.2,14.4l-3.668-1.21a.972.972,0,0,0-.693-.03c-.482.358-3.114,2.228-4.614,1.486a2.017,2.017,0,0,1-.953-2L36.3,3.172a.688.688,0,1,0-1.376,0v1.77a.492.492,0,0,1-.985,0V3.172a1.672,1.672,0,1,1,3.343,0l-.03,9.478c0,.608.138.985.407,1.119.733.359,2.562-.616,3.63-1.425a.516.516,0,0,1,.09-.054,1.926,1.926,0,0,1,1.456-.03l3.669,1.211a2.014,2.014,0,0,1,1.285,2.547,2.17,2.17,0,0,1-2.466,1.421l-2.461-.224a3.5,3.5,0,0,0-2.515.948l-.777.735a20.4,20.4,0,0,1-4.459,3.264,12.022,12.022,0,0,1-4.743,1.468L29,23.714C28.859,23.726,28.713,23.73,28.564,23.73Z" transform="translate(-14.071 -1.5)" fill="#594454"/>
  <path id="path299" d="M51.869,62.484H14.492a.492.492,0,1,1,0-.984H51.869a.492.492,0,1,1,0,.984Z" transform="translate(-14 -2.484)" fill="#594454"/>
  <path id="path305" d="M31.48,7.242H30.5a.246.246,0,1,1,0-.492h.984a.246.246,0,0,1,0,.492Z" transform="translate(-14.266 -1.586)" fill="#594454"/>
  <path id="path311" d="M33.48,9.242H32.5a.246.246,0,1,1,0-.492h.984a.246.246,0,1,1,0,.492Z" transform="translate(-14.299 -1.619)" fill="#594454"/>
  <path id="path317" d="M31.48,11.242H30.5a.246.246,0,0,1,0-.492h.984a.246.246,0,0,1,0,.492Z" transform="translate(-14.266 -1.652)" fill="#594454"/>
  <path id="path323" d="M28.492,16.418A.492.492,0,0,1,28,15.926V11.992a.492.492,0,0,1,.984,0v3.934A.492.492,0,0,1,28.492,16.418Z" transform="translate(-14.23 -1.664)" fill="#594454"/>
  <path id="path329" d="M28.361,16.484H20.492a.492.492,0,0,1,0-.984h7.869a.492.492,0,0,1,0,.984Z" transform="translate(-14.098 -1.73)" fill="#594454"/>
  <path id="path335" d="M35.48,11.242H34.5a.246.246,0,0,1,0-.492h.984a.246.246,0,1,1,0,.492Z" transform="translate(-14.332 -1.652)" fill="#594454"/>
  <path id="path341" d="M35.48,7.242H34.5a.246.246,0,1,1,0-.492h.984a.246.246,0,1,1,0,.492Z" transform="translate(-14.332 -1.586)" fill="#594454"/>
  <path id="path347" d="M20.462,16.532a.492.492,0,0,1-.247-.918,23.117,23.117,0,0,1,16.77-2.526.492.492,0,0,1-.221.959,22.141,22.141,0,0,0-16.055,2.419A.491.491,0,0,1,20.462,16.532Z" transform="translate(-14.098 -1.68)" fill="#594454"/>
  <path id="path353" d="M35.551,16.436H35.52a1.462,1.462,0,0,1-1.4-1.12l-.41-2.124a.492.492,0,1,1,.966-.187l.4,2.1a.467.467,0,0,0,.462.348.459.459,0,0,0,.481-.353l.369-1.687a.492.492,0,0,1,.961.211l-.378,1.719A1.467,1.467,0,0,1,35.551,16.436Z" transform="translate(-14.323 -1.682)" fill="#594454"/>
  <path id="path359" d="M31.993,16.436h-.042a1.425,1.425,0,0,1-1.389-1l-.488-2.194a.492.492,0,1,1,.961-.213l.48,2.166c.052.18.281.26.459.264a.439.439,0,0,0,.494-.279l.556-2.206a.491.491,0,0,1,.952.24l-.567,2.244A1.439,1.439,0,0,1,31.993,16.436Z" transform="translate(-14.263 -1.682)" fill="#594454"/>
  <path id="path365" d="M31.192,23.847h-.009a2.734,2.734,0,0,1-2.327-4.084.492.492,0,1,1,.856.486A1.751,1.751,0,0,0,31.2,22.863a.492.492,0,0,1-.009.984Z" transform="translate(-14.238 -1.795)" fill="#594454"/>
  <path id="polygon371" d="M47.008,59.541v1.967h1.967V32H17.5V61.508h1.967V33.967H47.008V59.541Z" transform="translate(-14.057 -2)" fill="#f0eeef"/>
  <path id="path376" d="M47.033,62.025H19.492A.492.492,0,0,1,19,61.533V33.992a.492.492,0,0,1,.492-.492H47.033a.492.492,0,0,1,.492.492V61.533A.492.492,0,0,1,47.033,62.025Zm-27.049-.984H46.541V34.484H19.984Z" transform="translate(-14.082 -2.025)" fill="#594454"/>
  <path id="path381" d="M48.967,61.992H17.492A.492.492,0,0,1,17,61.5V31.992a.492.492,0,0,1,.492-.492H48.967a.492.492,0,0,1,.492.492V61.5A.492.492,0,0,1,48.967,61.992Zm-30.984-.984H48.475V32.484H17.984Z" transform="translate(-14.049 -1.992)" fill="#594454"/>
  <path id="path387" d="M41.489,15.7a3.181,3.181,0,0,1-2.455-1.17.245.245,0,0,1,.118-.391,9.143,9.143,0,0,0,2.266-1.161.25.25,0,0,1,.234-.023.244.244,0,0,1,.146.185,3.678,3.678,0,0,0,.974,1.926.244.244,0,0,1,.063.222.248.248,0,0,1-.147.177A3.2,3.2,0,0,1,41.489,15.7Zm-1.826-1.218a2.691,2.691,0,0,0,2.5.637,4.149,4.149,0,0,1-.774-1.537,9.958,9.958,0,0,1-1.73.9Z" transform="translate(-14.409 -1.688)" fill="#594454"/>
</svg>
