<svg id="chennai-central-railway-station-119692" xmlns="http://www.w3.org/2000/svg" width="67.674" height="60" viewBox="0 0 67.674 60">
  <rect id="Rectangle_2184" data-name="Rectangle 2184" width="16.047" height="16.047" transform="translate(11.548 43.692)" fill="#ed6d64"/>
  <rect id="Rectangle_2185" data-name="Rectangle 2185" width="16.047" height="16.047" transform="translate(40.153 43.692)" fill="#ed6d64"/>
  <rect id="Rectangle_2186" data-name="Rectangle 2186" width="16.047" height="3.488" transform="translate(40.153 40.203)" fill="#f1f1f2"/>
  <rect id="Rectangle_2187" data-name="Rectangle 2187" width="16.047" height="1.395" transform="translate(40.153 42.297)" fill="#fff"/>
  <path id="Path_104" data-name="Path 104" d="M89.311,64.9l-2.093-2.093L85.125,64.9H82.334V85.83H92.1V64.9Z" transform="translate(-26.135 -26.092)" fill="#ed6d64"/>
  <path id="Path_105" data-name="Path 105" d="M89.729,68.6h-1.4V66.5a.7.7,0,0,1,.7-.7h0a.7.7,0,0,1,.7.7Z" transform="translate(-27.949 -26.999)" fill="#8d7e8a"/>
  <path id="Path_106" data-name="Path 106" d="M89.032,65.807a.7.7,0,0,0-.7.7v1.4a.7.7,0,1,1,1.4,0V66.5A.7.7,0,0,0,89.032,65.807Z" transform="translate(-27.949 -26.999)" fill="#7a6876"/>
  <path id="Path_107" data-name="Path 107" d="M90.9,81.47H85.318V76.587A2.791,2.791,0,0,1,88.109,73.8h0A2.791,2.791,0,0,1,90.9,76.587Zm-.036,7.674H85.282V86.354a2.791,2.791,0,0,1,2.791-2.791h0a2.791,2.791,0,0,1,2.791,2.791Z" transform="translate(-27.026 -29.414)" fill="#8d7e8a"/>
  <path id="Path_108" data-name="Path 108" d="M88.109,73.8a2.791,2.791,0,0,0-2.791,2.791v1.4a2.791,2.791,0,1,1,5.581,0v-1.4A2.79,2.79,0,0,0,88.109,73.8Zm-.036,9.767a2.791,2.791,0,0,0-2.791,2.791v1.4a2.791,2.791,0,0,1,5.581,0v-1.4A2.791,2.791,0,0,0,88.073,83.563Z" transform="translate(-27.026 -29.414)" fill="#7a6876"/>
  <path id="Path_109" data-name="Path 109" d="M77.078,79.993H75.334V76.679a.872.872,0,0,1,.872-.872h0a.872.872,0,0,1,.872.872Z" transform="translate(-24.019 -30.022)" fill="#8d7e8a"/>
  <path id="Path_110" data-name="Path 110" d="M76.206,75.807a.872.872,0,0,0-.872.872v1.4a.872.872,0,0,1,1.744,0v-1.4A.872.872,0,0,0,76.206,75.807Z" transform="translate(-24.019 -30.022)" fill="#7a6876"/>
  <path id="Path_111" data-name="Path 111" d="M65.578,79.993H63.834V76.679a.872.872,0,0,1,.872-.872h0a.872.872,0,0,1,.872.872Zm3.14,0H66.974V76.679a.872.872,0,0,1,.872-.872h0a.872.872,0,0,1,.872.872Z" transform="translate(-20.542 -30.022)" fill="#8d7e8a"/>
  <path id="Path_112" data-name="Path 112" d="M64.706,75.807a.872.872,0,0,0-.872.872v1.4a.872.872,0,0,1,1.744,0v-1.4A.872.872,0,0,0,64.706,75.807Zm3.14,0a.872.872,0,0,0-.872.872v1.4a.872.872,0,1,1,1.744,0v-1.4A.872.872,0,0,0,67.846,75.807Z" transform="translate(-20.542 -30.022)" fill="#7a6876"/>
  <path id="Path_113" data-name="Path 113" d="M61.334,93.475v-2.93A1.744,1.744,0,0,1,63.078,88.8h0a1.744,1.744,0,0,1,1.744,1.744v2.93m1.4,0v-2.93A1.744,1.744,0,0,1,67.962,88.8h0a1.744,1.744,0,0,1,1.744,1.744v2.93m1.4,0v-2.93A1.744,1.744,0,0,1,72.846,88.8h0a1.744,1.744,0,0,1,1.744,1.744v2.93" transform="translate(-19.786 -33.951)" fill="#8d7e8a"/>
  <path id="Path_114" data-name="Path 114" d="M63.078,88.8a1.744,1.744,0,0,0-1.744,1.744v1.4a1.744,1.744,0,1,1,3.488,0v-1.4A1.744,1.744,0,0,0,63.078,88.8Zm4.884,0a1.744,1.744,0,0,0-1.744,1.744v1.4a1.744,1.744,0,1,1,3.488,0v-1.4A1.744,1.744,0,0,0,67.962,88.8Zm4.884,0A1.744,1.744,0,0,0,71.1,90.545v1.4a1.744,1.744,0,1,1,3.488,0v-1.4A1.744,1.744,0,0,0,72.846,88.8Z" transform="translate(-19.786 -33.951)" fill="#7a6876"/>
  <path id="Path_115" data-name="Path 115" d="M11.311,64.9,9.218,62.807,7.125,64.9H4.334V85.83H14.1V64.9Z" transform="translate(-2.554 -26.092)" fill="#ed6d64"/>
  <path id="Path_116" data-name="Path 116" d="M12.915,81.47H7.334V76.587A2.791,2.791,0,0,1,10.125,73.8h0a2.791,2.791,0,0,1,2.791,2.791Zm5.233-2.085H16.4V76.071a.872.872,0,0,1,.872-.872h0a.872.872,0,0,1,.872.872Zm1.744,0H18.148V76.071a.872.872,0,0,1,.872-.872h0a.872.872,0,0,1,.872.872Zm3.14,0H21.287V76.071a.872.872,0,0,1,.872-.872h0a.872.872,0,0,1,.872.872Zm1.744,0H23.032V76.071A.872.872,0,0,1,23.9,75.2h0a.872.872,0,0,1,.872.872Zm3.14,0H26.171V76.071a.872.872,0,0,1,.872-.872h0a.872.872,0,0,1,.872.872Zm1.744,0H27.915V76.071a.872.872,0,0,1,.872-.872h0a.872.872,0,0,1,.872.872Z" transform="translate(-3.461 -29.414)" fill="#8d7e8a"/>
  <path id="Path_117" data-name="Path 117" d="M10.125,73.8a2.791,2.791,0,0,0-2.791,2.791v1.4a2.791,2.791,0,1,1,5.581,0v-1.4A2.79,2.79,0,0,0,10.125,73.8Zm7.151,1.4a.872.872,0,0,0-.872.872v1.4a.872.872,0,1,1,1.744,0v-1.4A.872.872,0,0,0,17.276,75.2Zm1.744,0a.872.872,0,0,0-.872.872v1.4a.872.872,0,1,1,1.744,0v-1.4A.872.872,0,0,0,19.02,75.2Zm3.14,0a.872.872,0,0,0-.872.872v1.4a.872.872,0,1,1,1.744,0v-1.4A.872.872,0,0,0,22.16,75.2Zm1.744,0a.872.872,0,0,0-.872.872v1.4a.872.872,0,1,1,1.744,0v-1.4A.872.872,0,0,0,23.9,75.2Zm4.884,0a.872.872,0,0,0-.872.872v1.4a.872.872,0,0,1,1.744,0v-1.4A.872.872,0,0,0,28.787,75.2Zm-1.744,0a.872.872,0,0,0-.872.872v1.4a.872.872,0,1,1,1.744,0v-1.4A.872.872,0,0,0,27.043,75.2Z" transform="translate(-3.461 -29.414)" fill="#7a6876"/>
  <rect id="Rectangle_2188" data-name="Rectangle 2188" width="12.558" height="39.767" transform="translate(27.594 19.971)" fill="#ed6d64"/>
  <path id="Path_118" data-name="Path 118" d="M52.259,92.168H45.282V87.284A3.489,3.489,0,0,1,48.77,83.8h0a3.489,3.489,0,0,1,3.488,3.488Z" transform="translate(-14.933 -32.437)" fill="#8d7e8a"/>
  <path id="Path_119" data-name="Path 119" d="M48.77,83.8a3.489,3.489,0,0,0-3.488,3.488v1.4a3.488,3.488,0,1,1,6.977,0v-1.4A3.488,3.488,0,0,0,48.77,83.8Z" transform="translate(-14.933 -32.437)" fill="#7a6876"/>
  <rect id="Rectangle_2189" data-name="Rectangle 2189" width="1.395" height="39.767" transform="translate(38.757 19.971)" fill="#f48575"/>
  <rect id="Rectangle_2190" data-name="Rectangle 2190" width="1.395" height="39.767" transform="translate(27.594 19.971)" fill="#f48575"/>
  <rect id="Rectangle_2191" data-name="Rectangle 2191" width="1.395" height="20.93" transform="translate(1.78 38.808)" fill="#f48575"/>
  <rect id="Rectangle_2192" data-name="Rectangle 2192" width="1.395" height="20.93" transform="translate(10.153 38.808)" fill="#f48575"/>
  <rect id="Rectangle_2193" data-name="Rectangle 2193" width="1.395" height="20.93" transform="translate(56.199 38.808)" fill="#f48575"/>
  <rect id="Rectangle_2194" data-name="Rectangle 2194" width="1.395" height="20.93" transform="translate(64.571 38.808)" fill="#f48575"/>
  <rect id="Rectangle_2195" data-name="Rectangle 2195" width="16.047" height="3.488" transform="translate(11.548 40.203)" fill="#f1f1f2"/>
  <path id="Path_120" data-name="Path 120" d="M4.334,63.086l2.093-6.279h5.581L14.1,63.086H11.311L9.218,60.993,7.125,63.086Z" transform="translate(-2.554 -24.278)" fill="#f1f1f2"/>
  <rect id="Rectangle_2196" data-name="Rectangle 2196" width="15.215" height="1.395" transform="translate(11.86 42.297)" fill="#fff"/>
  <rect id="Rectangle_2197" data-name="Rectangle 2197" width="12.558" height="1.395" transform="translate(27.594 19.971)" fill="#e0605a"/>
  <path id="Path_121" data-name="Path 121" d="M47.334,47.807v1.4l1.4.7v1.4h1.4V49.9l1.4-.7v-1.4Z" transform="translate(-15.554 -21.557)" fill="#ed6d64"/>
  <path id="Path_122" data-name="Path 122" d="M48.729,49.2v-1.4h-1.4v1.4l2.093.7v1.4h.7V49.9Z" transform="translate(-15.554 -21.557)" fill="#f48575"/>
  <path id="Path_123" data-name="Path 123" d="M50.729,47.807v1.4l-1.4.7v1.4h.7V49.9l2.093-.7v-1.4Z" transform="translate(-16.158 -21.557)" fill="#f48575"/>
  <path id="Path_124" data-name="Path 124" d="M48.427,63.086H46.334V57.854a1.047,1.047,0,0,1,1.047-1.047h0a1.047,1.047,0,0,1,1.047,1.047Zm3.488,0H49.822V57.854a1.047,1.047,0,0,1,1.047-1.047h0a1.047,1.047,0,0,1,1.047,1.047ZM49.125,73.551H46.334V67.97a1.4,1.4,0,0,1,1.4-1.4h0a1.4,1.4,0,0,1,1.4,1.4Zm2.791,0H49.125V67.97a1.4,1.4,0,0,1,1.4-1.4h0a1.4,1.4,0,0,1,1.4,1.4Z" transform="translate(-15.251 -24.278)" fill="#8d7e8a"/>
  <rect id="Rectangle_2198" data-name="Rectangle 2198" width="1.395" height="16.047" transform="translate(54.804 43.692)" fill="#e0605a"/>
  <rect id="Rectangle_2199" data-name="Rectangle 2199" width="1.395" height="16.047" transform="translate(40.153 43.692)" fill="#e0605a"/>
  <rect id="Rectangle_2200" data-name="Rectangle 2200" width="1.395" height="16.047" transform="translate(26.199 43.692)" fill="#e0605a"/>
  <rect id="Rectangle_2201" data-name="Rectangle 2201" width="1.395" height="16.047" transform="translate(11.548 43.692)" fill="#e0605a"/>
  <path id="Path_125" data-name="Path 125" d="M63.078,79.993H61.334V76.679a.872.872,0,0,1,.872-.872h0a.872.872,0,0,1,.872.872Zm6.628,0H67.962V76.679a.872.872,0,0,1,.872-.872h0a.872.872,0,0,1,.872.872Zm4.884,0H72.846V76.679a.872.872,0,0,1,.872-.872h0a.872.872,0,0,1,.872.872Z" transform="translate(-19.786 -30.022)" fill="#8d7e8a"/>
  <rect id="Rectangle_2202" data-name="Rectangle 2202" width="1.744" height="1.744" transform="translate(41.548 51.359)" fill="#8d7e8a"/>
  <rect id="Rectangle_2203" data-name="Rectangle 2203" width="1.744" height="1.744" transform="translate(43.292 51.359)" fill="#8d7e8a"/>
  <rect id="Rectangle_2204" data-name="Rectangle 2204" width="1.744" height="1.744" transform="translate(46.432 51.359)" fill="#8d7e8a"/>
  <rect id="Rectangle_2205" data-name="Rectangle 2205" width="1.744" height="1.744" transform="translate(48.176 51.359)" fill="#8d7e8a"/>
  <rect id="Rectangle_2206" data-name="Rectangle 2206" width="1.744" height="1.744" transform="translate(51.315 51.359)" fill="#8d7e8a"/>
  <rect id="Rectangle_2207" data-name="Rectangle 2207" width="1.744" height="1.744" transform="translate(53.06 51.359)" fill="#8d7e8a"/>
  <rect id="Rectangle_2208" data-name="Rectangle 2208" width="1.744" height="1.744" transform="translate(12.943 51.359)" fill="#8d7e8a"/>
  <rect id="Rectangle_2209" data-name="Rectangle 2209" width="1.744" height="1.744" transform="translate(14.687 51.359)" fill="#8d7e8a"/>
  <rect id="Rectangle_2210" data-name="Rectangle 2210" width="1.744" height="1.744" transform="translate(17.827 51.359)" fill="#8d7e8a"/>
  <rect id="Rectangle_2211" data-name="Rectangle 2211" width="1.744" height="1.744" transform="translate(19.571 51.359)" fill="#8d7e8a"/>
  <rect id="Rectangle_2212" data-name="Rectangle 2212" width="1.744" height="1.744" transform="translate(22.711 51.359)" fill="#8d7e8a"/>
  <rect id="Rectangle_2213" data-name="Rectangle 2213" width="1.744" height="1.744" transform="translate(24.455 51.359)" fill="#8d7e8a"/>
  <path id="Path_126" data-name="Path 126" d="M89.311,64.9l-2.093-2.093L85.125,64.9H82.334v1.4h2.791L87.218,64.2,89.311,66.3H92.1V64.9Z" transform="translate(-26.135 -26.092)" fill="#e0605a"/>
  <path id="Path_127" data-name="Path 127" d="M11.311,64.9,9.218,62.807,7.125,64.9H4.334v1.4H7.125L9.218,64.2,11.311,66.3H14.1V64.9Z" transform="translate(-2.554 -26.092)" fill="#e0605a"/>
  <path id="Path_128" data-name="Path 128" d="M11.729,68.6h-1.4V66.5a.7.7,0,0,1,.7-.7h0a.7.7,0,0,1,.7.7Z" transform="translate(-4.367 -26.999)" fill="#8d7e8a"/>
  <path id="Path_129" data-name="Path 129" d="M11.032,65.807a.7.7,0,0,0-.7.7v1.4a.7.7,0,1,1,1.4,0V66.5A.7.7,0,0,0,11.032,65.807Z" transform="translate(-4.367 -26.999)" fill="#7a6876"/>
  <path id="Path_130" data-name="Path 130" d="M44.437,33.063h-3.1L45.52,19.807h4.186l4.186,13.256H51.413" transform="translate(-13.74 -13.092)" fill="#f1f1f2"/>
  <rect id="Rectangle_2214" data-name="Rectangle 2214" width="9.767" height="4.186" transform="translate(28.932 11.599)" fill="#f1f1f2"/>
  <path id="Path_131" data-name="Path 131" d="M45.387,36.877V33.388h1.337l2.151-5.581,2.035,5.581h1.453v3.488" transform="translate(-14.965 -15.51)" fill="#ed6d64"/>
  <path id="Path_132" data-name="Path 132" d="M48.12,33.388l1.434-3.721-.679-1.86-2.151,5.581H45.387v3.488h1.4V33.388Z" transform="translate(-14.965 -15.51)" fill="#e0605a"/>
  <path id="Path_133" data-name="Path 133" d="M52.169,33.388v3.488h1.4V33.388Zm-1.453,0h1.4l-2.035-5.581-.717,1.861Z" transform="translate(-16.166 -15.51)" fill="#e0605a"/>
  <ellipse id="Ellipse_178" data-name="Ellipse 178" cx="2.093" cy="2.093" rx="2.093" ry="2.093" transform="translate(31.78 20.669)" fill="#ececed"/>
  <path id="Path_134" data-name="Path 134" d="M50.183,39.807a2.126,2.126,0,0,0-.349.035,2.086,2.086,0,0,1,0,4.116,2.053,2.053,0,0,0,.349.035,2.093,2.093,0,0,0,0-4.186Z" transform="translate(-16.309 -19.138)" fill="#fff"/>
  <path id="Path_135" data-name="Path 135" d="M48.032,41.9a2.089,2.089,0,0,1,1.744-2.058,2.053,2.053,0,0,0-.349-.035,2.093,2.093,0,1,0,0,4.186,2.127,2.127,0,0,0,.349-.035A2.09,2.09,0,0,1,48.032,41.9Z" transform="translate(-15.554 -19.138)" fill="#d9d4d8"/>
  <path id="Path_136" data-name="Path 136" d="M12.863,93.377H7.282V90.587A2.791,2.791,0,0,1,10.073,87.8h0a2.791,2.791,0,0,1,2.791,2.791Z" transform="translate(-3.445 -33.647)" fill="#8d7e8a"/>
  <path id="Path_137" data-name="Path 137" d="M10.073,87.8a2.791,2.791,0,0,0-2.791,2.791v1.4a2.791,2.791,0,1,1,5.581,0v-1.4A2.791,2.791,0,0,0,10.073,87.8Z" transform="translate(-3.445 -33.647)" fill="#7a6876"/>
  <path id="Path_138" data-name="Path 138" d="M20.334,93.475v-2.93A1.744,1.744,0,0,1,22.078,88.8h0a1.744,1.744,0,0,1,1.744,1.744v2.93m1.4,0v-2.93A1.744,1.744,0,0,1,26.962,88.8h0a1.744,1.744,0,0,1,1.744,1.744v2.93m1.4,0v-2.93A1.744,1.744,0,0,1,31.846,88.8h0a1.744,1.744,0,0,1,1.744,1.744v2.93" transform="translate(-7.391 -33.951)" fill="#8d7e8a"/>
  <path id="Path_139" data-name="Path 139" d="M22.078,88.8a1.744,1.744,0,0,0-1.744,1.744v1.4a1.744,1.744,0,1,1,3.488,0v-1.4A1.744,1.744,0,0,0,22.078,88.8Zm4.884,0a1.744,1.744,0,0,0-1.744,1.744v1.4a1.744,1.744,0,1,1,3.488,0v-1.4A1.744,1.744,0,0,0,26.962,88.8Zm4.884,0A1.744,1.744,0,0,0,30.1,90.545v1.4a1.744,1.744,0,1,1,3.488,0v-1.4A1.744,1.744,0,0,0,31.846,88.8Z" transform="translate(-7.391 -33.951)" fill="#7a6876"/>
  <path id="Path_140" data-name="Path 140" d="M82.281,63.086l2.093-6.279h5.581l2.093,6.279H89.258l-2.093-2.093-2.092,2.093Z" transform="translate(-26.119 -24.278)" fill="#f1f1f2"/>
  <path id="Path_141" data-name="Path 141" d="M89.259,62.9l-2.093-2.093L85.073,62.9H82.747l-.465,1.4h2.791L87.166,62.2,89.259,64.3h2.791l-.465-1.4Z" transform="translate(-26.119 -25.487)" fill="#fff"/>
  <path id="Path_142" data-name="Path 142" d="M84.375,56.807l-2.093,6.279h1.4l2.093-6.279Z" transform="translate(-26.119 -24.278)" fill="#fff"/>
  <path id="Path_143" data-name="Path 143" d="M90.282,63.5l1.4,1.4h1.4L90.98,62.807Z" transform="translate(-28.538 -26.092)" fill="#fff"/>
  <path id="Path_144" data-name="Path 144" d="M92.677,56.807h-1.4l2.093,6.279h1.4Z" transform="translate(-28.84 -24.278)" fill="#fff"/>
  <path id="Path_145" data-name="Path 145" d="M11.259,62.9,9.166,60.807,7.073,62.9H4.747l-.465,1.4H7.073L9.166,62.2,11.259,64.3h2.791l-.465-1.4Z" transform="translate(-2.538 -25.487)" fill="#fff"/>
  <path id="Path_146" data-name="Path 146" d="M6.375,56.807,4.282,63.086h1.4L7.77,56.807Z" transform="translate(-2.538 -24.278)" fill="#fff"/>
  <path id="Path_147" data-name="Path 147" d="M14.677,56.807h-1.4l2.093,6.279h1.4Z" transform="translate(-5.259 -24.278)" fill="#fff"/>
  <path id="Path_148" data-name="Path 148" d="M86.375,62.807,84.282,64.9h1.4l1.4-1.4Z" transform="translate(-26.724 -26.092)" fill="#fff"/>
  <rect id="Rectangle_2215" data-name="Rectangle 2215" width="1.395" height="3.488" transform="translate(26.199 40.203)" fill="#d9d4d8"/>
  <rect id="Rectangle_2216" data-name="Rectangle 2216" width="1.395" height="3.488" transform="translate(11.548 40.203)" fill="#d9d4d8"/>
  <rect id="Rectangle_2217" data-name="Rectangle 2217" width="1.395" height="3.488" transform="translate(54.804 40.203)" fill="#d9d4d8"/>
  <rect id="Rectangle_2218" data-name="Rectangle 2218" width="1.395" height="3.488" transform="translate(40.153 40.203)" fill="#d9d4d8"/>
  <rect id="Rectangle_2219" data-name="Rectangle 2219" width="1.395" height="1.395" transform="translate(34.571 35.32) rotate(90)" fill="#ececed"/>
  <path id="Path_149" data-name="Path 149" d="M47.381,56.807a1.047,1.047,0,0,0-1.047,1.047v1.4a1.047,1.047,0,0,1,2.093,0v-1.4A1.046,1.046,0,0,0,47.381,56.807Zm3.488,0a1.047,1.047,0,0,0-1.047,1.047v1.4a1.047,1.047,0,0,1,2.093,0v-1.4A1.046,1.046,0,0,0,50.869,56.807Z" transform="translate(-15.251 -24.278)" fill="#7a6876"/>
  <g id="Group_217" data-name="Group 217" transform="translate(31.083 42.297)">
    <path id="Path_150" data-name="Path 150" d="M47.729,70.807a1.4,1.4,0,0,0-1.4,1.4v1.4a1.4,1.4,0,1,1,2.791,0V72.2A1.4,1.4,0,0,0,47.729,70.807Z" transform="translate(-46.334 -70.807)" fill="#7a6876"/>
  </g>
  <g id="Group_218" data-name="Group 218" transform="translate(33.874 42.297)">
    <path id="Path_151" data-name="Path 151" d="M51.729,70.807a1.4,1.4,0,0,0-1.4,1.4v1.4a1.4,1.4,0,1,1,2.791,0V72.2A1.4,1.4,0,0,0,51.729,70.807Z" transform="translate(-50.334 -70.807)" fill="#7a6876"/>
  </g>
  <g id="Group_219" data-name="Group 219" transform="translate(41.548 45.785)">
    <path id="Path_152" data-name="Path 152" d="M62.206,75.807a.872.872,0,0,0-.872.872v1.4a.872.872,0,0,1,1.744,0v-1.4A.872.872,0,0,0,62.206,75.807Z" transform="translate(-61.334 -75.807)" fill="#7a6876"/>
  </g>
  <g id="Group_220" data-name="Group 220" transform="translate(48.176 45.785)">
    <path id="Path_153" data-name="Path 153" d="M71.706,75.807a.872.872,0,0,0-.872.872v1.4a.872.872,0,0,1,1.744,0v-1.4A.872.872,0,0,0,71.706,75.807Z" transform="translate(-70.834 -75.807)" fill="#7a6876"/>
  </g>
  <g id="Group_221" data-name="Group 221" transform="translate(53.06 45.785)">
    <path id="Path_154" data-name="Path 154" d="M78.706,75.807a.872.872,0,0,0-.872.872v1.4a.872.872,0,0,1,1.744,0v-1.4A.872.872,0,0,0,78.706,75.807Z" transform="translate(-77.834 -75.807)" fill="#7a6876"/>
  </g>
  <g id="Group_222" data-name="Group 222" transform="translate(0 0)">
    <path id="Path_155" data-name="Path 155" d="M69.108,69.484H68.061V49.272h.349a.349.349,0,0,0,0-.7h-.441l-1.861-5.581h.215a.349.349,0,1,0,0-.7H65.275v-3.14a.349.349,0,1,0-.7,0V40.2H61.089V39.156a.349.349,0,1,0-.7,0V42.3H59.349a.349.349,0,1,0,0,.7h.2L57.7,48.554h-.447a.349.349,0,1,0,0,.7H57.6v.7H42.248V30.066A.321.321,0,0,0,42.234,30a.214.214,0,0,0,0-.037l-1.387-4.391a.375.375,0,0,0,.008-.038V20.3a.349.349,0,0,0-.7,0v1.047H39.51l-1.322-4.186h.222a.349.349,0,1,0,0-.7h-.338V14.737h0l-.01-1.4a.349.349,0,0,0-.349-.346h0a.349.349,0,0,0-.346.352l.008,1.044h-1.4V10.531a.349.349,0,1,0-.7,0v3.857H33.883l-.008-1.049a.349.349,0,0,0-.349-.346h0a.349.349,0,0,0-.346.352l.01,1.4v1.721h-.359a.349.349,0,0,0,0,.7h.222l-1.322,4.186h-.644V20.3a.349.349,0,1,0-.7,0v5.233a.339.339,0,0,0,.008.038L29.007,29.96c0,.012,0,.024,0,.037a.322.322,0,0,0-.014.068V49.949H13.642v-.677h.368a.349.349,0,0,0,0-.7h-.456l-1.861-5.581h.215a.349.349,0,0,0,0-.7H10.861v-3.14a.349.349,0,1,0-.7,0V40.2H6.675V39.156a.349.349,0,1,0-.7,0V42.3H4.936a.349.349,0,0,0,0,.7h.2L3.275,48.574h-.44a.349.349,0,0,0,0,.7h.343V69.484H2.131a.349.349,0,0,0,0,.7H69.108a.349.349,0,0,0,0-.7ZM62.475,40.9h.7v1.375h-.7Zm2.1,1.375h-.708V40.9h.708Zm-2.8-1.375v1.375H61.09V40.9Zm3.6,2.093,1.861,5.581H65.073l-1.991-2.01a.348.348,0,0,0-.247-.1h0a.348.348,0,0,0-.247.1l-2,2.011H59.443a.352.352,0,0,0-.1-.02h-.91l1.857-5.561ZM53.41,59.717V56.752a.523.523,0,1,1,1.047,0v2.965Zm1.744-2.965a.523.523,0,1,1,1.047,0v2.965H55.154Zm.523-1.221a1.217,1.217,0,0,0-.872.369,1.219,1.219,0,0,0-2.093.852v2.965h-.7V56.752a1.219,1.219,0,0,0-2.093-.852,1.219,1.219,0,0,0-2.093.852v2.965h-.7V56.752a1.219,1.219,0,0,0-2.093-.852,1.219,1.219,0,0,0-2.093.852v2.965h-.7V54.135H57.6v5.581h-.7V56.752A1.222,1.222,0,0,0,55.677,55.531Zm-7.151,4.186V56.752a.523.523,0,1,1,1.047,0v2.965Zm1.744-2.965a.523.523,0,1,1,1.047,0v2.965H50.27Zm-6.628,2.965V56.752a.523.523,0,1,1,1.047,0v2.965Zm1.744-2.965a.523.523,0,1,1,1.047,0v2.965H45.387ZM33.177,59.019V53.787a1.047,1.047,0,0,1,2.093,0v5.233Zm2.791-5.233a1.047,1.047,0,1,1,2.093,0v5.233H35.968Zm1.047-1.744a1.738,1.738,0,0,0-1.4.708,1.739,1.739,0,0,0-3.14,1.036v5.233H29.689V45.763H32.48v2.791h-.349a.349.349,0,0,0-.349.349v1.4a.349.349,0,0,0,.349.349h6.977a.349.349,0,0,0,.349-.349V48.9a.349.349,0,0,0-.349-.349h-.349V45.763h2.791V59.019H38.759V53.787A1.746,1.746,0,0,0,37.015,52.042ZM24.805,59.717V56.752a.523.523,0,1,1,1.047,0v2.965Zm1.744-2.965a.523.523,0,1,1,1.047,0v2.965H26.549Zm.523-1.221a1.217,1.217,0,0,0-.872.369,1.219,1.219,0,0,0-2.093.852v2.965h-.7V56.752a1.219,1.219,0,0,0-2.093-.852,1.219,1.219,0,0,0-2.093.852v2.965h-.7V56.752a1.219,1.219,0,0,0-2.093-.852,1.219,1.219,0,0,0-2.093.852v2.965h-.7V54.135H28.991v5.581h-.7V56.752A1.222,1.222,0,0,0,27.073,55.531Zm-7.151,4.186V56.752a.523.523,0,1,1,1.047,0v2.965Zm1.744-2.965a.523.523,0,1,1,1.047,0v2.965H21.666Zm-6.628,2.965V56.752a.523.523,0,1,1,1.047,0v2.965Zm1.744-2.965a.523.523,0,1,1,1.047,0v2.965H16.782ZM29.689,30.415h2.442a.349.349,0,0,0,.349-.349V28.322h.994a.306.306,0,0,0,.05-.01.344.344,0,0,0,.267-.209l0,0,1.817-4.713,1.716,4.707s0,0,0,0a.361.361,0,0,0,.147.17.338.338,0,0,0,.177.055h1.105v1.741s0,0,0,0a.349.349,0,0,0,.349.349h2.443v.064a1.014,1.014,0,0,0-1.047.208,1.042,1.042,0,0,0-1.744.774v.7a.349.349,0,1,0,.7,0v-.7a.349.349,0,1,1,.7,0v.7a.349.349,0,1,0,.7,0v-.7a.349.349,0,1,1,.7,0v4.535H29.689V31.46a.349.349,0,1,1,.7,0v.7a.349.349,0,1,0,.7,0v-.7a.349.349,0,0,1,.7,0v.7a.349.349,0,1,0,.7,0v-.7a1.042,1.042,0,0,0-1.744-.774,1.014,1.014,0,0,0-1.047-.208Zm6.977,19.535v-.7h.7v.7Zm-1.4,0v-.7h.7v.7Zm-1.4,0v-.7h.7v.7Zm-1.4,0v-.7h.7v.7Zm.7-6.279a.7.7,0,0,1,1.4,0v4.884h-1.4Zm2.791,4.884h-.7v-1.4h.7Zm0-2.093h-.7v-.7h.7Zm2.093,2.791h.7v.7h-.7Zm-1.4-.7V43.67a.7.7,0,0,1,1.4,0v4.884Zm.7-6.279a1.4,1.4,0,0,0-1.4,1.4v1.4h-.7v-1.4a1.4,1.4,0,0,0-2.791,0v1.4H29.689V36.694h3.488V37.74a.349.349,0,0,0,.193.312l1.2.6v1.18a.349.349,0,0,0,.349.349h.349v1.4a.349.349,0,0,0,0,.7h.7a.349.349,0,0,0,0-.7v-1.4h.349a.349.349,0,0,0,.349-.349v-1.18l1.2-.6a.349.349,0,0,0,.193-.312V36.694h3.488v8.372H38.759v-1.4A1.4,1.4,0,0,0,37.363,42.275ZM35.27,39.484V38.438a.349.349,0,0,0-.193-.312l-1.2-.6v-.831h3.488v.831l-1.2.6a.349.349,0,0,0-.193.312v1.047ZM57.6,50.647v2.791H42.247V50.647Zm-17.442-28.6v1.342l-.424-1.342Zm-6.269-6.957h.687v1.375h-.687Zm2.083,0v1.375h-.7V15.086Zm1.406,1.375h-.708V15.086h.708Zm-6.29,6.628V22.042h.424l-.424,1.342Zm2.691-5.91h3.688l3.959,12.538H39.457V27.973a.349.349,0,0,0-.349-.349H37.9l-1.951-5.352a.349.349,0,0,0-.324-.23h0a.349.349,0,0,0-.326.223l-2.065,5.358h-1.1a.349.349,0,0,0-.349.349v1.744H29.817ZM28.991,50.647v2.791H13.642V50.647ZM8.061,40.9h.7v1.375h-.7Zm2.1,1.375H9.456V40.9h.708ZM7.363,40.9v1.375H6.676V40.9ZM5.875,42.993H10.96l1.861,5.581H10.659l-1.991-2.01a.348.348,0,0,0-.247-.1h0a.348.348,0,0,0-.247.1l-2,2.011H4.011Zm-2,8.7V51a.349.349,0,0,1,.7,0v.7a.349.349,0,0,0,.7,0V51a.349.349,0,0,1,.7,0v.7a.349.349,0,0,0,.7,0V51a1.042,1.042,0,0,0-1.744-.774,1.014,1.014,0,0,0-1.047-.208v-.742H6.317a.348.348,0,0,0,.247-.1l1.855-1.864,1.846,1.863a.348.348,0,0,0,.248.1h2.432v.742a1.014,1.014,0,0,0-1.047.208A1.042,1.042,0,0,0,10.154,51v.7a.349.349,0,0,0,.7,0V51a.349.349,0,0,1,.7,0v.7a.349.349,0,0,0,.7,0V51a.349.349,0,0,1,.7,0V69.484H11.513v-2.45a3.14,3.14,0,1,0-6.279,0v2.45H3.875ZM5.932,69.477V67.035a2.442,2.442,0,1,1,4.884,0v2.442Zm7.711-9.062H28.991v9.07h-.7V66.689a2.093,2.093,0,0,0-4.186,0v2.795h-.7V66.689a2.093,2.093,0,0,0-4.186,0v2.795h-.7V66.689a2.093,2.093,0,0,0-4.186,0v2.795h-.7v-9.07ZM27.6,69.484H24.805V66.689a1.4,1.4,0,0,1,2.791,0Zm-4.884,0H19.922V66.689a1.4,1.4,0,0,1,2.791,0Zm-4.884,0H15.038V66.689a1.4,1.4,0,0,1,2.791,0Zm11.86-9.767h11.86v9.767H39.42V64.942a3.837,3.837,0,1,0-7.674,0v4.543H29.69V59.717Zm2.754,9.76V64.942a3.14,3.14,0,1,1,6.279,0v4.535Zm9.8-9.062H57.6v9.07h-.7V66.689a2.093,2.093,0,0,0-4.186,0v2.795h-.7V66.689a2.093,2.093,0,0,0-4.186,0v2.795h-.7V66.689a2.093,2.093,0,0,0-4.186,0v2.795h-.7v-9.07ZM56.2,69.484H53.41V66.689a1.4,1.4,0,0,1,2.791,0Zm-4.884,0H48.526V66.689a1.4,1.4,0,1,1,2.791,0Zm-4.884,0H43.642V66.689a1.4,1.4,0,1,1,2.791,0Zm13.917-.008V67.035a2.442,2.442,0,1,1,4.884,0v2.442Zm5.581.008v-2.45a3.14,3.14,0,1,0-6.279,0v2.45H58.294V51a.349.349,0,0,1,.7,0v.7a.349.349,0,0,0,.7,0V51a.349.349,0,0,1,.7,0v.7a.349.349,0,0,0,.7,0V51a1.042,1.042,0,0,0-1.744-.774,1.014,1.014,0,0,0-1.047-.208v-.742h2.436a.348.348,0,0,0,.247-.1l1.855-1.864,1.846,1.863a.348.348,0,0,0,.248.1h2.437v.742a1.014,1.014,0,0,0-1.047.208A1.042,1.042,0,0,0,64.573,51v.7a.349.349,0,1,0,.7,0V51a.349.349,0,0,1,.7,0v.7a.349.349,0,0,0,.7,0V51a.349.349,0,0,1,.7,0V69.484Z" transform="translate(-1.782 -10.182)" fill="#594555"/>
    <path id="Path_156" data-name="Path 156" d="M49.224,44.066a2.442,2.442,0,1,0-2.442-2.442A2.445,2.445,0,0,0,49.224,44.066Zm0-4.186a1.744,1.744,0,1,1-1.744,1.744A1.746,1.746,0,0,1,49.224,39.88Z" transform="translate(-15.387 -18.949)" fill="#594555"/>
    <path id="Path_157" data-name="Path 157" d="M37.131,42.577c.006,0,.012,0,.018,0s.012,0,.018,0h1.01a.349.349,0,1,0,0-.7h-.7v-.349a.349.349,0,1,0-.7,0v.7A.35.35,0,0,0,37.131,42.577ZM67.347,65.785a3.12,3.12,0,0,0-6.012,0,.335.335,0,0,0-.04.131,3.108,3.108,0,0,0-.093.726v4.884a.349.349,0,0,0,.349.349h5.581a.349.349,0,0,0,.349-.349V66.64a3.125,3.125,0,0,0-.095-.732A.361.361,0,0,0,67.347,65.785Zm-5.449.855a2.384,2.384,0,0,1,.035-.341H62.6V67h-.7Zm1.395-.341h.7V67h-.7Zm.7,1.4v3.481h-.7V67.694Zm.7,0h.7v3.481h-.7Zm0-.7v-.7h.7V67Zm1.4-.7h.663a2.4,2.4,0,0,1,.035.341V67h-.7ZM64.34,64.2a2.44,2.44,0,0,1,2.2,1.4h-4.4A2.439,2.439,0,0,1,64.34,64.2Zm-2.442,3.5h.7v3.481h-.7Zm4.185,3.481V67.694h.7v3.481Zm-58.953.7h5.581a.349.349,0,0,0,.349-.349V66.639a3.125,3.125,0,0,0-.095-.732.333.333,0,0,0-.038-.123,3.12,3.12,0,0,0-6.012,0,.335.335,0,0,0-.04.131,3.108,3.108,0,0,0-.093.726v4.884A.348.348,0,0,0,7.131,71.872Zm5.233-5.233V67h-.7v-.7h.663A2.289,2.289,0,0,1,12.364,66.639Zm-1.4.357h-.7v-.7h.7Zm-.7.7h.7v3.481h-.7Zm-.7,3.481h-.7V67.694h.7Zm0-4.178h-.7v-.7h.7Zm-1.4,0h-.7v-.357a2.385,2.385,0,0,1,.035-.341h.662Zm-.7.7h.7v3.481h-.7Zm4.185,3.481V67.694h.7v3.481ZM9.922,64.2a2.44,2.44,0,0,1,2.2,1.4h-4.4A2.439,2.439,0,0,1,9.922,64.2Zm34.884,8.721h3.488a.349.349,0,0,0,.349-.349V70.825a.349.349,0,0,0-.349-.349H44.806a.349.349,0,0,0-.349.349V72.57A.349.349,0,0,0,44.806,72.919Zm3.14-.7H46.9V71.174h1.047Zm-2.791-1.047H46.2v1.047H45.154Zm4.535,1.744h3.488a.349.349,0,0,0,.349-.349V70.825a.349.349,0,0,0-.349-.349H49.689a.349.349,0,0,0-.349.349V72.57A.349.349,0,0,0,49.689,72.919Zm3.14-.7H51.782V71.174h1.047Zm-2.791-1.047h1.047v1.047H50.038Zm4.535,1.744h3.488a.349.349,0,0,0,.349-.349V70.825a.349.349,0,0,0-.349-.349H54.573a.349.349,0,0,0-.349.349V72.57A.349.349,0,0,0,54.573,72.919Zm3.14-.7H56.666V71.174h1.047Zm-2.791-1.047h1.047v1.047H54.922Zm-45.7-9.76h1.4a.349.349,0,0,0,.349-.349V58.973a1.047,1.047,0,1,0-2.093,0v2.093A.349.349,0,0,0,9.224,61.415Zm.349-2.442a.349.349,0,1,1,.7,0v1.744h-.7Zm54.07,2.442h1.4a.349.349,0,0,0,.349-.349V58.973a1.047,1.047,0,1,0-2.093,0v2.093A.349.349,0,0,0,63.643,61.415Zm.349-2.442a.349.349,0,0,1,.7,0v1.744h-.7ZM16.2,72.919h3.488a.349.349,0,0,0,.349-.349V70.825a.349.349,0,0,0-.349-.349H16.2a.349.349,0,0,0-.349.349V72.57A.349.349,0,0,0,16.2,72.919Zm3.14-.7H18.294V71.174H19.34ZM16.55,71.174H17.6v1.047H16.55Zm4.535,1.744h3.488a.349.349,0,0,0,.349-.349V70.825a.349.349,0,0,0-.349-.349H21.085a.349.349,0,0,0-.349.349V72.57A.349.349,0,0,0,21.085,72.919Zm3.14-.7H23.178V71.174h1.047Zm-2.791-1.047H22.48v1.047H21.433Zm4.535,1.744h3.488a.349.349,0,0,0,.349-.349V70.825a.349.349,0,0,0-.349-.349H25.968a.349.349,0,0,0-.349.349V72.57A.349.349,0,0,0,25.968,72.919Zm3.14-.7H28.061V71.174h1.047Zm-2.791-1.047h1.047v1.047H26.317Z" transform="translate(-3.294 -19.554)" fill="#594555"/>
  </g>
</svg>
