<svg xmlns="http://www.w3.org/2000/svg" width="38.372" height="60.002" viewBox="0 0 38.372 60.002">
  <g id="Group_227" data-name="Group 227" transform="translate(-10 -1.271)">
    <path id="Path_270" data-name="Path 270" d="M308.326,68.3c-.017,1.6-.044,3.2-.044,4.794,0,10.677.017,21.363-.035,32.04-.009,1.107.331,1.307,1.325,1.264,2.083-.087-2.977-.052-.894-.07,3.591.017-1.543.035,2.048.044.244,0,.488.009.732,0,.279-.009.462.078.471.41s-.131.436-.436.427c-.244-.009-.488,0-.732,0H274.7a1.888,1.888,0,0,1-.314,0c-.314-.07-.863.235-.828-.445.026-.575.5-.375.793-.375,2.44-.017.967-.035,2.144-.052h.443a.543.543,0,0,1,.183-.131,1.039,1.039,0,0,1,.227-.044l.235-.026c.078-.017.157-.035.244-.061a2.841,2.841,0,0,1,.383-.131,1.765,1.765,0,0,1,.3-.052c.436-.026.872-.017,1.307-.044.793-.026,1.578-.026,2.362,0,1.517.009,3.033.009,4.541,0,.375,0,.776.07,1.028-.314a27.777,27.777,0,0,0,.157-4.253c.035-.479-.131-1.09.567-1.29a.278.278,0,0,1,.253.218c.1,1.787-.3,3.556-.192,5.334-.017-.68-.017-1.351.009-2.031.07-.209.244-.235.427-.244a.621.621,0,0,1,.322.131c.183.837-.07,1.691.113,2.519a.552.552,0,0,0,.183.261,12.95,12.95,0,0,0,2.6.078c2.223.017,4.445.061,6.668-.009,2.493-.078,4.968.3,7.374.209-.9-.026-1.883.026-2.859-.026a.192.192,0,0,1-.1-.3c.68-.506,1.464-.253,2.205-.305.514-.035,1.037.017,1.551-.044.27-.017.445-.235.662-.34a.2.2,0,0,1,.2.07,6.8,6.8,0,0,1-.122-1.255V69.148a4.746,4.746,0,0,1,.052-.933.828.828,0,0,1,.183-.331.239.239,0,0,1,.331.061A.315.315,0,0,1,308.326,68.3Z" transform="translate(-263.558 -45.947)" fill="#55462e"/>
    <path id="Path_274" data-name="Path 274" d="M279.93,66.45A6.215,6.215,0,0,1,281.778,65a1.507,1.507,0,0,0-.209-1.691c-.811.4-1.36,1.2-2.266,1.421-.244.078-.488.131-.619-.166-.122-.279.052-.462.253-.619.767-.6,1.525-1.22,2.318-1.787a1.176,1.176,0,0,0,.6-1.107c-.009-.3-.288-.793.392-.854s.235.6.575.793c.924-.6,1.848-1.212,2.78-1.813.174-.113.4-.209.4-.445-.017-.7.34-.75.845-.514a.382.382,0,0,0,.462-.1c.941-.819,2.4-.863,3.051-2.162.227-.445.915.052,1.438-.244,1.116-.636,2.327-1.09,3.5-1.621.392-.174.776-.366,1.142.044.122.54-.288.741-.645.9-1.543.671-3.051,1.395-4.585,2.074a3.127,3.127,0,0,0-.07,1.743.361.361,0,0,0,.34-.009,38.686,38.686,0,0,1,7.5-3.129,15.962,15.962,0,0,1,3-.706.78.78,0,0,0,1.072-.209c.54-.026.715.322.819.767a10.415,10.415,0,0,1,.227,2.266c0,1.621.009,1.621,1.665,1.656,1.682.017,1.7.009,1.708-1.656.009-2.641-.052-5.282.087-7.914a1.481,1.481,0,0,1,.209-.994l-.017-.087a.53.53,0,0,1,.366-.017,1.771,1.771,0,0,1,.157.113.844.844,0,0,1,.157.349c.113,2.318.017,4.637.052,6.955a4.228,4.228,0,0,0,.131,1.438,7.226,7.226,0,0,1-.061,2.667.881.881,0,0,1-.6.418,36.062,36.062,0,0,0-3.626.174c-1.429,0-1.63-.2-1.656-1.6-.009-.628.009-1.246-.009-1.874-.026-1.1-.148-1.2-1.229-.985a2.888,2.888,0,0,0-.6.148,27.936,27.936,0,0,0-2.763.828c-.375.148-.758.279-1.133.436a30.317,30.317,0,0,0-2.85,1.2c-.305.139-.6.279-.9.436a12.129,12.129,0,0,0-1.6.845,2.091,2.091,0,0,0-.183.209,13.347,13.347,0,0,0-.113,1.665c-.052.331-.192.6-.575.636a.587.587,0,0,1-.706-.593c-.035-.967-.436-.863-1.107-.5-1.046.575-2.022,1.133-1.8,2.589a.632.632,0,0,1-.436.75.536.536,0,0,1-.7-.314c-.349-1.412-.985-.628-1.578-.227a2.338,2.338,0,0,0-1.508,2.057c-.026.689-.54.828-1.133.479-.427-.488-.723-.27-.941.192a2.758,2.758,0,0,0-.131,1.133c-.026,2.606,0,5.221-.026,7.827,0,.471.122.994-.375,1.334A.369.369,0,0,1,280,77.4a13.882,13.882,0,0,1-.113-3.007c-.07-2.388.113-4.785-.1-7.173A.883.883,0,0,1,279.93,66.45Z" transform="translate(-265.712 -43.502)" fill="#54462e"/>
    <path id="Path_275" data-name="Path 275" d="M307.369,59.79c-1.8-.113-1.8-.113-1.83-1.961-.009-.689-.122-1.386-.07-2.074.061-.8-.314-.854-.915-.715a.67.67,0,0,1-.628.192A32.951,32.951,0,0,0,295.663,58c-.88.4-1.761.819-2.632,1.229-.418-.706-.139-1.2.514-1.525,4.436-2.188,8.917-4.271,13.911-4.846.418-.052.863-.026.994-.567.017-.1.035-.183.052-.279-.017-.6-.5-.366-.8-.445a.367.367,0,0,1-.218-.157c.035-.174.122-.384.305-.357,1.307.209,1.5-.514,1.368-1.56a.608.608,0,0,1,.192-.567,8.438,8.438,0,0,1,.1,2.475c.026,2.4-.026,4.8.026,7.2.017.837-.183,1.229-1.081,1.1A1.989,1.989,0,0,0,307.369,59.79Z" transform="translate(-267.534 -43.519)" fill="#e3f4fc"/>
    <path id="Path_276" data-name="Path 276" d="M308.687,52.435c.2.784-.017,1.072-.9,1.124a30.96,30.96,0,0,0-10.32,2.99c-1.238.54-2.432,1.194-3.669,1.726a1.092,1.092,0,0,0-.776,1.368c-.044.052-.087.1-.131.148a4.118,4.118,0,0,1-.044-2.275,28.292,28.292,0,0,1,4.384-2.135c.4-.183.88-.27,1.011-.8a18.213,18.213,0,0,1,2.911-1.072,53.6,53.6,0,0,1,6.52-1.307A1.588,1.588,0,0,1,308.687,52.435Z" transform="translate(-267.518 -43.939)" fill="#76c3ac"/>
    <path id="Path_277" data-name="Path 277" d="M314,64.9h-.227a.473.473,0,0,1-.253.131,3.465,3.465,0,0,0-.9.1c-.793.078-1.586.026-2.371.044H307.86a5.02,5.02,0,0,1-.723-.026c-.872-.122-.976-.4-.488-1.212a12.826,12.826,0,0,1,3.417-.174c.732-.035,1.464.017,2.2-.026.253-.017.505-.087.514-.4s-.235-.392-.488-.427a6.71,6.71,0,0,0-.837-.026c-1.36,0-2.719.009-4.07-.009a1.593,1.593,0,0,1-1.185-.27c-.349-.924.253-1.116.941-1.151,1.464-.07,2.92-.017,4.384-.026a11.838,11.838,0,0,0,1.246-.035c.95-.261.349-1.037.514-1.56V47.125c-.009-.567.035-1.133-.017-1.7-.6-.645-1.264-.314-1.917-.122a.281.281,0,0,1-.27-.061c-.1-.384-.1-.689.445-.662.758.035,1.517.044,2.266.061a2.241,2.241,0,0,1,.1,1.124c.009,4.968,0,9.928.009,14.9,0,.366-.148.767.139,1.1l.575.026c.279.636-.383.706-.619,1.028.009.349.009.7.017,1.046a2.266,2.266,0,0,0,.2.209c.27.261,1.02.253.549.95A.678.678,0,0,1,314,64.9Z" transform="translate(-269.236 -42.96)" fill="#51452d"/>
    <path id="Path_278" data-name="Path 278" d="M280.337,80.1c.279-.34.148-.732.148-1.107.009-2.719.07-5.43-.026-8.141a1.971,1.971,0,0,1,1.5-2.2c.035.331.061.636.1.941a2.075,2.075,0,0,1,.1,1.717,2.883,2.883,0,0,0,.1,1.02,15.7,15.7,0,0,1,.009,3.2,2.24,2.24,0,0,0-.017,1.151,10.357,10.357,0,0,1,.017,2.545,3.122,3.122,0,0,1-.122.471c-.052.261.017.532-.052.793a.314.314,0,0,1-.279.157.45.45,0,0,1-.392-.314,36.781,36.781,0,0,1-.131-4.9,19.589,19.589,0,0,0-.1-2.144c-.122,1.639-.1,3.269-.1,4.907-.009,3.486,0,6.964,0,10.451a5.438,5.438,0,0,1-.1,1.456.837.837,0,0,1-.2.322.67.67,0,0,1-.366.087.438.438,0,0,1-.305-.2.217.217,0,0,1,.026-.148c.026-.087.052-.174.087-.261a3.117,3.117,0,0,0-.052-1.525,1.877,1.877,0,0,1,0-.314,16.112,16.112,0,0,0,.017-3.608,1.591,1.591,0,0,1,0-.662,18.99,18.99,0,0,0,.061-3.068c0-.1-.009-.218-.009-.323A.325.325,0,0,1,280.337,80.1Z" transform="translate(-265.901 -46.052)" fill="#77c8b1"/>
    <path id="Path_280" data-name="Path 280" d="M312.672,60.023c-.009-.906-.026-1.813-.035-2.719-.183-2.545-.026-5.09-.087-7.635-.009-.366.113-.758-.113-1.107l.026-.078a2.39,2.39,0,0,1-.1-1.194c-.131.34.113.8-.122,1.2-.078-.017-.148-.026-.227-.044q.013-.863.026-1.726c.009-.044.017-.1.026-.139.1-.174.235-.314.34-.488.288-.392.575-.6.88-.009.174,2.223.052,4.454.078,6.676.026,1.952.009,3.9,0,5.848a2.793,2.793,0,0,1-.157,1.334A.362.362,0,0,1,312.672,60.023Z" transform="translate(-269.996 -43.106)" fill="#f9d7b5"/>
    <path id="Path_281" data-name="Path 281" d="M308.918,52.383a43.282,43.282,0,0,0-5.474,1.142c-.375.1-.723.27-1.055-.087.017-.375.244-.523.593-.61a17.487,17.487,0,0,1,4.009-.854,4.291,4.291,0,0,0,.872-.174,1.2,1.2,0,0,0,1.037.017c.418-.427.845-.157,1.238.026.122.061.026.3-.174.366C309.65,52.435,309.249,52.191,308.918,52.383Z" transform="translate(-268.761 -43.86)" fill="#52452c"/>
    <path id="Path_282" data-name="Path 282" d="M315.158,61.758c-.427-.314-.244-.767-.244-1.159q-.013-7.975-.009-15.959c.384.3.174.706.174,1.055.017,4.977.009,9.945.017,14.922C315.1,60.991,315.132,61.375,315.158,61.758Z" transform="translate(-270.364 -42.968)" fill="#54462e"/>
    <path id="Path_283" data-name="Path 283" d="M280.041,93.49c.07.035.139.061.209.1a1.56,1.56,0,0,1,.314,1.273q.013,6.655,0,13.309a1.727,1.727,0,0,1-.3,1.281l-.209.209a2.071,2.071,0,0,1-.3-1.5c-.026-4.628.044-9.265-.044-13.893a2.346,2.346,0,0,0-.122-.349.323.323,0,0,1,.061-.34A2.029,2.029,0,0,1,280.041,93.49Z" transform="translate(-265.831 -49.24)" fill="#503a22"/>
    <path id="Path_284" data-name="Path 284" d="M279.376,109.642h-.2c0-4.968-.009-9.945.009-14.913,0-.392-.183-.845.235-1.159a2.757,2.757,0,0,1,.262,1.212q0,6.838-.009,13.684A1.541,1.541,0,0,1,279.376,109.642Z" transform="translate(-265.776 -49.25)" fill="#ecfefe"/>
    <path id="Path_285" data-name="Path 285" d="M279.41,109.64q.013-8.041.035-16.081a.706.706,0,0,1,.192,0,.779.779,0,0,0,.017.2,1.77,1.77,0,0,1,.166,1.011v13.771a1.565,1.565,0,0,1-.209,1.1A.773.773,0,0,1,279.41,109.64Z" transform="translate(-265.81 -49.248)" fill="#bdc5c4"/>
    <path id="Path_286" data-name="Path 286" d="M309.51,59.79a.763.763,0,0,1,.192-.087c1.83-.218,1.83-.218,1.822-2.022-.009-2.92-.026-5.831-.035-8.751a1.822,1.822,0,0,1,.218.009v9.544c0,1.334,0,1.334-1.368,1.325C310.068,59.808,309.789,59.8,309.51,59.79Z" transform="translate(-269.675 -43.519)" fill="#584a33"/>
    <path id="Path_287" data-name="Path 287" d="M280.263,80.154a1.907,1.907,0,0,1-.009.218.127.127,0,0,1-.209.052c-.148-.061-.322-.087-.366-.288a4.713,4.713,0,0,1-.131-1.639c-.009-2.624,0-5.247,0-7.871a2.428,2.428,0,0,1,.288-1.5c.07-.026.131-.052.2-.078,0,.218.009.436.009.662a15.009,15.009,0,0,1,.1,3c.061,2.467-.087,4.925.078,7.391Z" transform="translate(-265.827 -46.102)" fill="#554a32"/>
    <path id="Path_288" data-name="Path 288" d="M279.829,69.14c0,3.338.009,6.676,0,10.015,0,.331.113.7-.157.994l-.052.026a1.172,1.172,0,0,1-.2-.793c0-3.129-.009-6.267,0-9.4a1.218,1.218,0,0,1,.166-.7C279.664,69.236,279.751,69.192,279.829,69.14Z" transform="translate(-265.811 -46.114)" fill="#4b3921"/>
    <path id="Path_289" data-name="Path 289" d="M279.166,77.888v-.4q0-4.027.009-8.054a.133.133,0,0,1,.035-.087,1.045,1.045,0,0,1,.174-.026,9.06,9.06,0,0,1,.1,2.475c-.026,2.8.113,5.6-.078,8.394C278.9,79.465,279.288,78.655,279.166,77.888Z" transform="translate(-265.775 -46.137)" fill="#ecfefe"/>
    <path id="Path_290" data-name="Path 290" d="M279.427,80.188q-.013-5.439-.017-10.869a1.166,1.166,0,0,1,.174-.009q.013,5.439.026,10.886A1.288,1.288,0,0,1,279.427,80.188Z" transform="translate(-265.81 -46.135)" fill="#bdc5c4"/>
    <path id="Path_291" data-name="Path 291" d="M279.4,66.8c.776-.628,1.552-1.246,2.336-1.874.523.3.3.706.166,1.1a2.146,2.146,0,0,0-1.029.636A1.124,1.124,0,0,1,279.4,66.8Z" transform="translate(-265.809 -45.573)" fill="#78c7af"/>
    <path id="Path_292" data-name="Path 292" d="M280.252,86.327v.227a25.052,25.052,0,0,1-.113,3.879.217.217,0,0,1-.305.113l.026-.078a7.705,7.705,0,0,1-.183-3.9c.061-.087.113-.166.174-.253A.3.3,0,0,1,280.252,86.327Z" transform="translate(-265.824 -48.309)" fill="#574b33"/>
    <path id="Path_293" data-name="Path 293" d="M280.3,85.787c-.139,0-.27-.009-.41-.009V85.6c.27-1.107-.052-2.24.183-3.347,0-.061.009-.113.009-.174l.209-.052a1.832,1.832,0,0,1,.017.218,12.523,12.523,0,0,1,0,3.33A1.828,1.828,0,0,0,280.3,85.787Z" transform="translate(-265.872 -47.769)" fill="#b9e1dd"/>
    <path id="Path_294" data-name="Path 294" d="M279.648,86.616c.4,1.281.052,2.606.183,3.9-.078-.052-.166-.1-.244-.148a7.932,7.932,0,0,1,.009-3.783Z" transform="translate(-265.804 -48.354)" fill="#4d3b23"/>
    <path id="Path_295" data-name="Path 295" d="M279.381,90.357a6.715,6.715,0,0,1,.009-3.757A15.932,15.932,0,0,1,279.381,90.357Z" transform="translate(-265.773 -48.355)" fill="#ecfefe"/>
    <path id="Path_296" data-name="Path 296" d="M279.42,90.355V86.6c.061,0,.122-.009.183-.009,0,1.264-.009,2.519-.009,3.783C279.542,90.364,279.481,90.364,279.42,90.355Z" transform="translate(-265.812 -48.354)" fill="#bdc5c4"/>
    <path id="Path_297" data-name="Path 297" d="M280.079,82.3c-.061,1.116.244,2.249-.183,3.347C279.992,84.531,279.678,83.389,280.079,82.3Z" transform="translate(-265.869 -47.803)" fill="#ebf8fe"/>
    <path id="Path_298" data-name="Path 298" d="M312.127,44.18H314.5v.1H312.04A.931.931,0,0,0,312.127,44.18Z" transform="translate(-270 -42.909)" fill="#eafefd"/>
    <path id="Path_299" data-name="Path 299" d="M315.969,67.732c.113-.654-.941-.166-.811-.828.349-.1.706-.218,1.028.07v.767A.135.135,0,0,1,315.969,67.732Z" transform="translate(-270.399 -45.812)" fill="#8b887b"/>
    <path id="Path_300" data-name="Path 300" d="M282.236,66.028c0-.375.166-.776-.166-1.1.122-.087.323-.1.331.035.035.706.305,1.447-.183,2.109C282.227,66.726,282.236,66.377,282.236,66.028Z" transform="translate(-266.152 -45.564)" fill="#574b34"/>
    <path id="Path_301" data-name="Path 301" d="M315.149,65.338c-.07-.506.741-.488.619-1.028C316.3,65.094,315.664,65.173,315.149,65.338Z" transform="translate(-270.398 -45.494)" fill="#7f7b6e"/>
    <path id="Path_302" data-name="Path 302" d="M311.792,45.34h.2a.487.487,0,0,1,.349.288.739.739,0,0,1-.349.941l.009.087C311.556,46.281,311.809,45.793,311.792,45.34Z" transform="translate(-269.961 -43.058)" fill="#54462e"/>
    <path id="Path_303" data-name="Path 303" d="M279.88,91.163c.07-.026.148-.044.218-.07.07-.07.139-.052.192.026l.026.235a2.926,2.926,0,0,1-.026,1.665H280.1l-.07-.009c-.139-.549.113-1.133-.139-1.673A1.23,1.23,0,0,0,279.88,91.163Z" transform="translate(-265.871 -48.927)" fill="#bbe2de"/>
    <path id="Path_304" data-name="Path 304" d="M279.882,91.38c.392.532.174,1.107.139,1.673C279.585,92.531,280.039,91.929,279.882,91.38Z" transform="translate(-265.864 -48.969)" fill="#ecf8fe"/>
    <path id="Path_305" data-name="Path 305" d="M309.717,51.84c-.349.157-.7.549-1.037-.017l.837-.052A1.355,1.355,0,0,0,309.717,51.84Z" transform="translate(-269.569 -43.883)" fill="#4d3d23"/>
    <path id="Path_306" data-name="Path 306" d="M315.969,67.87h.209c0,.07.009.139.009.209a1.127,1.127,0,0,1-1.028.017,1.671,1.671,0,0,0-.009-.209C315.429,67.879,315.7,67.879,315.969,67.87Z" transform="translate(-270.399 -45.951)" fill="#c7d2d4"/>
    <path id="Path_307" data-name="Path 307" d="M316.185,66.95c-.34-.026-.68-.044-1.028-.07a.171.171,0,0,1,.009-.192C315.514,66.75,315.932,66.514,316.185,66.95Z" transform="translate(-270.397 -45.798)" fill="#eefdfd"/>
    <path id="Path_308" data-name="Path 308" d="M315.17,68.127c.34-.009.689-.017,1.029-.017-.279.375-.68.166-1.029.227Z" transform="translate(-270.402 -45.981)" fill="#e9fcfe"/>
    <path id="Path_309" data-name="Path 309" d="M291.594,101.882c-.593.1-.383.567-.392.9-.026,1.647-.026,3.286-.026,4.933a48.43,48.43,0,0,1-6.058.044,2.322,2.322,0,0,1-.061-2.353c.924-.087,1.028-.689,1.028-1.473q-.026-10.172-.009-20.343a2.671,2.671,0,0,1,.227-1.621,2.219,2.219,0,0,1,2.2-.017,2.93,2.93,0,0,1,.288,1.822c.009,6.537,0,13.083.009,19.62a2.93,2.93,0,0,0,.279,1.708,2.333,2.333,0,0,0,.288-1.569c.009-6.572,0-13.153.009-19.724a3.151,3.151,0,0,1,.261-1.83,1.853,1.853,0,0,1,2.013-.009,1.877,1.877,0,0,1,.227,1.2q.013,8.72,0,17.432A1.514,1.514,0,0,1,291.594,101.882Z" transform="translate(-266.498 -47.722)" fill="#3c9c80"/>
    <path id="Path_310" data-name="Path 310" d="M313.426,108.221c-1.368.017-2.746.035-4.114.061a1.406,1.406,0,0,0-.148-.1.886.886,0,0,1-.139-.322,8.475,8.475,0,0,1-.061-1.246c0-1.055,0-2.1-.009-3.155-.035-.375,0-.758,0-1.133.009-1.081,0-2.162,0-3.251-.035-.445.017-.889,0-1.334.009-1.081,0-2.17,0-3.251,0-.375-.035-.758,0-1.133.009-1.055,0-2.1.009-3.155a1.865,1.865,0,0,0-.523-1.578,13.732,13.732,0,0,1,.044-4.1c.07-.122.166-.261.3-.279a11.462,11.462,0,0,1,4.715.1,2.077,2.077,0,0,1,.235,1.307c.009,6.912,0,13.824.009,20.735A6.44,6.44,0,0,1,313.426,108.221Z" transform="translate(-269.521 -48.029)" fill="#bd8671"/>
    <path id="Path_311" data-name="Path 311" d="M284.76,105.4c0,.767,0,1.534-.009,2.31.07.052.1.1.07.148s-.044.07-.07.07c-.828,0-1.665.009-2.493.009a1.972,1.972,0,0,1-.218-.331,2.924,2.924,0,0,1-.122-1.028c-.009-4.009,0-8.01-.009-12.019,0-.889.078-1.63,1.177-1.9.715-.174.453-.924.479-1.438.026-.479.035-1.028-.619-1.151-.828-.157-1.011-.715-1-1.456.009-1.778,0-3.556.009-5.325a1.455,1.455,0,0,1,.288-1.081v-.166a2.51,2.51,0,0,1,2.589-.061,1.929,1.929,0,0,1,.218,1.2q.013,10.472,0,20.945A1.671,1.671,0,0,1,284.76,105.4Z" transform="translate(-266.131 -47.72)" fill="#5cae98"/>
    <path id="Path_312" data-name="Path 312" d="M293.141,110.261a6.671,6.671,0,0,1,.148-2.658,1.28,1.28,0,0,1,.244-.366c.27-.689-.044-1.438.253-2.118a.591.591,0,0,1,.244-.218c.61-.279,1.325.061,1.9-.34.41-.715.122-1.49.2-2.231.07-.645-.148-1.316.244-1.918a5.024,5.024,0,0,1,2.589-.183c.331.122.54.3.279.662a.935.935,0,0,1-.758.174c-.227-.017-.017.157-.07.227-.044.941-.052,1.883-.026,2.815.017.087.026.183.044.27.183.305.6.209.811.462.261.41.209.715-.3.854-.2.052-.4.1-.488.331a9.055,9.055,0,0,0-.078,1.456,1.172,1.172,0,0,0,.967,1.464c.375.427.157.88.052,1.334a.655.655,0,0,1-.314.192c-1.691.061-3.391.017-5.081.026C293.7,110.5,293.376,110.54,293.141,110.261Z" transform="translate(-267.565 -50.095)" fill="#fad7b5"/>
    <path id="Path_313" data-name="Path 313" d="M292.583,101.927V82.064c.139-.078.235-.044.305.1.009.131.009.261.009.392v18.748c.148-.122,0-.41,0-.636q.013-8.76.009-17.519a2.078,2.078,0,0,1,.078-.924c.166-.061.331-.1.462.078a.783.783,0,0,1,.078.506q0,9.191,0,18.391a.287.287,0,0,1-.1.174h.113c.017-6.415-.026-12.83.026-19.245a.224.224,0,0,1,.349-.052,2.006,2.006,0,0,1,.27,1.3c0,6.084.026,12.176-.009,18.26-.009.131-.026.261-.035.4a1.212,1.212,0,0,1-.279.732h.017a.561.561,0,0,0-.192.235,7.145,7.145,0,0,0-.035,1.429.717.717,0,0,1-.61.8c-.148,0-.288,0-.436.009a10.124,10.124,0,0,1-.017-3.12C292.583,102.049,292.583,101.988,292.583,101.927Z" transform="translate(-267.488 -47.767)" fill="#196149"/>
    <path id="Path_314" data-name="Path 314" d="M313.935,67.857c.209-.331.418-.052.628.009a1.644,1.644,0,0,1,.1.915v35.8a1.644,1.644,0,0,1-.1.915h-.209a2.241,2.241,0,0,1-.1-1.124c-.026-7.365.026-14.73-.035-22.1a5.593,5.593,0,0,1-.314-.959C313.83,76.834,313.778,72.345,313.935,67.857Z" transform="translate(-270.23 -45.928)" fill="#55462e"/>
    <path id="Path_315" data-name="Path 315" d="M314.67,105.526V67.89h.2v38.534C314.557,106.1,314.731,105.787,314.67,105.526Z" transform="translate(-270.338 -45.953)" fill="#4e3e23"/>
    <path id="Path_316" data-name="Path 316" d="M314.386,84.193v23.42c-.009.235.035.479-.218.628q0-11.884-.009-23.76a.207.207,0,0,1-.07-.174c.009-.061.017-.1.035-.1A.182.182,0,0,1,314.386,84.193Z" transform="translate(-270.263 -48.04)" fill="#51432c"/>
    <path id="Path_317" data-name="Path 317" d="M307.282,111.966h3.948c0,.061.009.113.009.174-.235.017-.479.052-.715.052-5.456,0-10.912.009-16.377-.009-.349,0-.784.183-1.037-.261.14-.009-.035-.017.1-.017,4.262.078,8.515-.34,12.778-.218A1.779,1.779,0,0,1,307.282,111.966Z" transform="translate(-267.569 -51.574)" fill="#4d4127"/>
    <path id="Path_318" data-name="Path 318" d="M282.058,109.228c0,.078.009.148.009.227-.5,0-.994-.009-1.49-.009a.834.834,0,0,1-.087-.3q-.013-7.7.009-15.393a.852.852,0,0,1,.052-.2c.087-.009.174-.009.253-.017.218-.026.27.122.3.3.009.288-.017.575-.017.872.009,4.253,0,8.5.009,12.752a2.176,2.176,0,0,0,.157,1.22C281.474,108.941,281.831,109,282.058,109.228Z" transform="translate(-265.948 -49.246)" fill="#79d3ba"/>
    <path id="Path_319" data-name="Path 319" d="M280.542,93.57q.013,7.949.026,15.889h-.1l-.1-.009q-.013-7.923-.026-15.863A1.3,1.3,0,0,1,280.542,93.57Z" transform="translate(-265.931 -49.25)" fill="#647d65"/>
    <path id="Path_320" data-name="Path 320" d="M279.64,109.679q.026-7.949.052-15.889h.166a1.167,1.167,0,0,1,.1.706v14.477a1.162,1.162,0,0,1-.1.706Z" transform="translate(-265.84 -49.279)" fill="#4b3921"/>
    <path id="Path_321" data-name="Path 321" d="M279.89,109.679V93.79c.366.34.2.784.2,1.185q.013,7.348.009,14.7Z" transform="translate(-265.872 -49.279)" fill="#554931"/>
    <path id="Path_322" data-name="Path 322" d="M307.284,111.928l-14.164-.052a.455.455,0,0,1,.035-.183q3.1-.013,6.2-.017a25.219,25.219,0,0,1,7.932.017.823.823,0,0,0,.087.087A.441.441,0,0,0,307.284,111.928Z" transform="translate(-267.571 -51.536)" fill="#bd8671"/>
    <path id="Path_323" data-name="Path 323" d="M292.559,105.08c.009,1.037.009,2.074.017,3.12v2.676C292.489,108.932,292.114,107,292.559,105.08Z" transform="translate(-267.471 -50.728)" fill="#554029"/>
    <path id="Path_324" data-name="Path 324" d="M285.17,111.758v-.218h6.058c-.166.322-.479.235-.741.235C288.717,111.775,286.939,111.767,285.17,111.758Z" transform="translate(-266.55 -51.558)" fill="#3ca185"/>
    <path id="Path_325" data-name="Path 325" d="M293.11,108.274c.445-.3.375-.758.41-1.212.026-.427-.192-.906.218-1.273a8.083,8.083,0,0,1,.009,2.51l-.445.026C293.232,108.309,293.171,108.292,293.11,108.274Z" transform="translate(-267.569 -50.819)" fill="#105b43"/>
    <path id="Path_326" data-name="Path 326" d="M285.094,65.9c.157-.131.305-.279.471-.392,1-.68,1.02-.671,1.22.479.052.314.166.558.514.514.4-.044.279-.4.322-.654.078-.567-.279-1.29.244-1.682a26.494,26.494,0,0,1,2.754-1.656c.279-.157.357.087.357.314.009.314.009.628.009.941.009.261.052.5.375.514.4.026.41-.253.453-.549.087-.636-.227-1.307.183-1.918a11.933,11.933,0,0,1,.131,2.092c.044.139.235-.052.113.009-.052.026-.078.009-.087-.061a6.4,6.4,0,0,1,.044-2.118,5.606,5.606,0,0,1,1.639-.837,1.288,1.288,0,0,1,.366,1.133q.026,3.622,0,7.243a1.781,1.781,0,0,1-.262,1.09,1.754,1.754,0,0,1-1.177.305q-3.308.026-6.615,0a1.781,1.781,0,0,1-1.09-.261A7.177,7.177,0,0,1,285.094,65.9Z" transform="translate(-266.491 -45.056)" fill="#3d9c80"/>
    <path id="Path_327" data-name="Path 327" d="M312.819,63.347c-2.013,0-4.027.017-6.04-.009-.636-.009-.915.192-.828.828a29.228,29.228,0,0,0,4.454.131c.488.026.976.017,1.464,0,.453-.017.75.1.75.619s-.288.636-.741.636c-1.673-.009-3.347,0-5.02,0-.166,0-.349-.044-.479.113-.279.5-.3.863.436.837.27-.009.549.017.819.026a.908.908,0,0,1,.192.3,12.82,12.82,0,0,1,.044,2.65,1.045,1.045,0,0,1-.131.322.718.718,0,0,1-.776.2.485.485,0,0,1-.244-.192c0-.052-.009-.1-.009-.157a1.552,1.552,0,0,1,.113-.279,5.138,5.138,0,0,0,.009-2.275.692.692,0,0,0-.227-.113,2.963,2.963,0,0,0-.392-.026,9.242,9.242,0,0,0-1.1.026.669.669,0,0,0-.244.1,6.859,6.859,0,0,0-.07,2.423c0,.052-.009.1-.009.166a.39.39,0,0,1-.192.261.562.562,0,0,1-.645-.139.968.968,0,0,1-.14-.34c-.087-.95-.017-1.891-.052-2.841.009-3.051-.148-6.093.078-9.143a.543.543,0,0,1,.166-.122c2.135-.593,2.135-.593,2.135,1.6v.628c.009,2.284.235,2.475,2.571,2.048a4.414,4.414,0,0,1,2.449.044,6.762,6.762,0,0,1,1.456-.148.685.685,0,0,1,.305.209A1.777,1.777,0,0,1,312.819,63.347Z" transform="translate(-268.931 -44.557)" fill="#1a5f47"/>
    <path id="Path_328" data-name="Path 328" d="M303.411,57.54a.751.751,0,0,1,.218.662c-.017,2.876-.026,5.744-.044,8.62a.732.732,0,0,1-.575.209c-1.116-.157-1.238.479-1.177,1.368a1.97,1.97,0,0,1-.305,1.6.75.75,0,0,1-.915-.113,1.822,1.822,0,0,1-.235-.994q-.026-4.667,0-9.335a1.667,1.667,0,0,1,.34-1.168A9.78,9.78,0,0,1,303.411,57.54Z" transform="translate(-268.501 -44.624)" fill="#1c8163"/>
    <path id="Path_329" data-name="Path 329" d="M296.189,60.184a14.91,14.91,0,0,1,2.885-1.194,1.475,1.475,0,0,1,.357,1.255c.017,2.876.009,5.761,0,8.638a2,2,0,0,1-.253,1.2,3.176,3.176,0,0,1-2.833.052,1.446,1.446,0,0,1-.279-.976c-.026-2.763-.017-5.517-.009-8.28A6.524,6.524,0,0,1,296.189,60.184Z" transform="translate(-267.947 -44.81)" fill="#1c8163"/>
    <path id="Path_330" data-name="Path 330" d="M299.564,69.979q-.026-5.53-.044-11.052A2.473,2.473,0,0,1,300.6,58.5q0,5.739-.009,11.488A.636.636,0,0,1,299.564,69.979Z" transform="translate(-268.393 -44.748)" fill="#77c8b1"/>
    <path id="Path_331" data-name="Path 331" d="M296.079,60.36c.27.244.2.575.2.88,0,2.99-.009,5.988-.017,8.978a.632.632,0,0,1-1.029-.009q-.026-4.694-.044-9.387C295.5,60.674,295.783,60.517,296.079,60.36Z" transform="translate(-267.836 -44.986)" fill="#71c3ad"/>
    <path id="Path_332" data-name="Path 332" d="M284.752,66.64v4.375a2.578,2.578,0,0,1-2.7.061c.323-.549.139-1.159.235-1.743.375.035.88.139.776-.471C282.852,67.5,283.819,67.1,284.752,66.64Z" transform="translate(-266.149 -45.793)" fill="#5dae98"/>
    <path id="Path_333" data-name="Path 333" d="M288.051,60.671c.915-.532,1.839-1.055,2.754-1.6.479-.288.689-.183.628.375-.061.532.323,1.072-.035,1.6-.174-.087-.227-.34-.462-.34-.732.288-1.351.793-2.057,1.107-.305.139-.645.488-.933-.035C287.981,61.412,287.816,61.02,288.051,60.671Z" transform="translate(-266.903 -44.8)" fill="#77c8b0"/>
    <path id="Path_334" data-name="Path 334" d="M283.268,63.749l3.1-2.109c.654.227.166.767.305,1.124a8.367,8.367,0,0,1-3.312,2.275c-.1.052-.174-.061-.218-.157C283.181,64.508,283,64.1,283.268,63.749Z" transform="translate(-266.286 -45.151)" fill="#77c7b0"/>
    <path id="Path_335" data-name="Path 335" d="M283.261,65.176l3.295-2.066a.907.907,0,0,1-.009,1.02A20.27,20.27,0,0,0,283.653,66C283.069,66.012,283.034,65.951,283.261,65.176Z" transform="translate(-266.288 -45.339)" fill="#e1f1f8"/>
    <path id="Path_336" data-name="Path 336" d="M313.726,60.223c-.488,0-.976.009-1.456.009.087-.192.261-.183.436-.183l.4-.026a.805.805,0,0,0,.183-.34c.07-4.271,0-8.533.044-12.8,0-.357-.314-.959.453-1.028a1.866,1.866,0,0,1,.244,1.307q.013,5.844,0,11.688C314.022,59.308,314.126,59.822,313.726,60.223Z" transform="translate(-270.029 -43.123)" fill="#c28773"/>
    <path id="Path_337" data-name="Path 337" d="M288.081,62.155c1.029-.558,2.057-1.116,3.086-1.665.235.27-.035.567.052.845-1,.61-2,1.212-3,1.822C287.7,62.887,287.9,62.521,288.081,62.155Z" transform="translate(-266.899 -45.003)" fill="#e0f1f6"/>
    <path id="Path_338" data-name="Path 338" d="M280.3,80.2c-.331-.322-.166-.723-.166-1.09-.017-3.1-.009-6.206-.009-9.3.253.209.2.5.2.767Q280.313,75.388,280.3,80.2Z" transform="translate(-265.898 -46.2)" fill="#503a22"/>
    <path id="Path_339" data-name="Path 339" d="M312.5,48.97c.209.07.2.253.2.427v8.324c-.314-.322-.183-.723-.183-1.081C312.5,54.078,312.5,51.524,312.5,48.97Z" transform="translate(-270.058 -43.524)" fill="#584a33"/>
    <path id="Path_340" data-name="Path 340" d="M283.238,65.3c.139.27-.392.854.383.828-.244.3-.567.3-.575-.087-.017-.654-.288-1.368.2-1.979C283.247,64.47,283.238,64.879,283.238,65.3Z" transform="translate(-266.265 -45.461)" fill="#574b34"/>
    <path id="Path_341" data-name="Path 341" d="M287.014,63.925c0-.34.009-.68.009-1.02-.017-.436.244-.906-.183-1.281.1-.1.314-.174.323-.035A3.324,3.324,0,0,1,287.014,63.925Z" transform="translate(-266.764 -45.134)" fill="#564a32"/>
    <path id="Path_342" data-name="Path 342" d="M288.066,62.213c.009.34-.218.715.148.994-.131.157-.349.218-.357-.009a3.775,3.775,0,0,1,.174-2.257C288.04,61.358,288.049,61.785,288.066,62.213Z" transform="translate(-266.883 -45.061)" fill="#564a32"/>
    <path id="Path_343" data-name="Path 343" d="M292.813,58.3c.017.758.035,1.517.044,2.275-.514-.715-.192-1.508-.218-2.266,0-.017.052-.044.078-.044S292.787,58.287,292.813,58.3Z" transform="translate(-267.499 -44.718)" fill="#513e26"/>
    <path id="Path_344" data-name="Path 344" d="M293.28,61.86v2.318h-.2v-2.24C293.15,61.912,293.219,61.886,293.28,61.86Z" transform="translate(-267.566 -45.179)" fill="#3ba185"/>
    <path id="Path_345" data-name="Path 345" d="M312.27,48.71V47.49h.166c.017.41.035.811.052,1.22Z" transform="translate(-270.029 -43.334)" fill="#f7cfac"/>
    <path id="Path_346" data-name="Path 346" d="M305.56,56.126c.183-.139.357-.314.628-.192.07.1.148.209.218.314A.743.743,0,0,1,305.56,56.126Z" transform="translate(-269.168 -44.413)" fill="#4c3c22"/>
    <path id="Path_347" data-name="Path 347" d="M291.69,61.325c-.323-.261.044-.567-.052-.845.349.174.1.514.218.758A.18.18,0,0,1,291.69,61.325Z" transform="translate(-267.37 -45.002)" fill="#eefdfe"/>
    <path id="Path_348" data-name="Path 348" d="M309.88,52.472c.314-.305.7-.148,1.055-.166a.961.961,0,0,1-.044.148C310.551,52.454,310.22,52.463,309.88,52.472Z" transform="translate(-269.722 -43.949)" fill="#594d36"/>
    <path id="Path_349" data-name="Path 349" d="M311.4,52.74a.589.589,0,0,1,.035.689A.6.6,0,0,1,311.4,52.74Z" transform="translate(-269.905 -44.008)" fill="#ecf7fe"/>
    <path id="Path_350" data-name="Path 350" d="M313.551,67.88c.331.314.2.715.2,1.081q.013,6.249,0,12.508a.223.223,0,0,1-.305-.07c-.349-.654-.044-1.4-.323-2.074a10.233,10.233,0,0,1-.017-2.632,2.975,2.975,0,0,1,.122-.479,1.989,1.989,0,0,0-.078-1.081,1.324,1.324,0,0,1-.061-.323,9.953,9.953,0,0,1,.035-2.162,2.521,2.521,0,0,0,.061-1.543,1.911,1.911,0,0,1-.07-.305c-.1-.723.026-1.456-.113-2.17-.418-.479-.976-.2-1.464-.279a1.718,1.718,0,0,1-.305-.035c-.2-.07-.427-.122-.384-.418C311.747,67.9,312.645,67.889,313.551,67.88Z" transform="translate(-269.846 -45.952)" fill="#296148"/>
    <path id="Path_351" data-name="Path 351" d="M306.7,66.71c.078-.462.427-.2.628-.2,1.534-.026,3.068-.009,4.593-.017.366,0,.819.087.828-.506s-.427-.532-.8-.532H307.04c-.27,0-.567.061-.75-.235,2,.009,4.018.026,6.023.009.593-.009.889.122.88.8s-.375.7-.872.7C310.439,66.71,308.574,66.71,306.7,66.71Z" transform="translate(-269.262 -45.61)" fill="#166148"/>
    <path id="Path_352" data-name="Path 352" d="M314.607,47.256v13.17a.2.2,0,0,1-.314-.122,6.694,6.694,0,0,1-.1-1.865c-.009-3.269-.009-6.546,0-9.814a3.993,3.993,0,0,1,.078-1.246A.228.228,0,0,1,314.607,47.256Z" transform="translate(-270.275 -43.3)" fill="#55472f"/>
    <path id="Path_353" data-name="Path 353" d="M310.709,67.91c.139.061.279.131.41.192a1.737,1.737,0,0,1,.288,1.255,7.958,7.958,0,0,1-.035,1.116c-.052.4-.2.723-.689.7a.383.383,0,0,1-.27-.174,6.613,6.613,0,0,1,.026-1.551,1.34,1.34,0,0,0-.34-1.055,1.2,1.2,0,0,1-.227-.192.223.223,0,0,1-.009-.27C310.143,67.919,310.43,67.91,310.709,67.91Z" transform="translate(-269.715 -45.956)" fill="#1a5f47"/>
    <path id="Path_354" data-name="Path 354" d="M314.39,46.963h-.209c-.471-.375.087-1.072-.462-1.421-.418-.087-.924.131-1.229-.357a2.559,2.559,0,0,1,1.9-.1Z" transform="translate(-270.057 -43.008)" fill="#54462e"/>
    <path id="Path_355" data-name="Path 355" d="M314.4,62.358h.209c-.113.567.323,1.273-.444,1.665,0-.558.009-1.116.009-1.665.035-.026.078-.052.113-.078A1.274,1.274,0,0,1,314.4,62.358Z" transform="translate(-270.272 -45.233)" fill="#54462e"/>
    <path id="Path_356" data-name="Path 356" d="M314.331,45.06c-.628.1-1.29-.209-1.883.209a.489.489,0,0,1-.035.1.247.247,0,0,1-.174.1l-.209-.209C312.736,44.476,313.538,44.85,314.331,45.06Z" transform="translate(-269.999 -42.987)" fill="#55472f"/>
    <path id="Path_357" data-name="Path 357" d="M309.656,67.92c0,.044.009.1.009.139a1.081,1.081,0,0,1-1.438.087c-.009-.078-.017-.148-.026-.227Z" transform="translate(-269.506 -45.957)" fill="#2e765d"/>
    <path id="Path_358" data-name="Path 358" d="M314.855,65.529V66.5h-.1V65.52A.425.425,0,0,0,314.855,65.529Z" transform="translate(-270.348 -45.649)" fill="#4e3e24"/>
    <path id="Path_359" data-name="Path 359" d="M280.85,92.938c.009-.235-.035-.479.218-.636a3.947,3.947,0,0,0,.288-1.926c.009-2.214-.009-4.428.009-6.65,0-.506-.1-1.055.357-1.456h.375c0,2.188.026,4.375,0,6.563-.009.7.157,1.063.924.959.6-.078.8.227.758.793a11.559,11.559,0,0,0,0,1.456c.061.741-.079,1.22-.994,1.1-.784-.1-.68.488-.68.967v13.658h-1.046a2.241,2.241,0,0,1-.1-1.124c-.009-4.2,0-8.4-.009-12.595A2.11,2.11,0,0,0,280.85,92.938Z" transform="translate(-265.995 -47.8)" fill="#77c8b1"/>
    <path id="Path_360" data-name="Path 360" d="M282.054,71.693c.9-.017,1.8-.044,2.7-.061h8.795c.34,0,.689,0,1.028.009h2.737c.349,0,.689.009,1.037.009l.933-.052a.847.847,0,0,1,.314-.139,2.391,2.391,0,0,1,1.665.192c.218,0,.436.009.645.009a2.07,2.07,0,0,1,2.083,0c.279,0,.549,0,.828.009a1.155,1.155,0,0,1,.88-.261,13.218,13.218,0,0,0,2.876.017c.436-.061.968.017,1,.636s-.453.7-.924.741c-.279.026-.558.017-.837.017h-.959c-.662-.009-1.334-.009-2,0h-.549c-.863-.009-1.717,0-2.571,0H301c-.872-.017-1.743.017-2.615.009q-.562.026-1.124,0c-.872.017-1.734.026-2.606,0-.366,0-.732.026-1.1,0-.366.009-.723.009-1.09,0-.427.017-.845.009-1.273,0q-.915.026-1.83,0c-.436.017-.863.017-1.29,0-.68.017-1.368.017-2.048,0-.445.017-.88.017-1.325,0-.828-.044-1.691.227-2.458-.3C281.906,72.312,282.037,71.99,282.054,71.693Z" transform="translate(-266.145 -46.401)" fill="#53462e"/>
    <path id="Path_361" data-name="Path 361" d="M282.254,77.576a.526.526,0,0,1,0-.889,4.8,4.8,0,0,1,2.449-.27c.436-.009.88-.026,1.316,0,.68-.017,1.368-.017,2.048,0,.427-.009.863-.017,1.29,0q.915-.026,1.83,0c.427-.009.845-.017,1.273,0,.366-.009.723-.017,1.09,0,.366-.026.732-.009,1.1,0q1.307-.039,2.615,0c.383-.017.758-.017,1.142,0,.906-.017,1.813.026,2.728,0,2.432.009,4.864-.017,7.3.009.593.009,1.255,0,1.151.915-.253.584-.784.445-1.238.479-.1,0-.218,0-.322-.009s-.2-.009-.305-.017-.192-.009-.288-.017-.192,0-.288-.009h-.288a1.074,1.074,0,0,1-.288.026c-.1.009-.192.009-.3.009-.4,0-.8.009-1.2.017-.1.009-.209.009-.314.009h-2.536c-.1,0-.209,0-.314-.009-.209-.009-.41-.009-.619-.009-.1.009-.209.009-.314.009s-.218.009-.322.009c-.5,0-.994.009-1.49.009-.3.026-.584,0-.88.009-.436.035-.863.009-1.3.009-2.345.052-4.689.017-7.034.026-.192-.017-.383-.026-.567-.026-.436.017-.872.009-1.307,0q-1.02.026-2.04,0c-.445.026-.88.017-1.325,0C283.884,77.811,283.021,78.072,282.254,77.576Z" transform="translate(-266.144 -47.045)" fill="#52452d"/>
    <path id="Path_362" data-name="Path 362" d="M281.728,81.082q-.013,4.484-.035,8.96c0,.462.148,1.046-.619,1.072l-.209-.209q0-8.511,0-17.014c0-.366-.209-.976.453-.941.549.026.366.584.375.933C281.711,76.279,281.711,78.685,281.728,81.082Z" transform="translate(-265.993 -46.603)" fill="#eef6f3"/>
    <path id="Path_363" data-name="Path 363" d="M291.452,81.918h-2.083a.975.975,0,0,1-1.255,0h-2.092a.976.976,0,0,1-1.264-.009c-.837.009-1.674.009-2.51.017-.279-.166-.227-.418-.174-.671a1.782,1.782,0,0,1,.985-.288c6.206.017,12.412-.061,18.609.035a4.491,4.491,0,0,1,1.246.384c.1.715-.488.532-.8.532-.95-.009-1.909.07-2.859-.026a4.948,4.948,0,0,0-.95.183,2.3,2.3,0,0,1-.976,0,3.466,3.466,0,0,0-1.909.009,3.921,3.921,0,0,1-.845.087c-.349.017-.7.009-1.046,0a1.458,1.458,0,0,1-1.02-.261H292.3A.961.961,0,0,1,291.452,81.918Z" transform="translate(-266.147 -47.631)" fill="#53452d"/>
    <path id="Path_364" data-name="Path 364" d="M299.2,81.659c.863-.009,1.726,0,2.589-.017.4-.009.828.166,1.168-.192.209-.183.462-.052.628-.1-.514-.1-1.107.122-1.665-.113H282.08c.061-.078.122-.148.183-.227.767-.5,1.621-.244,2.449-.279.436-.009.88-.026,1.325,0,.68-.017,1.368-.017,2.048,0,.427-.009.863-.017,1.29,0q.915-.026,1.83,0c.427-.009.845-.017,1.273,0,.366-.009.723-.017,1.089,0,.366-.026.732-.009,1.089,0,.854-.026,1.717-.026,2.571,0,.357,0,.715-.017,1.072.009.288,0,.575-.017.863,0,.5,0,.985.009,1.482.009.1,0,.209,0,.322.009s.209,0,.314.009c.209.009.41.009.619.009.1-.009.209-.009.314-.009s.209-.009.314-.009c.479,0,.959-.009,1.438,0h1.1c.4.009.8.017,1.194.017.1,0,.192,0,.288.009s.183.009.279.009.183.009.279.009h.279c.1-.009.192-.009.288-.009s.192-.009.3-.017.2-.009.305-.017c.427.017.872-.078,1.229.261a.248.248,0,0,1-.087.288,7.218,7.218,0,0,1-1.3.009c.383.235,1.046-.3,1.429.305-.2.628-.758.54-1.212.549-2.327.017-4.663.052-6.99-.009a12.746,12.746,0,0,1-1.63-.07.885.885,0,0,1-.322-.139A.481.481,0,0,1,299.2,81.659Z" transform="translate(-266.153 -47.598)" fill="#53462e"/>
    <path id="Path_365" data-name="Path 365" d="M284.79,76.219c-.837-.009-1.674-.009-2.51-.017,0-1.177.009-2.345.009-3.521h2.51A4.251,4.251,0,0,1,284.79,76.219Z" transform="translate(-266.179 -46.568)" fill="#5dae99"/>
    <path id="Path_366" data-name="Path 366" d="M284.8,80.642c-.837,0-1.673-.009-2.51-.009V77.749c.837,0,1.673-.009,2.51-.009A3.036,3.036,0,0,1,284.8,80.642Z" transform="translate(-266.18 -47.218)" fill="#5fb09a"/>
    <path id="Path_367" data-name="Path 367" d="M280.317,90.548h-.1l-.1-.026c.1-1.307-.244-2.632.2-3.922A10.553,10.553,0,0,1,280.317,90.548Z" transform="translate(-265.898 -48.355)" fill="#503b23"/>
    <path id="Path_368" data-name="Path 368" d="M280.38,85.62V82.29A5.775,5.775,0,0,1,280.38,85.62Z" transform="translate(-265.935 -47.802)" fill="#6fc3aa"/>
    <path id="Path_369" data-name="Path 369" d="M280.36,93.065c.009-.558.017-1.107.026-1.665A1.553,1.553,0,0,1,280.36,93.065Z" transform="translate(-265.932 -48.972)" fill="#6ec3aa"/>
    <path id="Path_370" data-name="Path 370" d="M313.413,60.022A.652.652,0,0,1,313.23,60V45.8a.2.2,0,0,1,.3.157c.026,4.454.009,8.908.009,13.362C313.535,59.568,313.6,59.821,313.413,60.022Z" transform="translate(-270.152 -43.114)" fill="#f6d2b1"/>
    <path id="Path_371" data-name="Path 371" d="M313.329,45.673l-.209.078c-.671-.183-.314.54-.61.689a1.2,1.2,0,0,1-.017-1.09h1.464a.175.175,0,0,1,.061.157c-.009.061-.017.087-.026.087a.333.333,0,0,1-.253.07A2.13,2.13,0,0,1,313.329,45.673Z" transform="translate(-270.042 -43.059)" fill="#55472f"/>
    <path id="Path_372" data-name="Path 372" d="M312.448,45.34c.009.366.017.723.017,1.09-.1.209-.253.218-.436.139a1.608,1.608,0,0,0,.209-1.02Z" transform="translate(-269.999 -43.058)" fill="#4c3e26"/>
    <path id="Path_373" data-name="Path 373" d="M289.008,82.06h1.255q0,11.283-.009,22.575c0,.514.122,1.142-.75.985-.662-.122-.488-.671-.488-1.089q-.013-5.909-.009-11.81C289.017,89.172,289.008,85.616,289.008,82.06Z" transform="translate(-267.041 -47.773)" fill="#1a6149"/>
    <path id="Path_374" data-name="Path 374" d="M285.16,82.06h1.264q0,11.218-.017,22.426c0,1.2-.131,1.3-1.246.959Q285.173,93.757,285.16,82.06Z" transform="translate(-266.549 -47.773)" fill="#1a6047"/>
    <path id="Path_375" data-name="Path 375" d="M298.85,103.285a1.887,1.887,0,0,1,.009-.227,1.291,1.291,0,0,1,.767-.279c1.212-.139,1.22-.148,1.22-1.377,0-.418.017-.837-.017-1.246-.061-.453-.392-.357-.689-.331a.593.593,0,0,1-.27-.07.169.169,0,0,1,.026-.244c.052-.157.2-.322-.026-.471a.494.494,0,0,1-.078-.54,1.565,1.565,0,0,1,.41-.384,1.9,1.9,0,0,0,.183-.192,6.385,6.385,0,0,0-.026-2.44c-.07-.061-.139-.131-.218-.192a1.291,1.291,0,0,1-.209-.227,1.516,1.516,0,0,1-.157-.288,2.053,2.053,0,0,1,.113-1.83,1.44,1.44,0,0,1,.863-.2,11.937,11.937,0,0,1,1.935.07c.654.227.636-.235.689-.662.1-.793-.253-1.656.34-2.388a7.836,7.836,0,0,1,2.467-.157,5.919,5.919,0,0,0,1.238-.139c1.02.017.523.784.628,1.264-.087.1-.131.227-.262.279h-.131c-.044-.017-.078-.035-.122-.052l-.235-.131a3.657,3.657,0,0,0-1.682.044.972.972,0,0,0-.166.209,6.95,6.95,0,0,0,.1,2.615.75.75,0,0,0,.261.078c.558.061,1.107,0,1.665.044a1.352,1.352,0,0,1,.314.07,1.4,1.4,0,0,1,.261.183v1.046a.491.491,0,0,1-.261.1,17.2,17.2,0,0,0-2.118-.061,1.85,1.85,0,0,1-.078.235,1.98,1.98,0,0,1-.122.235,9.031,9.031,0,0,0,.009,2.519,1.521,1.521,0,0,1,.122.235.756.756,0,0,1,.044.244c.61.035,1.211-.009,1.813-.009l.174-.174a.439.439,0,0,1,.227-.1.282.282,0,0,1,.209.113V99.72a1.472,1.472,0,0,1-.27.183,1.2,1.2,0,0,1-.305.07,4.716,4.716,0,0,0-1.639.174c-.444.837-.139,1.726-.174,2.58.479.54,1.081.218,1.639.218a2137.966,2137.966,0,0,1,.227-.122.536.536,0,0,1,.261-.044c.131.052.174.192.261.288v1.055c-.087.113-.139.27-.314.305-.052,0-.1.009-.148.009a.861.861,0,0,1-.148-.017,5.114,5.114,0,0,0-1.856.061,4.515,4.515,0,0,0-.035,2.589.714.714,0,0,0,.261.087c.558.07,1.116.009,1.665.044a1.353,1.353,0,0,1,.314.07,1.406,1.406,0,0,1,.262.183v1.255a63.655,63.655,0,0,1-7.949,0v-1.028a2.7,2.7,0,0,0,.7-2.658c-.148-.366-.453-.375-.758-.4a1.834,1.834,0,0,1-1.168-.27c.131-.27.392-.253.619-.227.584.061.471-.3.41-.636C299.573,103.233,299.164,103.512,298.85,103.285Z" transform="translate(-268.306 -48.724)" fill="#f1b998"/>
    <path id="Path_376" data-name="Path 376" d="M310.1,107.907a3.346,3.346,0,0,1,0-.418c.061-.392-.227-1,.227-1.133a4.917,4.917,0,0,1,1.857-.017c.279.035.209.4.209.636.009.628-.017,1.255.009,1.883.026.514-.122.732-.7.758C310.1,109.685,310.1,109.72,310.1,107.907Z" transform="translate(-269.747 -50.879)" fill="#54452e"/>
    <path id="Path_377" data-name="Path 377" d="M312.414,92.578V93a1.341,1.341,0,0,1-2.04,1.212c-.288-.139-.253-.375-.262-.61a11.418,11.418,0,0,0-.017-1.447c-.131-.985.192-1.368,1.229-1.273C312.406,90.974,312.414,90.9,312.414,92.578Z" transform="translate(-269.747 -48.903)" fill="#56462f"/>
    <path id="Path_378" data-name="Path 378" d="M312.389,96.183a14.916,14.916,0,0,0,.035,1.874c.166,1.107-.305,1.351-1.325,1.3-.741-.035-1.09-.166-1.011-.985.07-.723.026-1.456.035-2.188a.369.369,0,0,1,.261-.1,6.8,6.8,0,0,0,1.734-.009A.4.4,0,0,1,312.389,96.183Z" transform="translate(-269.748 -49.571)" fill="#54452e"/>
    <path id="Path_379" data-name="Path 379" d="M310.132,104.34a16.767,16.767,0,0,0-.035-1.987c-.131-1.011.314-1.2,1.229-1.2.863,0,1.2.227,1.107,1.116-.07.619-.035,1.255-.044,1.883-.593.471-1.3.183-1.952.314A.435.435,0,0,1,310.132,104.34Z" transform="translate(-269.747 -50.224)" fill="#55462f"/>
    <path id="Path_380" data-name="Path 380" d="M312.406,85.872v3.112a.363.363,0,0,1-.262.113,7.363,7.363,0,0,0-1.752,0,.337.337,0,0,1-.253-.122v-3.1a.362.362,0,0,1,.262-.113,6.864,6.864,0,0,0,1.743-.009A.455.455,0,0,1,312.406,85.872Z" transform="translate(-269.756 -48.246)" fill="#54452e"/>
    <path id="Path_381" data-name="Path 381" d="M308.112,88.82c-.044.5-.41.453-.758.453-.994.009-1.987.035-2.981.052a.28.28,0,0,1,.139-.418,1.889,1.889,0,0,1,.9-.183c2-.087,1.97-.087,2-2.153.017-.723-.27-1.525.34-2.162a.237.237,0,0,1,.27.209C308.06,86.022,308.086,87.426,308.112,88.82Z" transform="translate(-269.009 -48.074)" fill="#4e412a"/>
    <path id="Path_382" data-name="Path 382" d="M300.279,111.55h7.949a.336.336,0,0,1-.026.183q-3.961-.013-7.932-.017A1,1,0,0,1,300.279,111.55Z" transform="translate(-268.489 -51.559)" fill="#fbbe9c"/>
    <path id="Path_383" data-name="Path 383" d="M308.551,84.547c-.044-.061-.078-.122-.122-.183-.035-.244.139-.331.314-.418a25.393,25.393,0,0,1,4.384-.009.708.708,0,0,1,.314.218c-.009.1-.017.183-.026.279A23.29,23.29,0,0,0,308.551,84.547Z" transform="translate(-269.536 -48.002)" fill="#4b422a"/>
    <path id="Path_384" data-name="Path 384" d="M309.084,91.173l.227-.253v3.338l-.279-.026A4.257,4.257,0,0,1,309.084,91.173Z" transform="translate(-269.58 -48.91)" fill="#fdc2a0"/>
    <path id="Path_385" data-name="Path 385" d="M309.084,106.523l.227-.253v3.338c-.087-.009-.174-.017-.261-.017A4.147,4.147,0,0,1,309.084,106.523Z" transform="translate(-269.58 -50.881)" fill="#fdc2a0"/>
    <path id="Path_386" data-name="Path 386" d="M309.3,104.568l-.227-.253a4.257,4.257,0,0,1-.044-3.059l.279-.026C309.31,102.346,309.31,103.461,309.3,104.568Z" transform="translate(-269.58 -50.234)" fill="#fdc2a0"/>
    <path id="Path_387" data-name="Path 387" d="M309.313,99.3c-.087-.009-.166-.009-.253-.017a6.312,6.312,0,0,1-.166-3.016.707.707,0,0,1,.218-.314h.2Z" transform="translate(-269.583 -49.556)" fill="#fdc3a1"/>
    <path id="Path_388" data-name="Path 388" d="M310.12,95.93a2.585,2.585,0,0,1,2.292-.009A3.066,3.066,0,0,1,310.12,95.93Z" transform="translate(-269.753 -49.518)" fill="#c48c77"/>
    <path id="Path_389" data-name="Path 389" d="M310.12,95.969c.767,0,1.525,0,2.292-.009a.569.569,0,0,1-.017.209H312.2a4.005,4.005,0,0,1-1.874,0h-.1l-.1.009A.843.843,0,0,1,310.12,95.969Z" transform="translate(-269.753 -49.557)" fill="#755942"/>
    <path id="Path_390" data-name="Path 390" d="M310.409,90.5h1.822v.1H310.4A.424.424,0,0,0,310.409,90.5Z" transform="translate(-269.789 -48.856)" fill="#c28a73"/>
    <ellipse id="Ellipse_179" data-name="Ellipse 179" cx="1.307" cy="0.07" rx="1.307" ry="0.07" transform="translate(40.201 50.613)" fill="#c38b75"/>
    <path id="Path_391" data-name="Path 391" d="M310.329,85.839h-.1l-.1.009a1.7,1.7,0,0,1-.017-.218,5.006,5.006,0,0,1,2.3,0c-.009.07-.009.139-.017.209h-.1l-.1.009A4.211,4.211,0,0,1,310.329,85.839Z" transform="translate(-269.753 -48.214)" fill="#84644d"/>
    <path id="Path_392" data-name="Path 392" d="M312.411,85.611h-2.3A2.632,2.632,0,0,1,312.411,85.611Z" transform="translate(-269.752 -48.194)" fill="#c48b76"/>
    <path id="Path_393" data-name="Path 393" d="M310.127,89.436a.839.839,0,0,0,.209,0,4.593,4.593,0,0,1,1.857,0,1.677,1.677,0,0,1,.209.009c0,.07.009.148.009.218a5.391,5.391,0,0,1-2.3,0A1.981,1.981,0,0,0,310.127,89.436Z" transform="translate(-269.752 -48.707)" fill="#997059"/>
    <path id="Path_394" data-name="Path 394" d="M312.412,105.026a2.585,2.585,0,0,1-2.292-.009A3.025,3.025,0,0,1,312.412,105.026Z" transform="translate(-269.753 -50.692)" fill="#c48b76"/>
    <path id="Path_395" data-name="Path 395" d="M310.11,89.71h2.3A2.692,2.692,0,0,1,310.11,89.71Z" transform="translate(-269.752 -48.755)" fill="#c58a76"/>
    <path id="Path_396" data-name="Path 396" d="M312.412,105.012c-.767,0-1.525,0-2.292-.009.009-.07.009-.139.017-.209a.771.771,0,0,0,.2,0,5.151,5.151,0,0,1,2.066,0A1.813,1.813,0,0,0,312.412,105.012Z" transform="translate(-269.753 -50.678)" fill="#83634e"/>
    <path id="Path_397" data-name="Path 397" d="M312.426,104.778H310.36c.654-.4,1.377-.1,2.057-.192A.29.29,0,0,1,312.426,104.778Z" transform="translate(-269.784 -50.662)" fill="#4e4229"/>
    <path id="Path_398" data-name="Path 398" d="M298.852,106.533c2.318-.131,2.266-.131,2.336,2.144.026.88-.209,1.281-1.107,1.194-1.046.131-1.395-.331-1.255-1.351A15.118,15.118,0,0,0,298.852,106.533Z" transform="translate(-268.299 -50.909)" fill="#584931"/>
    <path id="Path_399" data-name="Path 399" d="M301.12,101.29c.017.375.044.758.044,1.133,0,2.327,0,2.327-2.318,2.118.131-1.1-.279-2.24.244-3.3a.643.643,0,0,1,.811,0,.145.145,0,0,0,.183,0A.852.852,0,0,1,301.12,101.29Z" transform="translate(-268.302 -50.216)" fill="#594932"/>
    <path id="Path_400" data-name="Path 400" d="M297.1,109.854h-1.682a3.057,3.057,0,0,1-.166-2.58c.3-.924,1.168-.506,1.848-.4A3.468,3.468,0,0,1,297.1,109.854Z" transform="translate(-267.818 -50.935)" fill="#5c4d35"/>
    <path id="Path_401" data-name="Path 401" d="M294.06,105.051v-.645c.331-.462,1.09-.009,1.342-.628.07-.967-.009-1.935.044-2.9.026-.445.009-.941.662-.976a.436.436,0,0,1,.375.392c-.139,1.569.131,3.155-.139,4.724C295.577,105.016,294.818,105.034,294.06,105.051Z" transform="translate(-267.691 -50.063)" fill="#4e4029"/>
    <path id="Path_402" data-name="Path 402" d="M299.681,99.285c-.026.2-.052.392-.078.584-.889.026-1.778.044-2.658.07l-.1-.131a.365.365,0,0,1,.209-.244c.532-.27,1.177.07,1.691-.305.322-.575.131-1.2.183-1.8a2.559,2.559,0,0,1,.253-1.482.263.263,0,0,1,.331.017A9.718,9.718,0,0,1,299.681,99.285Z" transform="translate(-268.048 -49.552)" fill="#659b83"/>
    <path id="Path_403" data-name="Path 403" d="M296.905,100.288a1.475,1.475,0,0,0,.009.2c-.009,1.212-.009,2.414-.044,3.626-.009.314.2.7-.2.933.009-1.6.017-3.216.026-4.82A.156.156,0,0,1,296.905,100.288Z" transform="translate(-268.026 -50.103)" fill="#5f5a42"/>
    <path id="Path_404" data-name="Path 404" d="M297.088,106.94a3.772,3.772,0,0,1-.628-.009c-.811-.113-1.151.192-1.055,1.037.061.619.009,1.246.009,1.874l-.1.026-.1-.026a5.911,5.911,0,0,1-.1-3.068c.6-.323,1.246-.087,1.865-.139A.2.2,0,0,1,297.088,106.94Z" transform="translate(-267.808 -50.923)" fill="#4a3c25"/>
    <path id="Path_405" data-name="Path 405" d="M294.979,109.85a5.015,5.015,0,0,1,.017-3.33A14.667,14.667,0,0,1,294.979,109.85Z" transform="translate(-267.774 -50.913)" fill="#fedebd"/>
    <path id="Path_406" data-name="Path 406" d="M295.02,109.85c.009-1.107.009-2.223.017-3.33a.68.68,0,0,1,.192.026c.061.035.087.078.07.122s-.035.061-.052.061c-.009,1.037-.009,2.074-.017,3.1C295.159,109.841,295.09,109.841,295.02,109.85Z" transform="translate(-267.814 -50.913)" fill="#917b5f"/>
    <path id="Path_407" data-name="Path 407" d="M297.605,106.536a.726.726,0,0,1,.192-.026,9.144,9.144,0,0,1,.017,3.338c-.07-.009-.139-.009-.209-.017a20.674,20.674,0,0,1-.087-2.937A.659.659,0,0,1,297.605,106.536Z" transform="translate(-268.134 -50.912)" fill="#9f886a"/>
    <path id="Path_408" data-name="Path 408" d="M297.867,109.848c-.009-1.116-.009-2.231-.017-3.338A5.1,5.1,0,0,1,297.867,109.848Z" transform="translate(-268.178 -50.912)" fill="#fee4c1"/>
    <path id="Path_409" data-name="Path 409" d="M297.583,106.75c.009,1.037.009,2.074.017,3.112l-.1.026-.1-.026c0-.967,0-1.935-.009-2.9v-.2C297.461,106.654,297.522,106.654,297.583,106.75Z" transform="translate(-268.12 -50.934)" fill="#473924"/>
    <path id="Path_410" data-name="Path 410" d="M293.829,108.3c0-.837-.009-1.673-.009-2.51.07,0,.148.009.218.009C293.881,106.635,294.247,107.5,293.829,108.3Z" transform="translate(-267.66 -50.819)" fill="#5f5a42"/>
    <path id="Path_411" data-name="Path 411" d="M297.086,110.765h-1.8v-.1h1.8Z" transform="translate(-267.849 -51.445)" fill="#fedebb"/>
    <ellipse id="Ellipse_180" data-name="Ellipse 180" cx="1.307" cy="0.07" rx="1.307" ry="0.07" transform="translate(26.404 55.215)" fill="#fddebb"/>
    <path id="Path_412" data-name="Path 412" d="M297.31,106.733h-.087l-.087.009h-1.857a1.286,1.286,0,0,1-.009-.183c.689,0,1.368,0,2.057-.009A1.285,1.285,0,0,1,297.31,106.733Z" transform="translate(-267.846 -50.917)" fill="#5c4d35"/>
    <path id="Path_413" data-name="Path 413" d="M299.941,101.22h-.811c.139-.506.54-.122.793-.235C299.932,101.063,299.932,101.142,299.941,101.22Z" transform="translate(-268.342 -50.198)" fill="#fee3c0"/>
    <path id="Path_414" data-name="Path 414" d="M298.85,105.319c.349.061.75-.139,1.046.2C299.539,105.468,299.146,105.651,298.85,105.319Z" transform="translate(-268.306 -50.758)" fill="#fee1bf"/>
    <path id="Path_415" data-name="Path 415" d="M294.05,82.07c.349,0,.7.009,1.046.009a1.376,1.376,0,0,1,.322,1.072c0,6.119.07,12.237-.07,18.356a.974.974,0,0,1-.157.366,1.265,1.265,0,0,1-1.133.044Q294.046,91.993,294.05,82.07Z" transform="translate(-267.69 -47.774)" fill="#3c9a7e"/>
    <path id="Path_416" data-name="Path 416" d="M292.84,82.06h.837v19.794a1.923,1.923,0,0,1-.2-1.255c-.009-5.744,0-11.488-.017-17.223,0-.392.279-.95-.41-1.124-.07.1-.139.1-.209,0A1.4,1.4,0,0,0,292.84,82.06Z" transform="translate(-267.535 -47.773)" fill="#195d46"/>
    <path id="Path_417" data-name="Path 417" d="M292.85,82.28h.209v19.393h-.209Z" transform="translate(-267.536 -47.801)" fill="#185e44"/>
    <path id="Path_418" data-name="Path 418" d="M294.05,104.817c.349-.009.7-.017,1.046-.017a.462.462,0,0,1,.375-.139.627.627,0,0,1,.235.131c-.5.462-1.107.122-1.656.227Z" transform="translate(-267.69 -50.674)" fill="#5f5a42"/>
    <path id="Path_419" data-name="Path 419" d="M307.944,84.056l-.209.209a4.71,4.71,0,0,0-.192,2.432c-.044,2.153-.017,2.144-2.223,2.17-.383.009-.854-.218-1.116.288v2.789c0,.253-.026.506-.305.584-.3.078-.418-.166-.549-.366a.85.85,0,0,1-.27-.514,14.783,14.783,0,0,1-.026-2.484,1.115,1.115,0,0,1,.933-1.194,10.337,10.337,0,0,1,1.56-.07c1.089-.035,1.194-.131,1.229-1.194.026-.828-.026-1.665.035-2.493.044-.584.279-1.02.915-1.063a30.243,30.243,0,0,1,4.262.009,1.018,1.018,0,0,1,.558.27h.2c.253.148.209.4.218.628h-.418A19.355,19.355,0,0,0,307.944,84.056Z" transform="translate(-268.841 -47.903)" fill="#53462e"/>
    <path id="Path_420" data-name="Path 420" d="M280.846,94.51c.357.349.2.784.2,1.185q.013,6.825.009,13.658c-.357-.34-.2-.784-.2-1.185Q280.842,101.343,280.846,94.51Z" transform="translate(-265.991 -49.371)" fill="#77c5ae"/>
    <path id="Path_421" data-name="Path 421" d="M308.226,68.167c.479-.026.959-.061,1.438-.087.07.026.139.044.209.07.244.872-.209,1.848.384,2.676,0,.07.009.139.009.218a3.673,3.673,0,0,1-1.63.07,9.094,9.094,0,0,1-.131-2.179c-.044.593.035,1.325-.026,2.048-.078.131-.166.139-.279.035C308.217,70.067,308.217,69.117,308.226,68.167Z" transform="translate(-269.506 -45.978)" fill="#77c9b1"/>
    <path id="Path_422" data-name="Path 422" d="M305.072,68.15h1.447a4.663,4.663,0,0,1,.061,1.517c.026.4-.009.819.375,1.107a.225.225,0,0,1-.017.288h0a4.2,4.2,0,0,1-1.647.07c-.593-.819-.174-1.761-.34-2.641A.576.576,0,0,1,305.072,68.15Z" transform="translate(-269.089 -45.987)" fill="#7ac9b3"/>
    <path id="Path_423" data-name="Path 423" d="M301.868,71.191l-.061-.026c-.035-.41-.087-.811-.087-1.22-.009-2-.009-2,2.04-1.769,0,.941,0,1.883.009,2.824-.139.235-.349.131-.54.122-.235-.549.235-1.046.113-1.6-.078-.323.1-.845-.558-.68-.331.549-.078,1.168-.227,1.734,0,.017.017.035.026.052.026-.017.061-.035.087-.052.261.087.453.218.279.532C302.591,71.2,302.225,71.1,301.868,71.191Z" transform="translate(-268.674 -45.977)" fill="#78c9b3"/>
    <path id="Path_424" data-name="Path 424" d="M313.94,45.569a.84.84,0,0,1,.209,0c.157,4.881.183,9.753-.009,14.634v.009a.389.389,0,0,1-.2-.026q0-7.2.009-14.4c-.07-.052-.1-.1-.07-.148S313.922,45.569,313.94,45.569Z" transform="translate(-270.234 -43.086)" fill="#a57962"/>
    <path id="Path_425" data-name="Path 425" d="M308.608,71.209c.549,0,1.1.009,1.656.009.392.035.662-.078.645-.549-.009-.375,0-.741,0-1.116a.211.211,0,0,1,.27.009c.34.366,0,.967.444,1.3.366.157.776.044,1.142.183a1.274,1.274,0,0,1,.244.183l.017.035a2.288,2.288,0,0,1,.026,1.212c-1.752.087-1.717,1.351-1.7,2.606a.8.8,0,0,1-.174.314.275.275,0,0,1-.34-.009.911.911,0,0,1-.166-.331c.009-.933-.288-1.891.235-2.78.445-.009.9-.009,1.342-.017.253,0,.5-.044.514-.375.017-.392-.244-.445-.54-.445l-4.036-.026c.009-.07.009-.148.017-.218a.391.391,0,0,0,.2,0A.119.119,0,0,1,308.608,71.209Z" transform="translate(-269.506 -46.161)" fill="#296148"/>
    <path id="Path_426" data-name="Path 426" d="M307.119,70.835c-.288.026-.628.044-.619-.349.017-.784-.261-1.6.218-2.336h.383A3.381,3.381,0,0,1,307.119,70.835Z" transform="translate(-269.28 -45.987)" fill="#e5edea"/>
    <path id="Path_427" data-name="Path 427" d="M304.8,71.05a4.207,4.207,0,0,1,.009-2.92A4.646,4.646,0,0,1,304.8,71.05Z" transform="translate(-269.038 -45.984)" fill="#135a40"/>
    <path id="Path_428" data-name="Path 428" d="M304.84,71.05c0-.976.009-1.944.009-2.92.07.009.139.009.209.017v.2a14.28,14.28,0,0,1,.07,2.589c-.052.148-.139.183-.279.1Z" transform="translate(-269.075 -45.984)" fill="#4f9981"/>
    <path id="Path_429" data-name="Path 429" d="M307.216,70.832a6.629,6.629,0,0,0-.026-2.685c.087-.009.166-.009.253-.017a8.927,8.927,0,0,1,0,2.929h-.218C307.225,70.98,307.216,70.9,307.216,70.832Z" transform="translate(-269.377 -45.984)" fill="#2e765d"/>
    <path id="Path_430" data-name="Path 430" d="M307.48,71.049V68.12A4.44,4.44,0,0,1,307.48,71.049Z" transform="translate(-269.414 -45.983)" fill="#115b40"/>
    <path id="Path_431" data-name="Path 431" d="M304.857,71.459a1.675,1.675,0,0,0,.209-.009c.061-.087.122-.087.183-.009.558.009,1.116.017,1.673.035a1.272,1.272,0,0,1,0,.183H304.84A1.438,1.438,0,0,1,304.857,71.459Z" transform="translate(-269.075 -46.402)" fill="#2e765d"/>
    <path id="Path_432" data-name="Path 432" d="M303.2,71.461c.2-.009.392-.017.593-.035.009.07.017.148.026.218l-1.926-.026c.34-.227.741-.07,1.107-.157C303.067,71.383,303.136,71.383,303.2,71.461Z" transform="translate(-268.697 -46.404)" fill="#1c8163"/>
    <path id="Path_433" data-name="Path 433" d="M296.74,69.853V60.71h.1v9.117A.457.457,0,0,1,296.74,69.853Z" transform="translate(-268.035 -45.031)" fill="#187f61"/>
    <path id="Path_434" data-name="Path 434" d="M313.885,45.568c0,.07-.009.148-.009.218-.34.305-.2.715-.2,1.081-.009,4.027,0,8.045-.009,12.072,0,.357.157.776-.227,1.063q.013-7.152.026-14.294C313.562,45.516,313.728,45.55,313.885,45.568Z" transform="translate(-270.18 -43.085)" fill="#c38f79"/>
    <path id="Path_435" data-name="Path 435" d="M312.636,83.168c-1.525,0-3.051.035-4.567,0-.689-.017-.915.227-.88.9.044.933-.052,1.874.026,2.807.087.959-.3,1.22-1.185,1.133-.654-.07-1.316-.017-1.97-.026a.926.926,0,0,1-.261-.558,33.844,33.844,0,0,1,.061-5.482c2.449-.009,4.907,0,7.356-.026.357,0,.88.253.994-.41q-.1-.065-.078-.131c.017-.044.044-.07.061-.07a.861.861,0,0,0,.017-.148c.044-.1.113-.131.209-.07C312.863,81.739,312.54,82.471,312.636,83.168Z" transform="translate(-268.931 -47.643)" fill="#1a5f47"/>
    <path id="Path_436" data-name="Path 436" d="M310.332,75.59c.009.078.009.148.017.227.671.07,1.36-.279,2.022.1.34.235.026.671.279.933-.07.07-.148.139-.218.209-.087.061-.157.044-.2-.061.1-.689-.27-.793-.863-.793-2.5.017-5,0-7.5-.009a.331.331,0,0,1-.061-.4.375.375,0,0,1,.244-.1c-.07-.837.026-1.682-.1-2.51a1.2,1.2,0,0,1-.122-.261.287.287,0,0,1,.061-.261h.6c.41.471.227,1.055.288,1.6.052.462-.166.985.262,1.368a4,4,0,0,0,1.473.078.507.507,0,0,0,.34-.244c.192-.837-.052-1.7.166-2.528a1.469,1.469,0,0,1,.183-.27l.479.026a.967.967,0,0,1,.157.3,22.023,22.023,0,0,1,.078,2.275,1.436,1.436,0,0,0,.052.279,1.164,1.164,0,0,0,1.4-.009c.017-.1.035-.192.044-.288a19.474,19.474,0,0,1,.079-2.257,1.111,1.111,0,0,1,.166-.3l.479-.026C310.411,73.637,310.062,74.64,310.332,75.59Z" transform="translate(-268.937 -46.567)" fill="#1a6248"/>
    <path id="Path_437" data-name="Path 437" d="M311.555,75.633c-.009-.27-.035-.54-.035-.819-.009-1.935-.009-1.935,1.926-1.944a.209.209,0,0,1,.07.218c-.026.845-.044,1.691-.07,2.536A1.993,1.993,0,0,1,311.555,75.633Z" transform="translate(-269.933 -46.593)" fill="#77c8b1"/>
    <path id="Path_438" data-name="Path 438" d="M313.205,77.66a.764.764,0,0,0,.2.061c0,.976,0,1.952.009,2.92-.07.026-.139.044-.209.07-.488-.026-.976-.052-1.464-.087a3.288,3.288,0,0,1,0-2.885Z" transform="translate(-269.918 -47.208)" fill="#75c5ae"/>
    <path id="Path_439" data-name="Path 439" d="M313.214,71.027h-1.464c-.183-.845-.07-1.726-.244-2.58a.345.345,0,0,1,.026-.331c.628.1,1.307-.235,1.9.2C313.109,69.205,313.51,70.147,313.214,71.027Z" transform="translate(-269.927 -45.978)" fill="#76c8b1"/>
    <path id="Path_440" data-name="Path 440" d="M313.465,71.061c.122-.9-.261-1.839.218-2.711,0,.915-.009,1.822-.009,2.737C313.614,71.078,313.535,71.069,313.465,71.061Z" transform="translate(-270.179 -46.012)" fill="#7dceb7"/>
    <path id="Path_441" data-name="Path 441" d="M311.559,76.04h1.891a.465.465,0,0,1-.017.192c-.044.035-.1.07-.139.1a4.9,4.9,0,0,1-1.708-.1A.323.323,0,0,1,311.559,76.04Z" transform="translate(-269.937 -47)" fill="#6fc0a8"/>
    <path id="Path_442" data-name="Path 442" d="M313.79,72.925c-.026-.07-.044-.148-.07-.218,0-.392.009-.784.009-1.177A1.4,1.4,0,0,1,313.79,72.925Z" transform="translate(-270.216 -46.421)" fill="#1e654c"/>
    <path id="Path_443" data-name="Path 443" d="M311.52,68.13c0,.07.009.139.009.209.1.357.244.723-.087,1.046h-.122V68.13Z" transform="translate(-269.908 -45.984)" fill="#1e654c"/>
    <path id="Path_444" data-name="Path 444" d="M313.907,77.325c-.305-.218-.174-.549-.209-.837-.07-.044-.1-.1-.07-.139s.044-.07.07-.07l-.009-.009C314.047,76.558,313.855,76.967,313.907,77.325Z" transform="translate(-270.202 -47.029)" fill="#146249"/>
    <path id="Path_445" data-name="Path 445" d="M314.18,60.175q0-7.321.009-14.634v-.2c.418.514.113,1.116.209,1.673v13.17C314.328,60.183,314.25,60.175,314.18,60.175Z" transform="translate(-270.275 -43.058)" fill="#51432c"/>
    <path id="Path_446" data-name="Path 446" d="M310.466,70.836c-.3.035-.6-.009-.584-.375.026-.767-.235-1.569.2-2.292.34-.052.575.131.567.445A4.3,4.3,0,0,1,310.466,70.836Z" transform="translate(-269.716 -45.988)" fill="#f1f6f4"/>
    <path id="Path_447" data-name="Path 447" d="M299.112,76.213h-2.728a4.224,4.224,0,0,1,.009-3.513h2.719A4.325,4.325,0,0,1,299.112,76.213Z" transform="translate(-267.941 -46.571)" fill="#1c8163"/>
    <path id="Path_448" data-name="Path 448" d="M288.645,76.219h-2.092a4.264,4.264,0,0,1-.009-3.53c.706,0,1.4,0,2.109-.009A4.387,4.387,0,0,1,288.645,76.219Z" transform="translate(-266.678 -46.568)" fill="#3d9c80"/>
    <path id="Path_449" data-name="Path 449" d="M292.266,76.221h-1.874a4.179,4.179,0,0,1-.009-3.521h1.891A4.244,4.244,0,0,1,292.266,76.221Z" transform="translate(-267.17 -46.571)" fill="#3c9c80"/>
    <path id="Path_450" data-name="Path 450" d="M292.6,76.22c0-1.177.009-2.353.009-3.53h1.238a4.231,4.231,0,0,1,.009,3.53Z" transform="translate(-267.504 -46.569)" fill="#1b6249"/>
    <path id="Path_451" data-name="Path 451" d="M290.266,72.689c0,1.177.009,2.353.009,3.521-.418,0-.837,0-1.255.009,0-1.177.009-2.362.009-3.539C289.438,72.689,289.848,72.689,290.266,72.689Z" transform="translate(-267.044 -46.568)" fill="#1b6249"/>
    <path id="Path_452" data-name="Path 452" d="M286.415,72.689c0,1.177.009,2.353.009,3.53H285.16c0-1.177.009-2.362.009-3.539C285.587,72.689,286.005,72.689,286.415,72.689Z" transform="translate(-266.549 -46.568)" fill="#1a6148"/>
    <path id="Path_453" data-name="Path 453" d="M303.43,75.826c0,.131,0,.261-.009.392-.907,0-1.8-.009-2.711-.009a4.046,4.046,0,0,1,.009-3.53h2.719l-.026.1a.247.247,0,0,1-.148.253,1.082,1.082,0,0,1-.488.113c-.758-.035-1.029.357-.967,1.072a2.766,2.766,0,0,0,.139,1.1C302.341,75.774,303.047,75.33,303.43,75.826Z" transform="translate(-268.494 -46.568)" fill="#1f8264"/>
    <path id="Path_454" data-name="Path 454" d="M300.632,72.69c0,1.177-.009,2.353-.009,3.53-.349,0-.7-.009-1.055-.009,0-1.168-.009-2.345-.009-3.513C299.917,72.69,300.275,72.69,300.632,72.69Z" transform="translate(-268.397 -46.569)" fill="#76c7b0"/>
    <path id="Path_455" data-name="Path 455" d="M296.23,72.69c0,1.168-.009,2.345-.009,3.513h-1.029a4.192,4.192,0,0,1-.009-3.513Z" transform="translate(-267.787 -46.569)" fill="#76c8b1"/>
    <path id="Path_456" data-name="Path 456" d="M295.086,72.69c0,1.168.009,2.345.009,3.513-.349.009-.7.009-1.046.017,0-1.177-.009-2.353-.009-3.53Z" transform="translate(-267.689 -46.569)" fill="#3e9d80"/>
    <path id="Path_457" data-name="Path 457" d="M307.109,75.819c-.07.07-.139.139-.209.218a1.466,1.466,0,0,1-.183-.27,1.734,1.734,0,0,1-.078-.305c-.035-.375-.017-.75-.017-1.133-.017-1.133-.087-1.185-1.281-1.072-.54.645-.183,1.395-.227,2.092a.815.815,0,0,0,.035.139,1.062,1.062,0,0,1,.009.288.652.652,0,0,1-.139.253c-.532-.253-.41-.741-.418-1.168-.009-.723,0-1.447,0-2.17h2.719v.2C307.013,73.849,307.388,74.86,307.109,75.819Z" transform="translate(-269.044 -46.569)" fill="#155c41"/>
    <path id="Path_458" data-name="Path 458" d="M311.268,75.591c-.41-.941-.1-1.935-.2-2.9a1.679,1.679,0,0,1,.209-.009C311.277,73.656,311.268,74.624,311.268,75.591Z" transform="translate(-269.873 -46.568)" fill="#13593f"/>
    <path id="Path_459" data-name="Path 459" d="M310.237,72.72a.424.424,0,0,1,0,.209,1.827,1.827,0,0,1-1.978,0,.424.424,0,0,1,0-.209Z" transform="translate(-269.512 -46.573)" fill="#54a18a"/>
    <path id="Path_460" data-name="Path 460" d="M290.838,77.722c2.441-.026,4.881-.122,7.322.044a.487.487,0,0,1,.122.619.765.765,0,0,1-.392.331,8.016,8.016,0,0,1-1.883.113h-.34c-.34.009-.671,0-1.011,0s-.662,0-.994,0a5.338,5.338,0,0,1-1.49.026,3.006,3.006,0,0,1-1.116-.148C290.577,78.5,290.324,78.184,290.838,77.722Z" transform="translate(-267.241 -47.209)" fill="#e9ebe8"/>
    <path id="Path_461" data-name="Path 461" d="M288.657,80.641c-.7,0-1.4,0-2.1-.009a3.059,3.059,0,0,1,0-2.9h2.1A3.178,3.178,0,0,1,288.657,80.641Z" transform="translate(-266.681 -47.217)" fill="#3d9c80"/>
    <path id="Path_462" data-name="Path 462" d="M306.926,80.642c-.558,0-1.107-.009-1.665-.009a3.288,3.288,0,0,1,0-2.885c.558,0,1.107-.009,1.665-.009A2.945,2.945,0,0,1,306.926,80.642Z" transform="translate(-269.087 -47.218)" fill="#75c4ad"/>
    <path id="Path_463" data-name="Path 463" d="M303.34,80.632c-.567,0-1.133.009-1.691.009a3.258,3.258,0,0,1,0-2.911c.566.009,1.124.009,1.691.017A3.287,3.287,0,0,1,303.34,80.632Z" transform="translate(-268.621 -47.217)" fill="#77c8b1"/>
    <path id="Path_464" data-name="Path 464" d="M309.855,80.635h-1.464a3.287,3.287,0,0,1,0-2.885h1.464A3.287,3.287,0,0,1,309.855,80.635Z" transform="translate(-269.488 -47.219)" fill="#75c4ac"/>
    <path id="Path_465" data-name="Path 465" d="M290.77,77.73c-.253.445-.139.732.375.793.375.044.758.035,1.133.052a1.857,1.857,0,0,1,0,2.066h-1.883a2.967,2.967,0,0,1,.009-2.9C290.526,77.73,290.647,77.73,290.77,77.73Z" transform="translate(-267.172 -47.217)" fill="#3d9c80"/>
    <path id="Path_466" data-name="Path 466" d="M290.275,77.739c0,.967-.009,1.935-.009,2.9-.418,0-.828.009-1.246.009V77.739C289.438,77.731,289.857,77.739,290.275,77.739Z" transform="translate(-267.044 -47.217)" fill="#1b624a"/>
    <path id="Path_467" data-name="Path 467" d="M286.425,77.739v2.9H285.17V77.73C285.58,77.73,286.007,77.739,286.425,77.739Z" transform="translate(-266.55 -47.217)" fill="#1b6148"/>
    <path id="Path_468" data-name="Path 468" d="M299.3,78.341c-.009-.192-.026-.375-.035-.567.436-.009.863-.026,1.3-.035a3.142,3.142,0,0,1,.009,2.894h-1.055C299,79.91,299.261,79.117,299.3,78.341Z" transform="translate(-268.352 -47.218)" fill="#76c7b0"/>
    <path id="Path_469" data-name="Path 469" d="M307.22,80.641v-2.9c.279,0,.558-.009.845-.009a8.217,8.217,0,0,1,0,2.92C307.786,80.641,307.5,80.641,307.22,80.641Z" transform="translate(-269.381 -47.217)" fill="#1f654c"/>
    <path id="Path_470" data-name="Path 470" d="M300.769,80.632c0-.967,0-1.935-.009-2.894.27,0,.54-.009.811-.009v2.911C301.309,80.641,301.039,80.641,300.769,80.632Z" transform="translate(-268.552 -47.217)" fill="#27886b"/>
    <path id="Path_471" data-name="Path 471" d="M304.728,80.632c-.218,0-.436,0-.654.009a4.5,4.5,0,0,1,0-2.911c.218,0,.436,0,.654.009A4.889,4.889,0,0,1,304.728,80.632Z" transform="translate(-268.946 -47.217)" fill="#13593f"/>
    <path id="Path_472" data-name="Path 472" d="M297.794,77.435H291.24v-.1h6.589A.494.494,0,0,1,297.794,77.435Z" transform="translate(-267.329 -47.165)" fill="#4e3f26"/>
    <path id="Path_473" data-name="Path 473" d="M310.12,80.632V77.747a.244.244,0,0,1,.192,0,3.142,3.142,0,0,1,0,2.894l-.1.017Z" transform="translate(-269.753 -47.216)" fill="#7bcfb9"/>
    <path id="Path_474" data-name="Path 474" d="M311.71,77.747v2.885l-.1.026-.1-.017a3.168,3.168,0,0,1,0-2.894A.244.244,0,0,1,311.71,77.747Z" transform="translate(-269.888 -47.216)" fill="#7bcfb9"/>
    <path id="Path_475" data-name="Path 475" d="M311.487,77.749v2.894a1.82,1.82,0,0,0-.218.009,3.24,3.24,0,0,1,0-2.9A.91.91,0,0,1,311.487,77.749Z" transform="translate(-269.857 -47.218)" fill="#519880"/>
    <path id="Path_476" data-name="Path 476" d="M311.239,77.73v2.911h-.209a3.267,3.267,0,0,1,0-2.9A1.751,1.751,0,0,0,311.239,77.73Z" transform="translate(-269.827 -47.217)" fill="#155b40"/>
    <path id="Path_477" data-name="Path 477" d="M311,77.74v2.9h-.209a4.475,4.475,0,0,1,0-2.9Z" transform="translate(-269.809 -47.218)" fill="#1b6248"/>
    <path id="Path_478" data-name="Path 478" d="M310.781,77.739v2.9h-.209a8.821,8.821,0,0,1,0-2.911A1.681,1.681,0,0,0,310.781,77.739Z" transform="translate(-269.796 -47.217)" fill="#155a3f"/>
    <path id="Path_479" data-name="Path 479" d="M310.558,77.73v2.911a1.82,1.82,0,0,1-.218-.009V77.739A1.9,1.9,0,0,0,310.558,77.73Z" transform="translate(-269.781 -47.217)" fill="#519880"/>
    <path id="Path_480" data-name="Path 480" d="M308.19,80.64V77.72c.07.009.139.009.209.017v2.885A1.694,1.694,0,0,1,308.19,80.64Z" transform="translate(-269.506 -47.215)" fill="#7bcfb9"/>
    <path id="Path_481" data-name="Path 481" d="M305.261,77.748v2.885c-.07-.009-.139-.009-.2-.017a7.832,7.832,0,0,1,0-2.85A.233.233,0,0,1,305.261,77.748Z" transform="translate(-269.087 -47.217)" fill="#7aceb8"/>
    <path id="Path_482" data-name="Path 482" d="M305.052,77.766v2.85l-.1.026h-.1V77.749A.288.288,0,0,1,305.052,77.766Z" transform="translate(-269.078 -47.218)" fill="#75c4ad"/>
    <path id="Path_483" data-name="Path 483" d="M304.061,77.74v2.911h-.218a9.264,9.264,0,0,1,0-2.9A1.9,1.9,0,0,1,304.061,77.74Z" transform="translate(-268.932 -47.218)" fill="#46947b"/>
    <path id="Path_484" data-name="Path 484" d="M303.84,77.737v2.9l-.1.017-.1-.026V77.746A.23.23,0,0,1,303.84,77.737Z" transform="translate(-268.921 -47.215)" fill="#7ed0b8"/>
    <path id="Path_485" data-name="Path 485" d="M296.825,97.946a1.888,1.888,0,0,1-.209-.061l-.244-.218a1.79,1.79,0,0,1-.322-1.386q-.013-6.419,0-12.839a1.834,1.834,0,0,1,.322-1.386c.288-.017.575-.044.872-.061a.171.171,0,0,1,.244.044c.026.349.174.558.558.567.322.009.689-.044.915.305a.246.246,0,0,1-.157.218,7.193,7.193,0,0,1-1.055.026c.462.157.968-.192,1.464.026a1.127,1.127,0,0,1,.183.593c.07,3.364.1,6.72-.122,10.084-.009.1-.1.183-.148.27-.183,1.246.244,2.536-.235,3.765a4.284,4.284,0,0,0-2.074.009Z" transform="translate(-267.946 -47.76)" fill="#1c8163"/>
    <path id="Path_486" data-name="Path 486" d="M296.278,82.079v15.6c-.514.07-.4.471-.41.793-.009,1.133-.009,2.275-.009,3.408l-.1.009-.1-.017a24.7,24.7,0,0,1-.087-3.521c-.087.662.026,1.639-.026,2.6-.017.253.218.654-.288.732q0-9.806-.009-19.611C295.59,82.079,295.939,82.079,296.278,82.079Z" transform="translate(-267.844 -47.774)" fill="#76c8b1"/>
    <path id="Path_487" data-name="Path 487" d="M299.042,82.9c-.383,0-.767.009-1.15-.009-.758-.035-.723-.375-.305-.845A2.706,2.706,0,0,1,299.269,82h1.055a1.084,1.084,0,0,1,1.02.052l-.017.017c.6.314.505.654,0,.95a1.53,1.53,0,0,1-.793.131A2.82,2.82,0,0,1,299.042,82.9Z" transform="translate(-268.107 -47.751)" fill="#ecf2ef"/>
    <path id="Path_488" data-name="Path 488" d="M304.84,81.32h1.918c-.3.34-.61.148-.88.209C305.529,81.477,305.136,81.669,304.84,81.32Z" transform="translate(-269.075 -47.678)" fill="#514026"/>
    <path id="Path_489" data-name="Path 489" d="M299.286,81.987c-.558.017-1.116.035-1.682.044a.778.778,0,0,0-.174-.052A2.05,2.05,0,0,1,299.286,81.987Z" transform="translate(-268.124 -47.734)" fill="#484329"/>
    <path id="Path_490" data-name="Path 490" d="M301.78,82.044l-1.02-.052c.227-.279.549-.166.837-.192C301.658,81.878,301.719,81.965,301.78,82.044Z" transform="translate(-268.552 -47.739)" fill="#484429"/>
    <path id="Path_491" data-name="Path 491" d="M300.937,82.923c.436-.1,1.4.279.776-.828.575-.009,1.142-.026,1.717-.035a8.987,8.987,0,0,1,.192,3.051c.044.994.009,1.987.009,2.99-.558.044-.619.427-.61.88.009.889-.009,1.787-.017,2.676-.723.392-1.508.122-2.257.227a1.448,1.448,0,0,1-.357-1.255c-.017-2.118-.017-4.245,0-6.363C300.4,83.768,300.318,83.2,300.937,82.923Z" transform="translate(-268.502 -47.773)" fill="#1c8163"/>
    <path id="Path_492" data-name="Path 492" d="M298.9,78.43c.453.732.087,1.525.209,2.284h-2.719a1.753,1.753,0,0,1,.009-2.057,1.477,1.477,0,0,1,.2.009,4.248,4.248,0,0,0,2.066-.026A2.855,2.855,0,0,0,298.9,78.43Z" transform="translate(-267.949 -47.306)" fill="#1c8163"/>
    <path id="Path_493" data-name="Path 493" d="M292.61,80.759V78.693c.41.322.828-.192,1.238,0a1.781,1.781,0,0,1,.009,2.066Z" transform="translate(-267.505 -47.335)" fill="#1b624a"/>
    <path id="Path_494" data-name="Path 494" d="M294.039,80.766c0-.689,0-1.377-.009-2.066.349,0,.7,0,1.037.009a1.753,1.753,0,0,1,.009,2.057C294.736,80.757,294.387,80.757,294.039,80.766Z" transform="translate(-267.687 -47.341)" fill="#3e9c80"/>
    <path id="Path_495" data-name="Path 495" d="M295.239,80.756c0-.689-.009-1.368-.009-2.057.357,0,.715,0,1.063-.009,0,.689-.009,1.377-.009,2.057C295.936,80.756,295.587,80.756,295.239,80.756Z" transform="translate(-267.842 -47.34)" fill="#75c7b0"/>
    <path id="Path_496" data-name="Path 496" d="M310.054,81.485h-1.6v-.1h1.621A.437.437,0,0,0,310.054,81.485Z" transform="translate(-269.539 -47.685)" fill="#514027"/>
    <path id="Path_497" data-name="Path 497" d="M313.211,81.33a.519.519,0,0,1,.009.2H311.6c0-.07-.009-.131-.009-.2Z" transform="translate(-269.942 -47.679)" fill="#523f26"/>
    <path id="Path_498" data-name="Path 498" d="M285.44,104.835V82.6h.1v22.278A.533.533,0,0,0,285.44,104.835Z" transform="translate(-266.585 -47.842)" fill="#165d45"/>
    <path id="Path_499" data-name="Path 499" d="M286.16,104.835V82.6h.1v22.278A.533.533,0,0,0,286.16,104.835Z" transform="translate(-266.677 -47.842)" fill="#185e44"/>
    <path id="Path_500" data-name="Path 500" d="M300.8,83.05c-.061.122-.174.244-.174.366,0,2.815.009,5.622.026,8.437,0,.052.078.1.122.166v.139c-.253.017-.514.035-.767.061-.34.575-.1,1.194-.131,1.787a.4.4,0,0,1-.174.279h-.148c-.009-3.33-.009-6.668-.026-10,0-.357.157-.767-.183-1.081h-.009a.735.735,0,0,0-.035-.148C299.8,83.05,300.3,83.05,300.8,83.05Z" transform="translate(-268.364 -47.9)" fill="#77c8b1"/>
    <path id="Path_501" data-name="Path 501" d="M302.682,99.323c-.017-.375-.052-.75-.052-1.124-.009-2.135,0-2.135,2.127-2a6.572,6.572,0,0,1,.174,2.763.5.5,0,0,1-.532.532A2.769,2.769,0,0,1,302.682,99.323Z" transform="translate(-268.791 -49.582)" fill="#54452e"/>
    <path id="Path_502" data-name="Path 502" d="M306.5,101.261a7.937,7.937,0,0,1,2.083.017,10.286,10.286,0,0,1,.026,3.1l.009-.009a.855.855,0,0,1-.375.166c-1.665.244-1.848.1-1.83-1.551A4.432,4.432,0,0,1,306.5,101.261Z" transform="translate(-269.272 -50.23)" fill="#54452e"/>
    <path id="Path_503" data-name="Path 503" d="M308.568,109.6a6.955,6.955,0,0,1-2.083.017,6.452,6.452,0,0,1-.174-2.737c-.009-.322.209-.5.54-.479a6.492,6.492,0,0,1,1.743.087v-.009A10.7,10.7,0,0,1,308.568,109.6Z" transform="translate(-269.256 -50.895)" fill="#54452e"/>
    <path id="Path_504" data-name="Path 504" d="M302.7,109.627c-.026-.41-.061-.819-.07-1.238-.009-2.074,0-2.074,2.135-1.909a5.538,5.538,0,0,1,.017,3.173l.009-.009A2.5,2.5,0,0,1,302.7,109.627Z" transform="translate(-268.791 -50.9)" fill="#54452e"/>
    <path id="Path_505" data-name="Path 505" d="M308.569,94.194a7.517,7.517,0,0,1-2.074.017,6.435,6.435,0,0,1-.174-2.763.508.508,0,0,1,.549-.514,3.1,3.1,0,0,1,1.734.166l-.009-.009A10.575,10.575,0,0,1,308.569,94.194Z" transform="translate(-269.257 -48.907)" fill="#54452e"/>
    <path id="Path_506" data-name="Path 506" d="M302.7,101.26l2.04.026a.459.459,0,0,1,.1.331c-.157.976.261,2.013-.3,2.946h-1.673c-.575-1.3-.384-2.667.418-2.99.139,0,.026-.2.035-.061,0,.026-.026.044-.087.044a2.039,2.039,0,0,1-.514-.026A.16.16,0,0,1,302.7,101.26Z" transform="translate(-268.78 -50.238)" fill="#584831"/>
    <path id="Path_507" data-name="Path 507" d="M308.569,106.461c-2.1.052-2.1.052-2.1,2.214v.924l-.1.017-.1-.009a7.285,7.285,0,0,1,.07-3.329C307.087,106.383,307.854,106.086,308.569,106.461Z" transform="translate(-269.239 -50.88)" fill="#66523a"/>
    <path id="Path_508" data-name="Path 508" d="M306.488,101.27v.941c0,2.127,0,2.127,2.109,2.17a.288.288,0,0,1-.017.192,3.851,3.851,0,0,1-2.284-.078C306.427,103.423,306.052,102.325,306.488,101.27Z" transform="translate(-269.259 -50.239)" fill="#635038"/>
    <path id="Path_509" data-name="Path 509" d="M302.688,99.328c2.074-.009,2.074-.009,2.074-2.074V96.207a.359.359,0,0,1,.192-.009,9.144,9.144,0,0,1-.009,3.338l.026-.026a4.265,4.265,0,0,1-2.292.009A.692.692,0,0,1,302.688,99.328Z" transform="translate(-268.798 -49.587)" fill="#69553c"/>
    <path id="Path_510" data-name="Path 510" d="M308.579,91.093c-2.109.061-2.109.061-2.109,2.17V94.2a.563.563,0,0,1-.166.035,8.087,8.087,0,0,1-.009-3.33l-.035.026a4.639,4.639,0,0,1,2.292-.035A.24.24,0,0,1,308.579,91.093Z" transform="translate(-269.241 -48.892)" fill="#635038"/>
    <path id="Path_511" data-name="Path 511" d="M302.664,101.48h1.412c-1.281-.061-1.334.732-1.246,1.673.044.479.009.959.009,1.438l-.1.026-.1-.017A3.452,3.452,0,0,1,302.664,101.48Z" transform="translate(-268.747 -50.266)" fill="#483b25"/>
    <path id="Path_512" data-name="Path 512" d="M299.75,95.888a1.383,1.383,0,0,0,.044-.183c.1-.139.218-.122.34-.044.026.07.052.148.078.218a.516.516,0,0,1,.113.288,10.314,10.314,0,0,0,.017,2.432,1.214,1.214,0,0,1,.087.288v.148c-.122.061-.244.131-.375.192C299.48,98.163,299.959,96.995,299.75,95.888Z" transform="translate(-268.422 -49.511)" fill="#564229"/>
    <path id="Path_513" data-name="Path 513" d="M300.98,93.432a.374.374,0,0,0,0-.139c.654-.471,1.4-.131,2.1-.227.009.122.009.244.017.366Q302.039,93.445,300.98,93.432Z" transform="translate(-268.58 -49.182)" fill="#0f7d60"/>
    <path id="Path_514" data-name="Path 514" d="M305.28,99.528c0-1.116.009-2.223.009-3.338A4.934,4.934,0,0,1,305.28,99.528Z" transform="translate(-269.132 -49.587)" fill="#fac09e"/>
    <path id="Path_515" data-name="Path 515" d="M301.925,104.6c-.436-1.02-.131-2.074-.166-3.12,0-.017.044-.044.07-.052a.392.392,0,0,1,.1.026A3.81,3.81,0,0,1,301.925,104.6Z" transform="translate(-268.671 -50.26)" fill="#f8be9e"/>
    <path id="Path_516" data-name="Path 516" d="M302.391,104.577h-.209a9.974,9.974,0,0,1,0-3.138c.078-.07.148-.139.227-.209A12.656,12.656,0,0,1,302.391,104.577Z" transform="translate(-268.718 -50.234)" fill="#fbc0a0"/>
    <path id="Path_517" data-name="Path 517" d="M306.275,90.92c0,1.107.009,2.223.009,3.33A4.618,4.618,0,0,1,306.275,90.92Z" transform="translate(-269.22 -48.91)" fill="#f6bb9b"/>
    <path id="Path_518" data-name="Path 518" d="M302.163,106.51a5.016,5.016,0,0,1,0,3.138A5.079,5.079,0,0,1,302.163,106.51Z" transform="translate(-268.7 -50.912)" fill="#fbc0a0"/>
    <path id="Path_519" data-name="Path 519" d="M305.035,101.458v-.174a.469.469,0,0,1,.183-.044,9.142,9.142,0,0,1,.026,3.338c-.07-.009-.139-.009-.209-.017A12.324,12.324,0,0,1,305.035,101.458Z" transform="translate(-269.088 -50.235)" fill="#7e634a"/>
    <path id="Path_520" data-name="Path 520" d="M301.922,109.648a4.955,4.955,0,0,1,0-3.138A9.97,9.97,0,0,1,301.922,109.648Z" transform="translate(-268.668 -50.912)" fill="#f9be9e"/>
    <path id="Path_521" data-name="Path 521" d="M302.44,104.578c0-1.116.009-2.231.009-3.338a2.144,2.144,0,0,0,.227.017.476.476,0,0,0,.009.192c-.009,1.037-.017,2.083-.026,3.12A1.9,1.9,0,0,0,302.44,104.578Z" transform="translate(-268.767 -50.235)" fill="#c3987b"/>
    <path id="Path_522" data-name="Path 522" d="M306.327,106.28c-.026,1.107-.044,2.223-.07,3.33A4.4,4.4,0,0,1,306.327,106.28Z" transform="translate(-269.22 -50.882)" fill="#f6bc9b"/>
    <path id="Path_523" data-name="Path 523" d="M305.3,104.578c-.009-1.116-.017-2.223-.026-3.338A4.986,4.986,0,0,1,305.3,104.578Z" transform="translate(-269.131 -50.235)" fill="#fac09e"/>
    <path id="Path_524" data-name="Path 524" d="M302.366,96.45v2.868h-.1V96.45Z" transform="translate(-268.746 -49.62)" fill="#fbc0a0"/>
    <path id="Path_525" data-name="Path 525" d="M308.926,104.389c-.009-1.037-.017-2.066-.026-3.1l.148-.026c.017,1.02.035,2.04.044,3.059A.556.556,0,0,1,308.926,104.389Z" transform="translate(-269.597 -50.238)" fill="#635038"/>
    <path id="Path_526" data-name="Path 526" d="M306.251,99.329a4.755,4.755,0,0,1,0-3.129A3.908,3.908,0,0,1,306.251,99.329Z" transform="translate(-269.223 -49.588)" fill="#f6bc9b"/>
    <path id="Path_527" data-name="Path 527" d="M300.468,95.977a1.835,1.835,0,0,1,.218-.017,8.441,8.441,0,0,1-.017,3.138h-.227l-.052-.026A6.869,6.869,0,0,1,300.468,95.977Z" transform="translate(-268.486 -49.557)" fill="#9c7a5e"/>
    <path id="Path_528" data-name="Path 528" d="M300.73,99.088c.009-1.046.009-2.092.017-3.138A4.62,4.62,0,0,1,300.73,99.088Z" transform="translate(-268.548 -49.556)" fill="#fec2a1"/>
    <path id="Path_529" data-name="Path 529" d="M305.019,101.49c0,1.037.009,2.066.009,3.1l-.1.026-.1-.026C304.94,103.556,304.609,102.5,305.019,101.49Z" transform="translate(-269.071 -50.267)" fill="#4a3e28"/>
    <path id="Path_530" data-name="Path 530" d="M301.96,109.648V106.51h.209v3.138Z" transform="translate(-268.706 -50.912)" fill="#edb695"/>
    <path id="Path_531" data-name="Path 531" d="M302.169,101.47v3.138h-.209V101.47Z" transform="translate(-268.706 -50.265)" fill="#eeb796"/>
    <path id="Path_532" data-name="Path 532" d="M305.1,109.661c-.009-1.055-.009-2.118-.017-3.173a.392.392,0,0,1,.2.009,9.72,9.72,0,0,1,.009,3.138l-.1.026Z" transform="translate(-269.106 -50.908)" fill="#68543c"/>
    <path id="Path_533" data-name="Path 533" d="M305.319,109.648c0-1.046-.009-2.092-.009-3.138A4.895,4.895,0,0,1,305.319,109.648Z" transform="translate(-269.136 -50.912)" fill="#fabf9e"/>
    <path id="Path_534" data-name="Path 534" d="M309.049,96.253c-.009,1.02-.017,2.031-.017,3.051a1.193,1.193,0,0,0-.166.017l-.122-.122a7.224,7.224,0,0,1-.1-2.7.826.826,0,0,1,.148-.305C308.909,96.1,308.987,96.122,309.049,96.253Z" transform="translate(-269.554 -49.58)" fill="#67533a"/>
    <path id="Path_535" data-name="Path 535" d="M308.91,109.61c.009-1.037.017-2.083.017-3.12a.556.556,0,0,1,.166.07c-.009,1.02-.026,2.048-.035,3.068A.767.767,0,0,0,308.91,109.61Z" transform="translate(-269.598 -50.909)" fill="#66523a"/>
    <path id="Path_536" data-name="Path 536" d="M306.29,99.325V96.2a.6.6,0,0,1,.174-.026c.044.044.087.087.139.131a5.152,5.152,0,0,1,.009,2.929c-.044.044-.087.087-.139.131A.976.976,0,0,1,306.29,99.325Z" transform="translate(-269.262 -49.584)" fill="#67533a"/>
    <path id="Path_537" data-name="Path 537" d="M308.91,94.224c.009-1.029.017-2.066.026-3.094a.943.943,0,0,1,.166.07l-.052,3.059C309,94.25,308.954,94.233,308.91,94.224Z" transform="translate(-269.598 -48.937)" fill="#635038"/>
    <path id="Path_538" data-name="Path 538" d="M300.453,95.974a17.486,17.486,0,0,1-.078,3.094c-.044-.061-.078-.131-.122-.192a7.869,7.869,0,0,1,0-2.711c0-.078.009-.157.009-.235A1.238,1.238,0,0,1,300.453,95.974Z" transform="translate(-268.471 -49.553)" fill="#473b23"/>
    <path id="Path_539" data-name="Path 539" d="M308.791,96.19c-.061-.017-.122-.044-.192-.061a3,3,0,0,1-2.04-.192,2.44,2.44,0,0,1,2.249-.026C308.809,96.007,308.8,96.1,308.791,96.19Z" transform="translate(-269.296 -49.517)" fill="#fac09e"/>
    <path id="Path_540" data-name="Path 540" d="M308.542,99.95a3.09,3.09,0,0,1-2.013.174c-.009,0-.017-.061-.009-.087s.035-.052.061-.078A1.869,1.869,0,0,1,308.542,99.95Z" transform="translate(-269.29 -50.034)" fill="#fbc09e"/>
    <path id="Path_541" data-name="Path 541" d="M304.712,105.465H302.69v-.1h2.04A.437.437,0,0,1,304.712,105.465Z" transform="translate(-268.799 -50.764)" fill="#f8be9c"/>
    <path id="Path_542" data-name="Path 542" d="M306.57,110.41H308.6v.1H306.57Z" transform="translate(-269.297 -51.413)" fill="#fbbf9e"/>
    <path id="Path_543" data-name="Path 543" d="M304.726,110.306c-.645.488-1.36.166-2.048.157-.009,0-.017-.061-.009-.087a.239.239,0,0,1,.061-.078A5.486,5.486,0,0,1,304.726,110.306Z" transform="translate(-268.796 -51.387)" fill="#fbbf9e"/>
    <path id="Path_544" data-name="Path 544" d="M308.572,90.873c-.767.009-1.525.026-2.292.035A2.557,2.557,0,0,1,308.572,90.873Z" transform="translate(-269.26 -48.871)" fill="#f7be9c"/>
    <path id="Path_545" data-name="Path 545" d="M306.29,104.97l2.284.078A2.277,2.277,0,0,1,306.29,104.97Z" transform="translate(-269.262 -50.714)" fill="#fabf9f"/>
    <path id="Path_546" data-name="Path 546" d="M302.979,106.09H304.8v.1h-1.83C302.97,106.151,302.979,106.125,302.979,106.09Z" transform="translate(-268.835 -50.858)" fill="#fcc29f"/>
    <path id="Path_547" data-name="Path 547" d="M302.68,100c.767,0,1.525,0,2.292-.009A2.38,2.38,0,0,1,302.68,100Z" transform="translate(-268.798 -50.075)" fill="#fdc2a0"/>
    <ellipse id="Ellipse_181" data-name="Ellipse 181" cx="1.307" cy="0.061" rx="1.307" ry="0.061" transform="translate(33.725 46.228)" fill="#f9bf9d"/>
    <path id="Path_548" data-name="Path 548" d="M306.558,95.98c.671.157,1.386-.174,2.04.192l-.044.035a1.924,1.924,0,0,1-2.013-.017l-.061-.061C306.506,96.085,306.532,96.032,306.558,95.98Z" transform="translate(-269.286 -49.56)" fill="#67533a"/>
    <path id="Path_549" data-name="Path 549" d="M308.538,99.918c-.654,0-1.316,0-1.97.009l-.078-.157.052-.052a1.924,1.924,0,0,1,2.013-.009l.044.044C308.582,99.8,308.564,99.857,308.538,99.918Z" transform="translate(-269.287 -50.003)" fill="#67533a"/>
    <path id="Path_550" data-name="Path 550" d="M300.146,95.409c-.113.017-.227.026-.34.044.113-.628-.27-1.316.261-1.883A5.931,5.931,0,0,0,300.146,95.409Z" transform="translate(-268.426 -49.25)" fill="#71cbb4"/>
    <path id="Path_551" data-name="Path 551" d="M304.732,110.292c-.662,0-1.334-.009-2-.009a.663.663,0,0,1-.026-.183l2.092.026A.556.556,0,0,1,304.732,110.292Z" transform="translate(-268.802 -51.373)" fill="#68543c"/>
    <path id="Path_552" data-name="Path 552" d="M301.306,101.273l-1.046-.052C300.626,100.889,300.983,100.82,301.306,101.273Z" transform="translate(-268.488 -50.198)" fill="#fcc1a0"/>
    <ellipse id="Ellipse_182" data-name="Ellipse 182" cx="1.028" cy="0.07" rx="1.028" ry="0.07" transform="translate(40.48 44.965)" fill="#4e422a"/>
    <path id="Path_553" data-name="Path 553" d="M310.36,96.2h1.874A1.936,1.936,0,0,1,310.36,96.2Z" transform="translate(-269.784 -49.588)" fill="#4d4129"/>
    <path id="Path_554" data-name="Path 554" d="M310.36,85.89h1.865A1.99,1.99,0,0,1,310.36,85.89Z" transform="translate(-269.784 -48.264)" fill="#4c4029"/>
    <path id="Path_555" data-name="Path 555" d="M312.227,89.417H310.37A2.05,2.05,0,0,1,312.227,89.417Z" transform="translate(-269.785 -48.689)" fill="#4e412b"/>
    <path id="Path_556" data-name="Path 556" d="M308.67,84.141c1.177-.453,2.388-.131,3.591-.183.305-.009.819-.584,1.011.183Z" transform="translate(-269.567 -47.989)" fill="#55462e"/>
    <path id="Path_557" data-name="Path 557" d="M296.94,100.235a2.4,2.4,0,0,1,2.074-.009C298.317,100.226,297.629,100.235,296.94,100.235Z" transform="translate(-268.061 -50.075)" fill="#117d5f"/>
    <path id="Path_558" data-name="Path 558" d="M295.258,104.06c.427-.75.113-1.56.192-2.336a3.044,3.044,0,0,1,.218-1.194v3.722c-.139,0-.27.009-.41.009A.39.39,0,0,1,295.258,104.06Z" transform="translate(-267.844 -50.144)" fill="#78cdb5"/>
    <path id="Path_559" data-name="Path 559" d="M308.639,71.1c-.07,0-.139-.009-.209-.009V68.62h.209Z" transform="translate(-269.536 -46.047)" fill="#79cdb7"/>
    <path id="Path_560" data-name="Path 560" d="M305.283,71.056l-.087.017-.1-.009V68.38C305.518,69.243,305.187,70.167,305.283,71.056Z" transform="translate(-269.109 -46.016)" fill="#7dcfb7"/>
    <path id="Path_561" data-name="Path 561" d="M303.277,71.07l-.1.009-.1-.009c-.131-.148-.261-.288-.392-.436a3.114,3.114,0,0,1,.017-2.048c.575-.427.933-.261.924.427S303.887,70.468,303.277,71.07Z" transform="translate(-268.776 -46.012)" fill="#e2f3ee"/>
    <path id="Path_562" data-name="Path 562" d="M302.693,68.61c-.009.68-.009,1.368-.017,2.048A1.844,1.844,0,0,1,302.693,68.61Z" transform="translate(-268.759 -46.046)" fill="#6fc5ac"/>
    <path id="Path_563" data-name="Path 563" d="M311.45,69.416c.026-.349.061-.7.087-1.046.444.872.1,1.8.2,2.693C311.25,70.584,311.668,69.948,311.45,69.416Z" transform="translate(-269.924 -46.015)" fill="#7dd0ba"/>
    <path id="Path_564" data-name="Path 564" d="M313.4,76.277v.209c-.7-.1-1.429.218-2.092-.209.078-.009.148-.009.227-.017C312.164,76.269,312.783,76.277,313.4,76.277Z" transform="translate(-269.906 -47.028)" fill="#135a42"/>
    <path id="Path_565" data-name="Path 565" d="M308.257,72.96h1.979c.009.889.017,1.787.026,2.676a2.157,2.157,0,0,1-2.022,0C308.249,74.738,308.257,73.849,308.257,72.96Z" transform="translate(-269.512 -46.604)" fill="#77c8b1"/>
    <path id="Path_566" data-name="Path 566" d="M303.617,75.841c-.61-.157-1.281.218-1.857-.227a1.664,1.664,0,0,0,1.6-2.153.722.722,0,0,1,.253-.549.535.535,0,0,1-.009-.122c.07.035.131.07.2.1a6.67,6.67,0,0,1-.026,2.876C303.721,75.8,303.669,75.814,303.617,75.841Z" transform="translate(-268.68 -46.582)" fill="#6bbda5"/>
    <path id="Path_567" data-name="Path 567" d="M304.08,75.806q.013-1.438.026-2.876a6.025,6.025,0,0,1,.148,2.92.119.119,0,0,1-.087.017A.755.755,0,0,1,304.08,75.806Z" transform="translate(-268.978 -46.6)" fill="#165d43"/>
    <path id="Path_568" data-name="Path 568" d="M307.476,75.85c.1-.967-.235-1.97.209-2.92C307.581,73.9,307.912,74.9,307.476,75.85Z" transform="translate(-269.41 -46.6)" fill="#145a41"/>
    <path id="Path_569" data-name="Path 569" d="M308.235,76.02h2.022a1.737,1.737,0,0,0,.035.209,3.962,3.962,0,0,1-2.092,0A1.749,1.749,0,0,1,308.235,76.02Z" transform="translate(-269.506 -46.997)" fill="#54a18a"/>
    <path id="Path_570" data-name="Path 570" d="M308.2,76.26h2.092A2.175,2.175,0,0,1,308.2,76.26Z" transform="translate(-269.506 -47.028)" fill="#125a42"/>
    <path id="Path_571" data-name="Path 571" d="M305.08,76.444v-.209a1.609,1.609,0,0,1,1.883,0v.209Z" transform="translate(-269.106 -46.986)" fill="#135a42"/>
    <path id="Path_572" data-name="Path 572" d="M303.6,72.933c0,.279-.009.549-.009.828,0,1.891,0,1.891-1.839,1.874-.009-.314-.035-.619-.035-.933C301.711,72.8,301.711,72.8,303.6,72.933Z" transform="translate(-268.674 -46.594)" fill="#76c8b0"/>
    <path id="Path_573" data-name="Path 573" d="M305.061,72.936c1.935-.218,1.935-.218,1.926,1.673,0,.34-.026.689-.044,1.029a4.039,4.039,0,0,1-1.909.009h0A8.084,8.084,0,0,1,305.061,72.936Z" transform="translate(-269.088 -46.589)" fill="#77c8b1"/>
    <path id="Path_574" data-name="Path 574" d="M305.051,72.95c-.009.906-.009,1.8-.017,2.711A5.023,5.023,0,0,1,305.051,72.95Z" transform="translate(-269.077 -46.603)" fill="#6bbba4"/>
    <path id="Path_575" data-name="Path 575" d="M305.059,76.049c.636,0,1.273-.009,1.909-.009a.563.563,0,0,1-.009.209h-1.883A.508.508,0,0,1,305.059,76.049Z" transform="translate(-269.103 -47)" fill="#6bbba4"/>
    <path id="Path_576" data-name="Path 576" d="M298.756,78.67a2.327,2.327,0,0,1-2.066.026Z" transform="translate(-268.029 -47.337)" fill="#127b5c"/>
    <path id="Path_577" data-name="Path 577" d="M299.126,83.22c-.445.436-.967.113-1.456,0Z" transform="translate(-268.155 -47.921)" fill="#117b5b"/>
    <path id="Path_578" data-name="Path 578" d="M300.242,96.2v2.711A3.73,3.73,0,0,1,300.242,96.2Z" transform="translate(-268.452 -49.588)" fill="#584a33"/>
    <path id="Path_579" data-name="Path 579" d="M308.563,99.289c-.671,0-1.342.009-2.013.009V96.23c.671.009,1.342.009,2.013.017Z" transform="translate(-269.295 -49.592)" fill="#54452e"/>
  </g>
</svg>
