<svg id="gateway-of-india-119691" xmlns="http://www.w3.org/2000/svg" width="79.636" height="60.033" viewBox="0 0 79.636 60.033">
  <path id="Path_98" data-name="Path 98" d="M41.3,65.5V96.129H63.353V65.5ZM60.9,95.517H43.75V82.162a11.564,11.564,0,0,1,5.268-9.679L52.327,70.4l3.308,2.083A11.407,11.407,0,0,1,60.9,82.162Z" transform="translate(-12.508 -36.708)" fill="#fedab3"/>
  <path id="Path_99" data-name="Path 99" d="M73.78,68.5V95.454h5.636V86.878A3.933,3.933,0,0,1,81.988,83.2a3.867,3.867,0,0,1,2.328,3.676v8.576h6.738V68.5Zm-51.58,0V95.454h6.738V86.878A3.933,3.933,0,0,1,31.511,83.2a3.867,3.867,0,0,1,2.328,3.676v8.576h5.513V68.5Z" transform="translate(-16.809 -36.033)" fill="#fdd2af"/>
  <path id="XMLID_2328_" d="M73.982,57.5H92.36v3.676H21.3V57.5H39.678" transform="translate(-17.012 -38.51)" fill="#fedab3"/>
  <rect id="Rectangle_2157" data-name="Rectangle 2157" width="2.45" height="3.676" transform="translate(4.288 18.99)" fill="#eeb694"/>
  <rect id="Rectangle_2158" data-name="Rectangle 2158" width="2.45" height="3.676" transform="translate(20.215 18.99)" fill="#eeb694"/>
  <rect id="Rectangle_2159" data-name="Rectangle 2159" width="2.45" height="3.676" transform="translate(72.898 18.99)" fill="#fff" opacity="0.7"/>
  <rect id="XMLID_2327_" width="22.053" height="8.576" transform="translate(28.792 14.089)" fill="#fedab3"/>
  <path id="Path_100" data-name="Path 100" d="M41.3,53.5v2.45H60.78v6.126h2.45V53.5Z" transform="translate(-12.508 -39.411)" fill="#eeb694"/>
  <path id="XMLID_2326_" d="M22.3,66.626V60.5H91.032v6.126" transform="translate(-16.787 -37.834)" fill="#fdd2af"/>
  <rect id="Rectangle_2160" data-name="Rectangle 2160" width="68.732" height="2.45" transform="translate(5.513 22.666)" fill="#eeb694"/>
  <rect id="Rectangle_2161" data-name="Rectangle 2161" width="17.275" height="2.45" transform="translate(56.97 32.467)" fill="#eeb694"/>
  <rect id="Rectangle_2162" data-name="Rectangle 2162" width="17.275" height="2.45" transform="translate(5.513 32.467)" fill="#eeb694"/>
  <rect id="Rectangle_2163" data-name="Rectangle 2163" width="22.053" height="2.45" transform="translate(28.792 28.792)" fill="#eeb694"/>
  <rect id="Rectangle_2164" data-name="Rectangle 2164" width="2.45" height="30.629" transform="translate(28.792 28.792)" fill="#fff" opacity="0.7"/>
  <rect id="Rectangle_2165" data-name="Rectangle 2165" width="2.45" height="30.629" transform="translate(48.394 28.792)" fill="#eeb694"/>
  <rect id="Rectangle_2166" data-name="Rectangle 2166" width="22.053" height="6.126" transform="translate(28.792 22.666)" fill="#e8b795"/>
  <rect id="Rectangle_2167" data-name="Rectangle 2167" width="22.053" height="2.45" transform="translate(28.792 22.666)" fill="#c59878"/>
  <path id="XMLID_2325_" d="M92.472,61.9H21.413a.579.579,0,0,1-.613-.613V57.613A.579.579,0,0,1,21.413,57H39.79a.613.613,0,1,1,0,1.225H22.025v2.45H91.86v-2.45H74.095a.613.613,0,0,1,0-1.225H92.35a.579.579,0,0,1,.613.613v3.676C93.085,61.656,92.84,61.9,92.472,61.9Z" transform="translate(-17.124 -38.622)" fill="#594454"/>
  <path id="XMLID_2324_" d="M59.8,65.5H86.141l-1.225,3.676H59.8" transform="translate(-8.343 -36.708)" fill="#dda581"/>
  <rect id="Rectangle_2168" data-name="Rectangle 2168" width="2.45" height="6.126" transform="translate(71.795 22.666)" fill="#fff" opacity="0.7"/>
  <rect id="Rectangle_2169" data-name="Rectangle 2169" width="2.45" height="26.954" transform="translate(71.795 32.467)" fill="#fff" opacity="0.7"/>
  <path id="Path_101" data-name="Path 101" d="M79.525,65.5,78.3,69.176h2.45L81.976,65.5Z" transform="translate(-4.177 -36.708)" fill="#fff" opacity="0.7"/>
  <rect id="XMLID_2323_" width="6.126" height="45.331" transform="translate(50.845 14.089)" fill="#fedab3"/>
  <path id="XMLID_2322_" d="M45.641,69.176H20.525L19.3,65.5H46.254" transform="translate(-17.462 -36.708)" fill="#dda581"/>
  <rect id="Rectangle_2170" data-name="Rectangle 2170" width="2.45" height="26.954" transform="translate(5.391 32.467)" fill="#eeb694"/>
  <rect id="Rectangle_2171" data-name="Rectangle 2171" width="2.45" height="26.954" transform="translate(20.093 32.467)" fill="#eeb694"/>
  <rect id="Rectangle_2172" data-name="Rectangle 2172" width="2.45" height="6.126" transform="translate(5.513 22.666)" fill="#eeb694"/>
  <rect id="Rectangle_2173" data-name="Rectangle 2173" width="2.45" height="6.126" transform="translate(20.215 22.666)" fill="#eeb694"/>
  <path id="Path_102" data-name="Path 102" d="M19.3,65.5l1.225,3.676h2.45L21.75,65.5Z" transform="translate(-17.462 -36.708)" fill="#b7856c"/>
  <rect id="XMLID_2321_" width="6.126" height="45.331" transform="translate(22.666 14.089)" fill="#fedab3"/>
  <rect id="Rectangle_2174" data-name="Rectangle 2174" width="2.45" height="45.331" transform="translate(54.52 14.089)" fill="#fff" opacity="0.7"/>
  <rect id="Rectangle_2175" data-name="Rectangle 2175" width="2.45" height="45.331" transform="translate(26.341 14.089)" fill="#fff" opacity="0.7"/>
  <rect id="Rectangle_2176" data-name="Rectangle 2176" width="6.126" height="3.676" transform="translate(22.666 28.792)" fill="#e8b795"/>
  <rect id="Rectangle_2177" data-name="Rectangle 2177" width="2.45" height="3.676" transform="translate(26.341 28.792)" fill="#fff" opacity="0.7"/>
  <rect id="Rectangle_2178" data-name="Rectangle 2178" width="6.126" height="3.676" transform="translate(50.845 28.792)" fill="#fcc49d"/>
  <rect id="Rectangle_2179" data-name="Rectangle 2179" width="2.45" height="3.676" transform="translate(54.52 28.792)" fill="#fff" opacity="0.7"/>
  <path id="XMLID_2320_" d="M25.8,79.968a8.292,8.292,0,0,1,4.533-7.351h0a.781.781,0,0,1,.735,0h0A8.023,8.023,0,0,1,35.6,79.968" transform="translate(-15.999 -35.127)" fill="#dda581"/>
  <path id="XMLID_2319_" d="M66.8,79.968a8.292,8.292,0,0,1,4.533-7.351h0a.781.781,0,0,1,.735,0h0A8.023,8.023,0,0,1,76.6,79.968" transform="translate(-6.767 -35.127)" fill="#dda581"/>
  <path id="Path_103" data-name="Path 103" d="M30.333,75.067a.781.781,0,0,1,.735,0,8.678,8.678,0,0,1,4.166,4.9H35.6a8.292,8.292,0,0,0-4.533-7.351.781.781,0,0,0-.735,0A8.023,8.023,0,0,0,25.8,79.968h.368A7.86,7.86,0,0,1,30.333,75.067Zm50.232,0a.781.781,0,0,1,.735,0,8.678,8.678,0,0,1,4.166,4.9h.368A8.292,8.292,0,0,0,81.3,72.617a.781.781,0,0,0-.735,0,8.023,8.023,0,0,0-4.533,7.351H76.4A7.86,7.86,0,0,1,80.565,75.067Z" transform="translate(-15.999 -35.127)" fill="#b7856c"/>
  <rect id="XMLID_2318_" width="3.676" height="7.351" transform="translate(23.891 6.738)" fill="#fedab3"/>
  <rect id="XMLID_2317_" width="24.503" height="3.676" transform="translate(27.566 10.414)" fill="#fedab3"/>
  <rect id="Rectangle_2180" data-name="Rectangle 2180" width="2.45" height="3.676" transform="translate(49.619 10.414)" fill="#eeb694"/>
  <rect id="Rectangle_2181" data-name="Rectangle 2181" width="2.45" height="3.676" transform="translate(27.566 10.414)" fill="#fff" opacity="0.7"/>
  <path id="XMLID_2316_" d="M37.3,48.788v-2.45A1.884,1.884,0,0,1,39.138,44.5h0a1.884,1.884,0,0,1,1.838,1.838v2.45" transform="translate(-13.409 -41.437)" fill="#fcc49d"/>
  <rect id="XMLID_2315_" width="3.676" height="7.351" transform="translate(52.07 6.738)" fill="#fedab3"/>
  <rect id="Rectangle_2182" data-name="Rectangle 2182" width="3.676" height="2.45" transform="translate(23.891 6.738)" fill="#eeb694"/>
  <rect id="Rectangle_2183" data-name="Rectangle 2183" width="3.676" height="2.45" transform="translate(52.07 6.738)" fill="#eeb694"/>
  <path id="XMLID_2314_" d="M60.3,48.788v-2.45A1.884,1.884,0,0,1,62.138,44.5h0a1.884,1.884,0,0,1,1.838,1.838v2.45" transform="translate(-8.23 -41.437)" fill="#fcc49d"/>
  <path id="XMLID_2312_" d="M96.824,91.225H18.413a.613.613,0,1,1,0-1.225H96.824a.613.613,0,1,1,0,1.225Z" transform="translate(-17.8 -31.192)" fill="#594454"/>
  <path id="XMLID_2311_" d="M91.022,96.179H22.413a.579.579,0,0,1-.613-.613V68.613a.613.613,0,1,1,1.225,0V94.954H90.41V68.613a.613.613,0,1,1,1.225,0V95.566A.579.579,0,0,1,91.022,96.179Z" transform="translate(-16.899 -36.146)" fill="#594454"/>
  <path id="XMLID_2310_" d="M91.022,67.351a.579.579,0,0,1-.613-.613V61.225H23.025v5.513a.613.613,0,1,1-1.225,0V60.613A.579.579,0,0,1,22.413,60h68.61a.579.579,0,0,1,.613.613v6.126A.579.579,0,0,1,91.022,67.351Z" transform="translate(-16.899 -37.947)" fill="#594454"/>
  <path id="XMLID_2309_" d="M45.763,69.9H20.647a.674.674,0,0,1-.613-.368l-1.225-3.676c-.123-.245,0-.368.123-.613a.637.637,0,0,1,.49-.245H46.376a.613.613,0,0,1,0,1.225H20.28l.858,2.45H45.763a.613.613,0,1,1,0,1.225Z" transform="translate(-17.584 -36.821)" fill="#594454"/>
  <path id="XMLID_2308_" d="M85.029,69.9H59.913a.613.613,0,0,1,0-1.225H84.539l.858-2.45H59.913a.613.613,0,0,1,0-1.225H86.254a.637.637,0,0,1,.49.245.918.918,0,0,1,.123.613l-1.225,3.676A.674.674,0,0,1,85.029,69.9Z" transform="translate(-8.455 -36.821)" fill="#594454"/>
  <path id="XMLID_2307_" d="M42.538,99.556H36.413a.579.579,0,0,1-.613-.613V53.613A.579.579,0,0,1,36.413,53h6.126a.579.579,0,0,1,.613.613V98.944A.579.579,0,0,1,42.538,99.556Zm-5.513-1.225h4.9V54.225h-4.9Z" transform="translate(-13.747 -39.523)" fill="#594454"/>
  <path id="XMLID_2306_" d="M41.088,55.576H37.413a.579.579,0,0,1-.613-.613V47.613A.579.579,0,0,1,37.413,47h3.676a.579.579,0,0,1,.613.613v7.351A.579.579,0,0,1,41.088,55.576Zm-3.063-1.225h2.45V48.225h-2.45Z" transform="translate(-13.522 -40.874)" fill="#594454"/>
  <path id="XMLID_2305_" d="M41.088,49.513a.579.579,0,0,1-.613-.613V46.45a1.225,1.225,0,1,0-2.45,0V48.9a.613.613,0,1,1-1.225,0V46.45a2.45,2.45,0,0,1,4.9,0V48.9A.579.579,0,0,1,41.088,49.513Z" transform="translate(-13.522 -41.55)" fill="#594454"/>
  <path id="XMLID_2304_" d="M32.813,93.477h-4.9a.579.579,0,0,1-.613-.613V84.288A4.732,4.732,0,0,1,30.24,80h.368a4.511,4.511,0,0,1,2.818,4.288v8.576A.579.579,0,0,1,32.813,93.477Zm-4.288-1.225H32.2V84.288a3.446,3.446,0,0,0-1.838-3.063,3.327,3.327,0,0,0-1.838,3.063Z" transform="translate(-15.661 -33.444)" fill="#594454"/>
  <path id="XMLID_2303_" d="M60.565,95.336a.579.579,0,0,1-.613-.613V81.246a10.938,10.938,0,0,0-5.023-9.189l-2.94-1.838-2.94,1.96a10.859,10.859,0,0,0-5.023,9.066V94.723a.613.613,0,0,1-1.225,0V81.369A12.032,12.032,0,0,1,48.313,71.2l3.308-2.083a.547.547,0,0,1,.613,0L55.542,71.2a12.145,12.145,0,0,1,5.636,10.169V94.845A.561.561,0,0,1,60.565,95.336Z" transform="translate(-12.171 -35.915)" fill="#594454"/>
  <path id="XMLID_2302_" d="M35.714,79.225h-9.8a.613.613,0,1,1,0-1.225h9.8a.613.613,0,1,1,0,1.225Z" transform="translate(-16.111 -33.894)" fill="#594454"/>
  <path id="XMLID_2301_" d="M38.913,45.553a.579.579,0,0,1-.613-.613V42.613a.613.613,0,0,1,1.225,0V44.94A.579.579,0,0,1,38.913,45.553Z" transform="translate(-13.184 -42)" fill="#594454"/>
  <path id="XMLID_2300_" d="M65.538,99.556H59.413a.579.579,0,0,1-.613-.613V53.613A.579.579,0,0,1,59.413,53h6.126a.579.579,0,0,1,.613.613V98.944A.579.579,0,0,1,65.538,99.556Zm-5.513-1.225h4.9V54.225h-4.9Z" transform="translate(-8.568 -39.523)" fill="#594454"/>
  <path id="XMLID_2299_" d="M64.088,55.576H60.413a.579.579,0,0,1-.613-.613V47.613A.579.579,0,0,1,60.413,47h3.676a.579.579,0,0,1,.613.613v7.351A.579.579,0,0,1,64.088,55.576Zm-3.063-1.225h2.45V48.225h-2.45Z" transform="translate(-8.343 -40.874)" fill="#594454"/>
  <path id="XMLID_2298_" d="M64.088,49.513a.579.579,0,0,1-.613-.613V46.45a1.225,1.225,0,1,0-2.45,0V48.9a.613.613,0,1,1-1.225,0V46.45a2.45,2.45,0,1,1,4.9,0V48.9A.579.579,0,0,1,64.088,49.513Z" transform="translate(-8.343 -41.55)" fill="#594454"/>
  <path id="XMLID_2297_" d="M61.913,45.553a.579.579,0,0,1-.613-.613V42.613a.613.613,0,0,1,1.225,0V44.94A.579.579,0,0,1,61.913,45.553Z" transform="translate(-8.005 -42)" fill="#594454"/>
  <path id="XMLID_2296_" d="M44.413,67.351a.579.579,0,0,1-.613-.613V60.613a.613.613,0,1,1,1.225,0v6.126A.579.579,0,0,1,44.413,67.351Z" transform="translate(-11.946 -37.947)" fill="#594454"/>
  <path id="XMLID_2295_" d="M47.413,67.351a.579.579,0,0,1-.613-.613V60.613a.613.613,0,1,1,1.225,0v6.126A.579.579,0,0,1,47.413,67.351Z" transform="translate(-11.27 -37.947)" fill="#594454"/>
  <path id="XMLID_2294_" d="M50.413,67.351a.579.579,0,0,1-.613-.613V60.613a.613.613,0,1,1,1.225,0v6.126A.579.579,0,0,1,50.413,67.351Z" transform="translate(-10.595 -37.947)" fill="#594454"/>
  <path id="XMLID_2293_" d="M53.413,67.351a.579.579,0,0,1-.613-.613V60.613a.613.613,0,1,1,1.225,0v6.126A.579.579,0,0,1,53.413,67.351Z" transform="translate(-9.919 -37.947)" fill="#594454"/>
  <path id="XMLID_2292_" d="M56.413,67.351a.579.579,0,0,1-.613-.613V60.613a.613.613,0,1,1,1.225,0v6.126A.579.579,0,0,1,56.413,67.351Z" transform="translate(-9.244 -37.947)" fill="#594454"/>
  <path id="XMLID_2291_" d="M35.714,95.267a.579.579,0,0,1-.613-.613V80.075a7.348,7.348,0,0,0-4.166-6.738h-.245a7.618,7.618,0,0,0-4.166,6.738v14.58a.613.613,0,0,1-1.225,0V80.075a8.65,8.65,0,0,1,4.9-7.841,1.322,1.322,0,0,1,1.348,0,8.65,8.65,0,0,1,4.9,7.841v14.58A.777.777,0,0,1,35.714,95.267Z" transform="translate(-16.111 -35.234)" fill="#594454"/>
  <path id="XMLID_2290_" d="M73.813,93.477h-4.9a.579.579,0,0,1-.613-.613V84.288A4.732,4.732,0,0,1,71.24,80h.368a4.511,4.511,0,0,1,2.818,4.288v8.576A.579.579,0,0,1,73.813,93.477Zm-4.288-1.225H73.2V84.288a3.446,3.446,0,0,0-1.838-3.063,3.327,3.327,0,0,0-1.838,3.063Z" transform="translate(-6.429 -33.444)" fill="#594454"/>
  <path id="XMLID_2289_" d="M76.691,79.225H67.013a.613.613,0,0,1,0-1.225h9.679a.579.579,0,0,1,.613.613A.656.656,0,0,1,76.691,79.225Z" transform="translate(-6.857 -33.894)" fill="#594454"/>
  <path id="XMLID_1569_" d="M76.714,95.267a.579.579,0,0,1-.613-.613V80.075a7.348,7.348,0,0,0-4.166-6.738h-.245a7.618,7.618,0,0,0-4.166,6.738v14.58a.613.613,0,0,1-1.225,0V80.075a8.65,8.65,0,0,1,4.9-7.841,1.322,1.322,0,0,1,1.348,0,8.65,8.65,0,0,1,4.9,7.841v14.58A.776.776,0,0,1,76.714,95.267Z" transform="translate(-6.879 -35.234)" fill="#594454"/>
  <path id="XMLID_1567_" d="M63.833,54.225H41.413a.613.613,0,0,1,0-1.225H63.833a.613.613,0,0,1,0,1.225Z" transform="translate(-12.621 -39.523)" fill="#594454"/>
  <path id="XMLID_1565_" d="M63.833,66.225H41.413a.613.613,0,0,1,0-1.225H63.833a.613.613,0,0,1,0,1.225Z" transform="translate(-12.621 -36.821)" fill="#594454"/>
  <path id="XMLID_1168_" d="M64.3,51.225H40.413a.613.613,0,1,1,0-1.225H64.3a.613.613,0,1,1,0,1.225Z" transform="translate(-12.846 -40.199)" fill="#594454"/>
</svg>
